<svg viewBox="0 0 1440 1024" fill="none" xmlns="http://www.w3.org/2000/svg">
<path d="M558.49 247.44C558.49 250.427 557.77 253.227 556.33 255.84C554.943 258.453 552.73 260.56 549.69 262.16C546.703 263.76 542.917 264.56 538.33 264.56H528.97V286H517.77V230.16H538.33C542.65 230.16 546.33 230.907 549.37 232.4C552.41 233.893 554.677 235.947 556.17 238.56C557.717 241.173 558.49 244.133 558.49 247.44ZM537.85 255.52C540.943 255.52 543.237 254.827 544.73 253.44C546.223 252 546.97 250 546.97 247.44C546.97 242 543.93 239.28 537.85 239.28H528.97V255.52H537.85ZM600.682 275.36H578.442L574.762 286H563.002L583.082 230.08H596.122L616.202 286H604.362L600.682 275.36ZM597.642 266.4L589.562 243.04L581.482 266.4H597.642ZM642.988 286.56C639.094 286.56 635.574 285.893 632.428 284.56C629.334 283.227 626.881 281.307 625.068 278.8C623.254 276.293 622.321 273.333 622.268 269.92H634.268C634.428 272.213 635.228 274.027 636.668 275.36C638.161 276.693 640.188 277.36 642.748 277.36C645.361 277.36 647.414 276.747 648.908 275.52C650.401 274.24 651.148 272.587 651.148 270.56C651.148 268.907 650.641 267.547 649.628 266.48C648.614 265.413 647.334 264.587 645.788 264C644.294 263.36 642.214 262.667 639.548 261.92C635.921 260.853 632.961 259.813 630.668 258.8C628.428 257.733 626.481 256.16 624.828 254.08C623.228 251.947 622.428 249.12 622.428 245.6C622.428 242.293 623.254 239.413 624.908 236.96C626.561 234.507 628.881 232.64 631.868 231.36C634.854 230.027 638.268 229.36 642.108 229.36C647.868 229.36 652.534 230.773 656.108 233.6C659.734 236.373 661.734 240.267 662.108 245.28H649.788C649.681 243.36 648.854 241.787 647.308 240.56C645.814 239.28 643.814 238.64 641.308 238.64C639.121 238.64 637.361 239.2 636.028 240.32C634.748 241.44 634.108 243.067 634.108 245.2C634.108 246.693 634.588 247.947 635.548 248.96C636.561 249.92 637.788 250.72 639.228 251.36C640.721 251.947 642.801 252.64 645.468 253.44C649.094 254.507 652.054 255.573 654.348 256.64C656.641 257.707 658.614 259.307 660.268 261.44C661.921 263.573 662.748 266.373 662.748 269.84C662.748 272.827 661.974 275.6 660.427 278.16C658.881 280.72 656.614 282.773 653.628 284.32C650.641 285.813 647.094 286.56 642.988 286.56ZM691.738 286.56C687.844 286.56 684.324 285.893 681.178 284.56C678.084 283.227 675.631 281.307 673.818 278.8C672.004 276.293 671.071 273.333 671.018 269.92H683.018C683.178 272.213 683.978 274.027 685.418 275.36C686.911 276.693 688.938 277.36 691.498 277.36C694.111 277.36 696.164 276.747 697.658 275.52C699.151 274.24 699.898 272.587 699.898 270.56C699.898 268.907 699.391 267.547 698.378 266.48C697.364 265.413 696.084 264.587 694.538 264C693.044 263.36 690.964 262.667 688.298 261.92C684.671 260.853 681.711 259.813 679.418 258.8C677.178 257.733 675.231 256.16 673.578 254.08C671.978 251.947 671.178 249.12 671.178 245.6C671.178 242.293 672.004 239.413 673.658 236.96C675.311 234.507 677.631 232.64 680.618 231.36C683.604 230.027 687.018 229.36 690.858 229.36C696.618 229.36 701.284 230.773 704.858 233.6C708.484 236.373 710.484 240.267 710.858 245.28H698.538C698.431 243.36 697.604 241.787 696.058 240.56C694.564 239.28 692.564 238.64 690.058 238.64C687.871 238.64 686.111 239.2 684.778 240.32C683.498 241.44 682.858 243.067 682.858 245.2C682.858 246.693 683.338 247.947 684.298 248.96C685.311 249.92 686.538 250.72 687.978 251.36C689.471 251.947 691.551 252.64 694.218 253.44C697.844 254.507 700.804 255.573 703.098 256.64C705.391 257.707 707.364 259.307 709.018 261.44C710.671 263.573 711.498 266.373 711.498 269.84C711.498 272.827 710.724 275.6 709.177 278.16C707.631 280.72 705.364 282.773 702.378 284.32C699.391 285.813 695.844 286.56 691.738 286.56ZM732.408 239.2V253.2H751.208V262.08H732.408V276.88H753.608V286H721.208V230.08H753.608V239.2H732.408ZM792.586 286L780.266 264.24H774.986V286H763.786V230.16H784.746C789.066 230.16 792.746 230.933 795.786 232.48C798.826 233.973 801.092 236.027 802.586 238.64C804.132 241.2 804.906 244.08 804.906 247.28C804.906 250.96 803.839 254.293 801.706 257.28C799.572 260.213 796.399 262.24 792.186 263.36L805.546 286H792.586ZM774.986 255.84H784.346C787.386 255.84 789.652 255.12 791.146 253.68C792.639 252.187 793.386 250.133 793.386 247.52C793.386 244.96 792.639 242.987 791.146 241.6C789.652 240.16 787.386 239.44 784.346 239.44H774.986V255.84ZM826.236 239.2V253.2H845.036V262.08H826.236V276.88H847.436V286H815.036V230.08H847.436V239.2H826.236ZM868.814 277.12H887.214V286H857.614V230.16H868.814V277.12ZM905.533 277.12H923.933V286H894.333V230.16H905.533V277.12ZM942.251 239.2V253.2H961.051V262.08H942.251V276.88H963.451V286H931.051V230.08H963.451V239.2H942.251ZM992.909 286.56C989.016 286.56 985.496 285.893 982.349 284.56C979.256 283.227 976.803 281.307 974.989 278.8C973.176 276.293 972.243 273.333 972.189 269.92H984.189C984.349 272.213 985.149 274.027 986.589 275.36C988.083 276.693 990.109 277.36 992.669 277.36C995.283 277.36 997.336 276.747 998.829 275.52C1000.32 274.24 1001.07 272.587 1001.07 270.56C1001.07 268.907 1000.56 267.547 999.549 266.48C998.536 265.413 997.256 264.587 995.709 264C994.216 263.36 992.136 262.667 989.469 261.92C985.843 260.853 982.883 259.813 980.589 258.8C978.349 257.733 976.403 256.16 974.749 254.08C973.149 251.947 972.349 249.12 972.349 245.6C972.349 242.293 973.176 239.413 974.829 236.96C976.483 234.507 978.803 232.64 981.789 231.36C984.776 230.027 988.189 229.36 992.029 229.36C997.789 229.36 1002.46 230.773 1006.03 233.6C1009.66 236.373 1011.66 240.267 1012.03 245.28H999.709C999.603 243.36 998.776 241.787 997.229 240.56C995.736 239.28 993.736 238.64 991.229 238.64C989.043 238.64 987.283 239.2 985.949 240.32C984.669 241.44 984.029 243.067 984.029 245.2C984.029 246.693 984.509 247.947 985.469 248.96C986.483 249.92 987.709 250.72 989.149 251.36C990.643 251.947 992.723 252.64 995.389 253.44C999.016 254.507 1001.98 255.573 1004.27 256.64C1006.56 257.707 1008.54 259.307 1010.19 261.44C1011.84 263.573 1012.67 266.373 1012.67 269.84C1012.67 272.827 1011.9 275.6 1010.35 278.16C1008.8 280.72 1006.54 282.773 1003.55 284.32C1000.56 285.813 997.016 286.56 992.909 286.56ZM489.28 366H478.08L452.72 327.68V366H441.52V310.08H452.72L478.08 348.48V310.08H489.28V366ZM511.388 310.16V344.72C511.388 348.507 512.375 351.413 514.348 353.44C516.321 355.413 519.095 356.4 522.668 356.4C526.295 356.4 529.095 355.413 531.068 353.44C533.041 351.413 534.028 348.507 534.028 344.72V310.16H545.308V344.64C545.308 349.387 544.268 353.413 542.188 356.72C540.161 359.973 537.415 362.427 533.948 364.08C530.535 365.733 526.721 366.56 522.508 366.56C518.348 366.56 514.561 365.733 511.148 364.08C507.788 362.427 505.121 359.973 503.148 356.72C501.175 353.413 500.188 349.387 500.188 344.64V310.16H511.388ZM617.009 310.16V366H605.809V329.68L590.849 366H582.369L567.329 329.68V366H556.129V310.16H568.849L586.609 351.68L604.369 310.16H617.009ZM639.283 319.2V333.2H658.083V342.08H639.283V356.88H660.483V366H628.083V310.08H660.483V319.2H639.283ZM699.461 366L687.141 344.24H681.861V366H670.661V310.16H691.621C695.941 310.16 699.621 310.933 702.661 312.48C705.701 313.973 707.967 316.027 709.461 318.64C711.007 321.2 711.781 324.08 711.781 327.28C711.781 330.96 710.714 334.293 708.581 337.28C706.447 340.213 703.274 342.24 699.061 343.36L712.421 366H699.461ZM681.861 335.84H691.221C694.261 335.84 696.527 335.12 698.021 333.68C699.514 332.187 700.261 330.133 700.261 327.52C700.261 324.96 699.514 322.987 698.021 321.6C696.527 320.16 694.261 319.44 691.221 319.44H681.861V335.84ZM733.111 310.16V366H721.911V310.16H733.111ZM785.776 375.84L777.296 365.68C774.95 366.267 772.55 366.56 770.096 366.56C764.87 366.56 760.07 365.333 755.696 362.88C751.323 360.427 747.856 357.04 745.296 352.72C742.736 348.347 741.456 343.413 741.456 337.92C741.456 332.48 742.736 327.6 745.296 323.28C747.856 318.907 751.323 315.493 755.696 313.04C760.07 310.587 764.87 309.36 770.096 309.36C775.376 309.36 780.176 310.587 784.496 313.04C788.87 315.493 792.31 318.907 794.816 323.28C797.376 327.6 798.656 332.48 798.656 337.92C798.656 342.88 797.59 347.413 795.456 351.52C793.376 355.573 790.523 358.88 786.896 361.44L799.696 375.84H785.776ZM752.976 337.92C752.976 341.653 753.696 344.933 755.136 347.76C756.576 350.587 758.576 352.773 761.136 354.32C763.75 355.813 766.736 356.56 770.096 356.56C773.456 356.56 776.416 355.813 778.976 354.32C781.536 352.773 783.536 350.587 784.976 347.76C786.416 344.933 787.136 341.653 787.136 337.92C787.136 334.187 786.416 330.933 784.976 328.16C783.536 325.333 781.536 323.173 778.976 321.68C776.416 320.187 773.456 319.44 770.096 319.44C766.736 319.44 763.75 320.187 761.136 321.68C758.576 323.173 756.576 325.333 755.136 328.16C753.696 330.933 752.976 334.187 752.976 337.92ZM818.185 310.16V344.72C818.185 348.507 819.172 351.413 821.145 353.44C823.118 355.413 825.892 356.4 829.465 356.4C833.092 356.4 835.892 355.413 837.865 353.44C839.838 351.413 840.825 348.507 840.825 344.72V310.16H852.105V344.64C852.105 349.387 851.065 353.413 848.985 356.72C846.958 359.973 844.212 362.427 840.745 364.08C837.332 365.733 833.518 366.56 829.305 366.56C825.145 366.56 821.358 365.733 817.945 364.08C814.585 362.427 811.918 359.973 809.945 356.72C807.972 353.413 806.985 349.387 806.985 344.64V310.16H818.185ZM874.126 319.2V333.2H892.926V342.08H874.126V356.88H895.326V366H862.926V310.08H895.326V319.2H874.126ZM924.784 366.56C920.891 366.56 917.371 365.893 914.224 364.56C911.131 363.227 908.678 361.307 906.864 358.8C905.051 356.293 904.118 353.333 904.064 349.92H916.064C916.224 352.213 917.024 354.027 918.464 355.36C919.958 356.693 921.984 357.36 924.544 357.36C927.158 357.36 929.211 356.747 930.704 355.52C932.198 354.24 932.944 352.587 932.944 350.56C932.944 348.907 932.438 347.547 931.424 346.48C930.411 345.413 929.131 344.587 927.584 344C926.091 343.36 924.011 342.667 921.344 341.92C917.718 340.853 914.758 339.813 912.464 338.8C910.224 337.733 908.278 336.16 906.624 334.08C905.024 331.947 904.224 329.12 904.224 325.6C904.224 322.293 905.051 319.413 906.704 316.96C908.358 314.507 910.678 312.64 913.664 311.36C916.651 310.027 920.064 309.36 923.904 309.36C929.664 309.36 934.331 310.773 937.904 313.6C941.531 316.373 943.531 320.267 943.904 325.28H931.584C931.478 323.36 930.651 321.787 929.104 320.56C927.611 319.28 925.611 318.64 923.104 318.64C920.918 318.64 919.158 319.2 917.824 320.32C916.544 321.44 915.904 323.067 915.904 325.2C915.904 326.693 916.384 327.947 917.344 328.96C918.358 329.92 919.584 330.72 921.024 331.36C922.518 331.947 924.598 332.64 927.264 333.44C930.891 334.507 933.851 335.573 936.144 336.64C938.438 337.707 940.411 339.307 942.064 341.44C943.718 343.573 944.544 346.373 944.544 349.84C944.544 352.827 943.771 355.6 942.224 358.16C940.678 360.72 938.411 362.773 935.424 364.32C932.438 365.813 928.891 366.56 924.784 366.56Z" fill="black"/>
<path d="M590.783 399.12L575.423 441H565.223L549.863 399.12H558.863L570.383 432.42L581.843 399.12H590.783ZM604.22 399.12V441H595.82V399.12H604.22ZM620.919 405.9V416.4H635.019V423.06H620.919V434.16H636.819V441H612.519V399.06H636.819V405.9H620.919ZM672.953 399.12V405.9H661.793V441H653.393V405.9H642.233V399.12H672.953ZM714.901 441H706.501L687.481 412.26V441H679.081V399.06H687.481L706.501 427.86V399.06H714.901V441ZM748.883 433.02H732.203L729.443 441H720.623L735.683 399.06H745.463L760.523 441H751.643L748.883 433.02ZM746.603 426.3L740.543 408.78L734.482 426.3H746.603ZM811.812 399.12V441H803.412V413.76L792.192 441H785.832L774.552 413.76V441H766.152V399.12H775.692L789.012 430.26L802.332 399.12H811.812Z" fill="#FF8643"/>
<path d="M409.97 198.31C409.97 199.99 409.565 201.565 408.755 203.035C407.975 204.505 406.73 205.69 405.02 206.59C403.34 207.49 401.21 207.94 398.63 207.94H393.365V220H387.065V188.59H398.63C401.06 188.59 403.13 189.01 404.84 189.85C406.55 190.69 407.825 191.845 408.665 193.315C409.535 194.785 409.97 196.45 409.97 198.31ZM398.36 202.855C400.1 202.855 401.39 202.465 402.23 201.685C403.07 200.875 403.49 199.75 403.49 198.31C403.49 195.25 401.78 193.72 398.36 193.72H393.365V202.855H398.36ZM440.498 188.59V220H434.198V206.635H420.743V220H414.443V188.59H420.743V201.505H434.198V188.59H440.498ZM452.999 188.59V220H446.699V188.59H452.999ZM465.523 215.005H475.873V220H459.223V188.59H465.523V215.005ZM486.177 188.59V220H479.877V188.59H486.177ZM515.307 198.31C515.307 199.99 514.902 201.565 514.092 203.035C513.312 204.505 512.067 205.69 510.357 206.59C508.677 207.49 506.547 207.94 503.967 207.94H498.702V220H492.402V188.59H503.967C506.397 188.59 508.467 189.01 510.177 189.85C511.887 190.69 513.162 191.845 514.002 193.315C514.872 194.785 515.307 196.45 515.307 198.31ZM503.697 202.855C505.437 202.855 506.727 202.465 507.567 201.685C508.407 200.875 508.827 199.75 508.827 198.31C508.827 195.25 507.117 193.72 503.697 193.72H498.702V202.855H503.697ZM542.685 198.31C542.685 199.99 542.28 201.565 541.47 203.035C540.69 204.505 539.445 205.69 537.735 206.59C536.055 207.49 533.925 207.94 531.345 207.94H526.08V220H519.78V188.59H531.345C533.775 188.59 535.845 189.01 537.555 189.85C539.265 190.69 540.54 191.845 541.38 193.315C542.25 194.785 542.685 196.45 542.685 198.31ZM531.075 202.855C532.815 202.855 534.105 202.465 534.945 201.685C535.785 200.875 536.205 199.75 536.205 198.31C536.205 195.25 534.495 193.72 531.075 193.72H526.08V202.855H531.075ZM553.458 188.59V220H547.158V188.59H553.458ZM586.547 220H580.247L565.982 198.445V220H559.682V188.545H565.982L580.247 210.145V188.545H586.547V220ZM599.073 193.675V201.55H609.648V206.545H599.073V214.87H610.998V220H592.773V188.545H610.998V193.675H599.073ZM627.568 220.315C625.378 220.315 623.398 219.94 621.628 219.19C619.888 218.44 618.508 217.36 617.488 215.95C616.468 214.54 615.943 212.875 615.913 210.955H622.663C622.753 212.245 623.203 213.265 624.013 214.015C624.853 214.765 625.993 215.14 627.433 215.14C628.903 215.14 630.058 214.795 630.898 214.105C631.738 213.385 632.158 212.455 632.158 211.315C632.158 210.385 631.873 209.62 631.303 209.02C630.733 208.42 630.013 207.955 629.143 207.625C628.303 207.265 627.133 206.875 625.633 206.455C623.593 205.855 621.928 205.27 620.638 204.7C619.378 204.1 618.283 203.215 617.353 202.045C616.453 200.845 616.003 199.255 616.003 197.275C616.003 195.415 616.468 193.795 617.398 192.415C618.328 191.035 619.633 189.985 621.313 189.265C622.993 188.515 624.913 188.14 627.073 188.14C630.313 188.14 632.938 188.935 634.948 190.525C636.988 192.085 638.113 194.275 638.323 197.095H631.393C631.333 196.015 630.868 195.13 629.998 194.44C629.158 193.72 628.033 193.36 626.623 193.36C625.393 193.36 624.403 193.675 623.653 194.305C622.933 194.935 622.573 195.85 622.573 197.05C622.573 197.89 622.843 198.595 623.383 199.165C623.953 199.705 624.643 200.155 625.453 200.515C626.293 200.845 627.463 201.235 628.963 201.685C631.003 202.285 632.668 202.885 633.958 203.485C635.248 204.085 636.358 204.985 637.288 206.185C638.218 207.385 638.683 208.96 638.683 210.91C638.683 212.59 638.248 214.15 637.378 215.59C636.508 217.03 635.233 218.185 633.553 219.055C631.873 219.895 629.878 220.315 627.568 220.315Z" fill="black"/>
<path d="M962.47 320C962.47 317.253 963.084 314.8 964.31 312.64C965.564 310.453 967.257 308.76 969.39 307.56C971.55 306.333 973.964 305.72 976.63 305.72C979.75 305.72 982.484 306.52 984.83 308.12C987.177 309.72 988.817 311.933 989.75 314.76H983.31C982.67 313.427 981.764 312.427 980.59 311.76C979.444 311.093 978.11 310.76 976.59 310.76C974.964 310.76 973.51 311.147 972.23 311.92C970.977 312.667 969.99 313.733 969.27 315.12C968.577 316.507 968.23 318.133 968.23 320C968.23 321.84 968.577 323.467 969.27 324.88C969.99 326.267 970.977 327.347 972.23 328.12C973.51 328.867 974.964 329.24 976.59 329.24C978.11 329.24 979.444 328.907 980.59 328.24C981.764 327.547 982.67 326.533 983.31 325.2H989.75C988.817 328.053 987.177 330.28 984.83 331.88C982.51 333.453 979.777 334.24 976.63 334.24C973.964 334.24 971.55 333.64 969.39 332.44C967.257 331.213 965.564 329.52 964.31 327.36C963.084 325.2 962.47 322.747 962.47 320ZM1011.65 328.68H1000.53L998.693 334H992.813L1002.85 306.04H1009.37L1019.41 334H1013.49L1011.65 328.68ZM1010.13 324.2L1006.09 312.52L1002.05 324.2H1010.13ZM1053.61 306.08V334H1048.01V315.84L1040.53 334H1036.29L1028.77 315.84V334H1023.17V306.08H1029.53L1038.41 326.84L1047.29 306.08H1053.61ZM1074.98 319.68C1076.56 319.973 1077.85 320.76 1078.86 322.04C1079.88 323.32 1080.38 324.787 1080.38 326.44C1080.38 327.933 1080.01 329.253 1079.26 330.4C1078.54 331.52 1077.49 332.4 1076.1 333.04C1074.72 333.68 1073.08 334 1071.18 334H1059.14V306.08H1070.66C1072.56 306.08 1074.18 306.387 1075.54 307C1076.93 307.613 1077.97 308.467 1078.66 309.56C1079.38 310.653 1079.74 311.893 1079.74 313.28C1079.74 314.907 1079.3 316.267 1078.42 317.36C1077.57 318.453 1076.42 319.227 1074.98 319.68ZM1064.74 317.6H1069.86C1071.2 317.6 1072.22 317.307 1072.94 316.72C1073.66 316.107 1074.02 315.24 1074.02 314.12C1074.02 313 1073.66 312.133 1072.94 311.52C1072.22 310.907 1071.2 310.6 1069.86 310.6H1064.74V317.6ZM1070.38 329.44C1071.74 329.44 1072.8 329.12 1073.54 328.48C1074.32 327.84 1074.7 326.933 1074.7 325.76C1074.7 324.56 1074.3 323.627 1073.5 322.96C1072.7 322.267 1071.62 321.92 1070.26 321.92H1064.74V329.44H1070.38ZM1097.81 334.28C1095.19 334.28 1092.79 333.667 1090.61 332.44C1088.42 331.213 1086.69 329.52 1085.41 327.36C1084.13 325.173 1083.49 322.707 1083.49 319.96C1083.49 317.24 1084.13 314.8 1085.41 312.64C1086.69 310.453 1088.42 308.747 1090.61 307.52C1092.79 306.293 1095.19 305.68 1097.81 305.68C1100.45 305.68 1102.85 306.293 1105.01 307.52C1107.19 308.747 1108.91 310.453 1110.17 312.64C1111.45 314.8 1112.09 317.24 1112.09 319.96C1112.09 322.707 1111.45 325.173 1110.17 327.36C1108.91 329.52 1107.19 331.213 1105.01 332.44C1102.82 333.667 1100.42 334.28 1097.81 334.28ZM1097.81 329.28C1099.49 329.28 1100.97 328.907 1102.25 328.16C1103.53 327.387 1104.53 326.293 1105.25 324.88C1105.97 323.467 1106.33 321.827 1106.33 319.96C1106.33 318.093 1105.97 316.467 1105.25 315.08C1104.53 313.667 1103.53 312.587 1102.25 311.84C1100.97 311.093 1099.49 310.72 1097.81 310.72C1096.13 310.72 1094.63 311.093 1093.33 311.84C1092.05 312.587 1091.05 313.667 1090.33 315.08C1089.61 316.467 1089.25 318.093 1089.25 319.96C1089.25 321.827 1089.61 323.467 1090.33 324.88C1091.05 326.293 1092.05 327.387 1093.33 328.16C1094.63 328.907 1096.13 329.28 1097.81 329.28ZM1126.01 306.08C1128.95 306.08 1131.52 306.653 1133.73 307.8C1135.97 308.947 1137.69 310.587 1138.89 312.72C1140.12 314.827 1140.73 317.28 1140.73 320.08C1140.73 322.88 1140.12 325.333 1138.89 327.44C1137.69 329.52 1135.97 331.133 1133.73 332.28C1131.52 333.427 1128.95 334 1126.01 334H1116.25V306.08H1126.01ZM1125.81 329.24C1128.75 329.24 1131.01 328.44 1132.61 326.84C1134.21 325.24 1135.01 322.987 1135.01 320.08C1135.01 317.173 1134.21 314.907 1132.61 313.28C1131.01 311.627 1128.75 310.8 1125.81 310.8H1121.85V329.24H1125.81ZM1150.52 306.08V334H1144.92V306.08H1150.52ZM1173.18 328.68H1162.06L1160.22 334H1154.34L1164.38 306.04H1170.9L1180.94 334H1175.02L1173.18 328.68ZM1171.66 324.2L1167.62 312.52L1163.58 324.2H1171.66Z" fill="black"/>
<path d="M376.04 402.354H378.3V406.074H390V408.874H378.3V412.594H376.04V402.354ZM378.3 397.511H381.8V392.811H384.02V397.511H387.72V392.211H390V400.311H376.02V392.211H378.3V397.511ZM383 390.347C381.627 390.347 380.4 390.04 379.32 389.427C378.227 388.8 377.38 387.954 376.78 386.887C376.167 385.807 375.86 384.6 375.86 383.267C375.86 381.707 376.26 380.34 377.06 379.167C377.86 377.994 378.967 377.174 380.38 376.707V379.927C379.713 380.247 379.213 380.7 378.88 381.287C378.547 381.86 378.38 382.527 378.38 383.287C378.38 384.1 378.573 384.827 378.96 385.467C379.333 386.094 379.867 386.587 380.56 386.947C381.253 387.294 382.067 387.467 383 387.467C383.92 387.467 384.733 387.294 385.44 386.947C386.133 386.587 386.673 386.094 387.06 385.467C387.433 384.827 387.62 384.1 387.62 383.287C387.62 382.527 387.453 381.86 387.12 381.287C386.773 380.7 386.267 380.247 385.6 379.927V376.707C387.027 377.174 388.14 377.994 388.94 379.167C389.727 380.327 390.12 381.694 390.12 383.267C390.12 384.6 389.82 385.807 389.22 386.887C388.607 387.954 387.76 388.8 386.68 389.427C385.6 390.04 384.373 390.347 383 390.347ZM376.04 362.735H390V365.535H384.06V371.515H390V374.315H376.04V371.515H381.78V365.535H376.04V362.735ZM390 348.039V350.839L380.42 357.179H390V359.979H376.02V357.179L385.62 350.839H376.02V348.039H390ZM390.14 338.792C390.14 340.099 389.833 341.299 389.22 342.392C388.607 343.486 387.76 344.352 386.68 344.992C385.587 345.632 384.353 345.952 382.98 345.952C381.62 345.952 380.4 345.632 379.32 344.992C378.227 344.352 377.373 343.486 376.76 342.392C376.147 341.299 375.84 340.099 375.84 338.792C375.84 337.472 376.147 336.272 376.76 335.192C377.373 334.099 378.227 333.239 379.32 332.612C380.4 331.972 381.62 331.652 382.98 331.652C384.353 331.652 385.587 331.972 386.68 332.612C387.76 333.239 388.607 334.099 389.22 335.192C389.833 336.286 390.14 337.486 390.14 338.792ZM387.64 338.792C387.64 337.952 387.453 337.212 387.08 336.572C386.693 335.932 386.147 335.432 385.44 335.072C384.733 334.712 383.913 334.532 382.98 334.532C382.047 334.532 381.233 334.712 380.54 335.072C379.833 335.432 379.293 335.932 378.92 336.572C378.547 337.212 378.36 337.952 378.36 338.792C378.36 339.632 378.547 340.379 378.92 341.032C379.293 341.672 379.833 342.172 380.54 342.532C381.233 342.892 382.047 343.072 382.98 343.072C383.913 343.072 384.733 342.892 385.44 342.532C386.147 342.172 386.693 341.672 387.08 341.032C387.453 340.379 387.64 339.632 387.64 338.792ZM387.78 326.769V322.169H390V329.569H376.04V326.769H387.78ZM390.14 313.91C390.14 315.216 389.833 316.416 389.22 317.51C388.607 318.603 387.76 319.47 386.68 320.11C385.587 320.75 384.353 321.07 382.98 321.07C381.62 321.07 380.4 320.75 379.32 320.11C378.227 319.47 377.373 318.603 376.76 317.51C376.147 316.416 375.84 315.216 375.84 313.91C375.84 312.59 376.147 311.39 376.76 310.31C377.373 309.216 378.227 308.356 379.32 307.73C380.4 307.09 381.62 306.77 382.98 306.77C384.353 306.77 385.587 307.09 386.68 307.73C387.76 308.356 388.607 309.216 389.22 310.31C389.833 311.403 390.14 312.603 390.14 313.91ZM387.64 313.91C387.64 313.07 387.453 312.33 387.08 311.69C386.693 311.05 386.147 310.55 385.44 310.19C384.733 309.83 383.913 309.65 382.98 309.65C382.047 309.65 381.233 309.83 380.54 310.19C379.833 310.55 379.293 311.05 378.92 311.69C378.547 312.33 378.36 313.07 378.36 313.91C378.36 314.75 378.547 315.496 378.92 316.15C379.293 316.79 379.833 317.29 380.54 317.65C381.233 318.01 382.047 318.19 382.98 318.19C383.913 318.19 384.733 318.01 385.44 317.65C386.147 317.29 386.693 316.79 387.08 316.15C387.453 315.496 387.64 314.75 387.64 313.91ZM380.24 294.966C379.653 295.286 379.207 295.726 378.9 296.286C378.593 296.846 378.44 297.5 378.44 298.246C378.44 299.073 378.627 299.806 379 300.446C379.373 301.086 379.907 301.586 380.6 301.946C381.293 302.306 382.093 302.486 383 302.486C383.933 302.486 384.747 302.306 385.44 301.946C386.133 301.573 386.667 301.06 387.04 300.406C387.413 299.753 387.6 298.993 387.6 298.126C387.6 297.06 387.32 296.186 386.76 295.506C386.187 294.826 385.393 294.38 384.38 294.166V298.966H382.24V291.406H384.68C385.653 291.593 386.553 291.993 387.38 292.606C388.207 293.22 388.873 294.013 389.38 294.986C389.873 295.946 390.12 297.026 390.12 298.226C390.12 299.573 389.82 300.793 389.22 301.886C388.607 302.966 387.76 303.82 386.68 304.446C385.6 305.06 384.373 305.366 383 305.366C381.627 305.366 380.4 305.06 379.32 304.446C378.227 303.82 377.38 302.966 376.78 301.886C376.167 300.793 375.86 299.58 375.86 298.246C375.86 296.673 376.247 295.306 377.02 294.146C377.78 292.986 378.853 292.186 380.24 291.746V294.966ZM376.04 278.235L385.14 282.955H390V285.755H385.14L376.04 290.495V287.335L382.42 284.335L376.04 281.355V278.235Z" fill="black"/>
<path d="M478.534 462.26C479.714 462.48 480.684 463.07 481.444 464.03C482.204 464.99 482.584 466.09 482.584 467.33C482.584 468.45 482.304 469.44 481.744 470.3C481.204 471.14 480.414 471.8 479.374 472.28C478.334 472.76 477.104 473 475.684 473H466.654V452.06H475.294C476.714 452.06 477.934 452.29 478.954 452.75C479.994 453.21 480.774 453.85 481.294 454.67C481.834 455.49 482.104 456.42 482.104 457.46C482.104 458.68 481.774 459.7 481.114 460.52C480.474 461.34 479.614 461.92 478.534 462.26ZM470.854 460.7H474.694C475.694 460.7 476.464 460.48 477.004 460.04C477.544 459.58 477.814 458.93 477.814 458.09C477.814 457.25 477.544 456.6 477.004 456.14C476.464 455.68 475.694 455.45 474.694 455.45H470.854V460.7ZM475.084 469.58C476.104 469.58 476.894 469.34 477.454 468.86C478.034 468.38 478.324 467.7 478.324 466.82C478.324 465.92 478.024 465.22 477.424 464.72C476.824 464.2 476.014 463.94 474.994 463.94H470.854V469.58H475.084ZM490.071 452.06V465.02C490.071 466.44 490.441 467.53 491.181 468.29C491.921 469.03 492.961 469.4 494.301 469.4C495.661 469.4 496.711 469.03 497.451 468.29C498.191 467.53 498.561 466.44 498.561 465.02V452.06H502.791V464.99C502.791 466.77 502.401 468.28 501.621 469.52C500.861 470.74 499.831 471.66 498.531 472.28C497.251 472.9 495.821 473.21 494.241 473.21C492.681 473.21 491.261 472.9 489.981 472.28C488.721 471.66 487.721 470.74 486.981 469.52C486.241 468.28 485.871 466.77 485.871 464.99V452.06H490.071ZM514.079 473.21C512.619 473.21 511.299 472.96 510.119 472.46C508.959 471.96 508.039 471.24 507.359 470.3C506.679 469.36 506.329 468.25 506.309 466.97H510.809C510.869 467.83 511.169 468.51 511.709 469.01C512.269 469.51 513.029 469.76 513.989 469.76C514.969 469.76 515.739 469.53 516.299 469.07C516.859 468.59 517.139 467.97 517.139 467.21C517.139 466.59 516.949 466.08 516.569 465.68C516.189 465.28 515.709 464.97 515.129 464.75C514.569 464.51 513.789 464.25 512.789 463.97C511.429 463.57 510.319 463.18 509.459 462.8C508.619 462.4 507.889 461.81 507.269 461.03C506.669 460.23 506.369 459.17 506.369 457.85C506.369 456.61 506.679 455.53 507.299 454.61C507.919 453.69 508.789 452.99 509.909 452.51C511.029 452.01 512.309 451.76 513.749 451.76C515.909 451.76 517.659 452.29 518.999 453.35C520.359 454.39 521.109 455.85 521.249 457.73H516.629C516.589 457.01 516.279 456.42 515.699 455.96C515.139 455.48 514.389 455.24 513.449 455.24C512.629 455.24 511.969 455.45 511.469 455.87C510.989 456.29 510.749 456.9 510.749 457.7C510.749 458.26 510.929 458.73 511.289 459.11C511.669 459.47 512.129 459.77 512.669 460.01C513.229 460.23 514.009 460.49 515.009 460.79C516.369 461.19 517.479 461.59 518.339 461.99C519.199 462.39 519.939 462.99 520.559 463.79C521.179 464.59 521.489 465.64 521.489 466.94C521.489 468.06 521.199 469.1 520.619 470.06C520.039 471.02 519.189 471.79 518.069 472.37C516.949 472.93 515.619 473.21 514.079 473.21ZM529.331 452.06V473H525.131V452.06H529.331ZM551.39 473H547.19L537.68 458.63V473H533.48V452.03H537.68L547.19 466.43V452.03H551.39V473ZM559.741 455.45V460.7H566.791V464.03H559.741V469.58H567.691V473H555.541V452.03H567.691V455.45H559.741ZM578.738 473.21C577.278 473.21 575.958 472.96 574.778 472.46C573.618 471.96 572.698 471.24 572.018 470.3C571.338 469.36 570.988 468.25 570.968 466.97H575.468C575.528 467.83 575.828 468.51 576.368 469.01C576.928 469.51 577.688 469.76 578.648 469.76C579.628 469.76 580.398 469.53 580.958 469.07C581.518 468.59 581.798 467.97 581.798 467.21C581.798 466.59 581.608 466.08 581.228 465.68C580.848 465.28 580.368 464.97 579.788 464.75C579.228 464.51 578.448 464.25 577.448 463.97C576.088 463.57 574.978 463.18 574.118 462.8C573.278 462.4 572.548 461.81 571.928 461.03C571.328 460.23 571.028 459.17 571.028 457.85C571.028 456.61 571.338 455.53 571.958 454.61C572.578 453.69 573.448 452.99 574.568 452.51C575.688 452.01 576.968 451.76 578.408 451.76C580.568 451.76 582.318 452.29 583.658 453.35C585.018 454.39 585.768 455.85 585.908 457.73H581.288C581.248 457.01 580.938 456.42 580.358 455.96C579.798 455.48 579.048 455.24 578.108 455.24C577.288 455.24 576.628 455.45 576.128 455.87C575.648 456.29 575.408 456.9 575.408 457.7C575.408 458.26 575.588 458.73 575.948 459.11C576.328 459.47 576.788 459.77 577.328 460.01C577.888 460.23 578.668 460.49 579.668 460.79C581.028 461.19 582.138 461.59 582.998 461.99C583.858 462.39 584.598 462.99 585.218 463.79C585.838 464.59 586.148 465.64 586.148 466.94C586.148 468.06 585.858 469.1 585.277 470.06C584.698 471.02 583.848 471.79 582.728 472.37C581.608 472.93 580.278 473.21 578.738 473.21ZM597.019 473.21C595.559 473.21 594.239 472.96 593.059 472.46C591.899 471.96 590.979 471.24 590.299 470.3C589.619 469.36 589.269 468.25 589.249 466.97H593.749C593.809 467.83 594.109 468.51 594.649 469.01C595.209 469.51 595.969 469.76 596.929 469.76C597.909 469.76 598.679 469.53 599.239 469.07C599.799 468.59 600.079 467.97 600.079 467.21C600.079 466.59 599.889 466.08 599.509 465.68C599.129 465.28 598.649 464.97 598.069 464.75C597.509 464.51 596.729 464.25 595.729 463.97C594.369 463.57 593.259 463.18 592.399 462.8C591.559 462.4 590.829 461.81 590.209 461.03C589.609 460.23 589.309 459.17 589.309 457.85C589.309 456.61 589.619 455.53 590.239 454.61C590.859 453.69 591.729 452.99 592.849 452.51C593.969 452.01 595.249 451.76 596.689 451.76C598.849 451.76 600.599 452.29 601.939 453.35C603.299 454.39 604.049 455.85 604.189 457.73H599.569C599.529 457.01 599.219 456.42 598.639 455.96C598.079 455.48 597.329 455.24 596.389 455.24C595.569 455.24 594.909 455.45 594.409 455.87C593.929 456.29 593.689 456.9 593.689 457.7C593.689 458.26 593.869 458.73 594.229 459.11C594.609 459.47 595.069 459.77 595.609 460.01C596.169 460.23 596.949 460.49 597.949 460.79C599.309 461.19 600.419 461.59 601.279 461.99C602.139 462.39 602.879 462.99 603.499 463.79C604.119 464.59 604.429 465.64 604.429 466.94C604.429 468.06 604.139 469.1 603.559 470.06C602.979 471.02 602.129 471.79 601.009 472.37C599.889 472.93 598.559 473.21 597.019 473.21Z" fill="black"/>
<path d="M418.356 153C418.356 151.627 418.663 150.4 419.276 149.32C419.903 148.227 420.75 147.38 421.816 146.78C422.896 146.167 424.103 145.86 425.436 145.86C426.996 145.86 428.363 146.26 429.536 147.06C430.71 147.86 431.53 148.967 431.996 150.38H428.776C428.456 149.713 428.003 149.213 427.416 148.88C426.843 148.547 426.176 148.38 425.416 148.38C424.603 148.38 423.876 148.573 423.236 148.96C422.61 149.333 422.116 149.867 421.756 150.56C421.41 151.253 421.236 152.067 421.236 153C421.236 153.92 421.41 154.733 421.756 155.44C422.116 156.133 422.61 156.673 423.236 157.06C423.876 157.433 424.603 157.62 425.416 157.62C426.176 157.62 426.843 157.453 427.416 157.12C428.003 156.773 428.456 156.267 428.776 155.6H431.996C431.53 157.027 430.71 158.14 429.536 158.94C428.376 159.727 427.01 160.12 425.436 160.12C424.103 160.12 422.896 159.82 421.816 159.22C420.75 158.607 419.903 157.76 419.276 156.68C418.663 155.6 418.356 154.373 418.356 153ZM440.868 160.14C439.561 160.14 438.361 159.833 437.268 159.22C436.174 158.607 435.308 157.76 434.668 156.68C434.028 155.587 433.708 154.353 433.708 152.98C433.708 151.62 434.028 150.4 434.668 149.32C435.308 148.227 436.174 147.373 437.268 146.76C438.361 146.147 439.561 145.84 440.868 145.84C442.188 145.84 443.388 146.147 444.468 146.76C445.561 147.373 446.421 148.227 447.048 149.32C447.688 150.4 448.008 151.62 448.008 152.98C448.008 154.353 447.688 155.587 447.048 156.68C446.421 157.76 445.561 158.607 444.468 159.22C443.374 159.833 442.174 160.14 440.868 160.14ZM440.868 157.64C441.708 157.64 442.448 157.453 443.088 157.08C443.728 156.693 444.228 156.147 444.588 155.44C444.948 154.733 445.128 153.913 445.128 152.98C445.128 152.047 444.948 151.233 444.588 150.54C444.228 149.833 443.728 149.293 443.088 148.92C442.448 148.547 441.708 148.36 440.868 148.36C440.028 148.36 439.281 148.547 438.628 148.92C437.988 149.293 437.488 149.833 437.128 150.54C436.768 151.233 436.588 152.047 436.588 152.98C436.588 153.913 436.768 154.733 437.128 155.44C437.488 156.147 437.988 156.693 438.628 157.08C439.281 157.453 440.028 157.64 440.868 157.64ZM465.311 146.04V160H462.511V150.92L458.771 160H456.651L452.891 150.92V160H450.091V146.04H453.271L457.711 156.42L462.151 146.04H465.311ZM478.259 150.36C478.259 151.107 478.079 151.807 477.719 152.46C477.373 153.113 476.819 153.64 476.059 154.04C475.313 154.44 474.366 154.64 473.219 154.64H470.879V160H468.079V146.04H473.219C474.299 146.04 475.219 146.227 475.979 146.6C476.739 146.973 477.306 147.487 477.679 148.14C478.066 148.793 478.259 149.533 478.259 150.36ZM473.099 152.38C473.873 152.38 474.446 152.207 474.819 151.86C475.193 151.5 475.379 151 475.379 150.36C475.379 149 474.619 148.32 473.099 148.32H470.879V152.38H473.099ZM483.007 146.04V154.68C483.007 155.627 483.254 156.353 483.747 156.86C484.241 157.353 484.934 157.6 485.827 157.6C486.734 157.6 487.434 157.353 487.927 156.86C488.421 156.353 488.667 155.627 488.667 154.68V146.04H491.487V154.66C491.487 155.847 491.227 156.853 490.707 157.68C490.201 158.493 489.514 159.107 488.647 159.52C487.794 159.933 486.841 160.14 485.787 160.14C484.747 160.14 483.801 159.933 482.947 159.52C482.107 159.107 481.441 158.493 480.947 157.68C480.454 156.853 480.207 155.847 480.207 154.66V146.04H483.007ZM503.693 146.04V148.3H499.973V160H497.173V148.3H493.453V146.04H503.693ZM508.535 148.3V151.8H513.235V154.02H508.535V157.72H513.835V160H505.735V146.02H513.835V148.3H508.535ZM523.58 160L520.5 154.56H519.18V160H516.38V146.04H521.62C522.7 146.04 523.62 146.233 524.38 146.62C525.14 146.993 525.707 147.507 526.08 148.16C526.467 148.8 526.66 149.52 526.66 150.32C526.66 151.24 526.393 152.073 525.86 152.82C525.327 153.553 524.533 154.06 523.48 154.34L526.82 160H523.58ZM519.18 152.46H521.52C522.28 152.46 522.847 152.28 523.22 151.92C523.593 151.547 523.78 151.033 523.78 150.38C523.78 149.74 523.593 149.247 523.22 148.9C522.847 148.54 522.28 148.36 521.52 148.36H519.18V152.46ZM534.013 160.14C533.039 160.14 532.159 159.973 531.373 159.64C530.599 159.307 529.986 158.827 529.533 158.2C529.079 157.573 528.846 156.833 528.833 155.98H531.833C531.873 156.553 532.073 157.007 532.433 157.34C532.806 157.673 533.313 157.84 533.953 157.84C534.606 157.84 535.119 157.687 535.493 157.38C535.866 157.06 536.053 156.647 536.053 156.14C536.053 155.727 535.926 155.387 535.673 155.12C535.419 154.853 535.099 154.647 534.713 154.5C534.339 154.34 533.819 154.167 533.153 153.98C532.246 153.713 531.506 153.453 530.933 153.2C530.373 152.933 529.886 152.54 529.473 152.02C529.073 151.487 528.873 150.78 528.873 149.9C528.873 149.073 529.079 148.353 529.493 147.74C529.906 147.127 530.486 146.66 531.233 146.34C531.979 146.007 532.833 145.84 533.793 145.84C535.233 145.84 536.399 146.193 537.293 146.9C538.199 147.593 538.699 148.567 538.793 149.82H535.713C535.686 149.34 535.479 148.947 535.093 148.64C534.719 148.32 534.219 148.16 533.593 148.16C533.046 148.16 532.606 148.3 532.273 148.58C531.953 148.86 531.793 149.267 531.793 149.8C531.793 150.173 531.913 150.487 532.153 150.74C532.406 150.98 532.713 151.18 533.073 151.34C533.446 151.487 533.966 151.66 534.633 151.86C535.539 152.127 536.279 152.393 536.853 152.66C537.426 152.927 537.919 153.327 538.333 153.86C538.746 154.393 538.953 155.093 538.953 155.96C538.953 156.707 538.759 157.4 538.372 158.04C537.986 158.68 537.419 159.193 536.673 159.58C535.926 159.953 535.039 160.14 534.013 160.14Z" fill="black"/>
<path d="M521.899 170.3V173.8H526.599V176.02H521.899V179.72H527.199V182H519.099V168.02H527.199V170.3H521.899ZM544.963 168.04V182H542.163V172.92L538.423 182H536.303L532.543 172.92V182H529.743V168.04H532.923L537.363 178.42L541.803 168.04H544.963ZM557.912 172.36C557.912 173.107 557.732 173.807 557.372 174.46C557.025 175.113 556.472 175.64 555.712 176.04C554.965 176.44 554.018 176.64 552.872 176.64H550.532V182H547.732V168.04H552.872C553.952 168.04 554.872 168.227 555.632 168.6C556.392 168.973 556.958 169.487 557.332 170.14C557.718 170.793 557.912 171.533 557.912 172.36ZM552.752 174.38C553.525 174.38 554.098 174.207 554.472 173.86C554.845 173.5 555.032 173 555.032 172.36C555.032 171 554.272 170.32 552.752 170.32H550.532V174.38H552.752ZM562.7 179.78H567.3V182H559.9V168.04H562.7V179.78ZM575.559 182.14C574.253 182.14 573.053 181.833 571.959 181.22C570.866 180.607 569.999 179.76 569.359 178.68C568.719 177.587 568.399 176.353 568.399 174.98C568.399 173.62 568.719 172.4 569.359 171.32C569.999 170.227 570.866 169.373 571.959 168.76C573.053 168.147 574.253 167.84 575.559 167.84C576.879 167.84 578.079 168.147 579.159 168.76C580.253 169.373 581.113 170.227 581.739 171.32C582.379 172.4 582.699 173.62 582.699 174.98C582.699 176.353 582.379 177.587 581.739 178.68C581.113 179.76 580.253 180.607 579.159 181.22C578.066 181.833 576.866 182.14 575.559 182.14ZM575.559 179.64C576.399 179.64 577.139 179.453 577.779 179.08C578.419 178.693 578.919 178.147 579.279 177.44C579.639 176.733 579.819 175.913 579.819 174.98C579.819 174.047 579.639 173.233 579.279 172.54C578.919 171.833 578.419 171.293 577.779 170.92C577.139 170.547 576.399 170.36 575.559 170.36C574.719 170.36 573.973 170.547 573.319 170.92C572.679 171.293 572.179 171.833 571.819 172.54C571.459 173.233 571.279 174.047 571.279 174.98C571.279 175.913 571.459 176.733 571.819 177.44C572.179 178.147 572.679 178.693 573.319 179.08C573.973 179.453 574.719 179.64 575.559 179.64ZM595.882 168.04L591.162 177.14V182H588.362V177.14L583.622 168.04H586.782L589.782 174.42L592.762 168.04H595.882ZM612.717 168.04V182H609.917V172.92L606.177 182H604.057L600.297 172.92V182H597.497V168.04H600.677L605.117 178.42L609.557 168.04H612.717ZM618.285 170.3V173.8H622.985V176.02H618.285V179.72H623.585V182H615.485V168.02H623.585V170.3H618.285ZM638.07 182H635.27L628.93 172.42V182H626.13V168.02H628.93L635.27 177.62V168.02H638.07V182ZM650.337 168.04V170.3H646.617V182H643.817V170.3H640.097V168.04H650.337Z" fill="black"/>
<path d="M731.956 475.21C730.496 475.21 729.176 474.96 727.996 474.46C726.836 473.96 725.916 473.24 725.236 472.3C724.556 471.36 724.206 470.25 724.186 468.97H728.686C728.746 469.83 729.046 470.51 729.586 471.01C730.146 471.51 730.906 471.76 731.866 471.76C732.846 471.76 733.616 471.53 734.176 471.07C734.736 470.59 735.016 469.97 735.016 469.21C735.016 468.59 734.826 468.08 734.446 467.68C734.066 467.28 733.586 466.97 733.006 466.75C732.446 466.51 731.666 466.25 730.666 465.97C729.306 465.57 728.196 465.18 727.336 464.8C726.496 464.4 725.766 463.81 725.146 463.03C724.546 462.23 724.246 461.17 724.246 459.85C724.246 458.61 724.556 457.53 725.176 456.61C725.796 455.69 726.666 454.99 727.786 454.51C728.906 454.01 730.186 453.76 731.626 453.76C733.786 453.76 735.536 454.29 736.876 455.35C738.236 456.39 738.986 457.85 739.126 459.73H734.506C734.466 459.01 734.156 458.42 733.576 457.96C733.016 457.48 732.266 457.24 731.326 457.24C730.506 457.24 729.846 457.45 729.346 457.87C728.866 458.29 728.626 458.9 728.626 459.7C728.626 460.26 728.806 460.73 729.166 461.11C729.546 461.47 730.006 461.77 730.546 462.01C731.106 462.23 731.886 462.49 732.886 462.79C734.246 463.19 735.356 463.59 736.216 463.99C737.076 464.39 737.816 464.99 738.436 465.79C739.056 466.59 739.366 467.64 739.366 468.94C739.366 470.06 739.076 471.1 738.496 472.06C737.916 473.02 737.066 473.79 735.946 474.37C734.826 474.93 733.496 475.21 731.956 475.21ZM754.828 475L747.208 465.67V475H743.008V454.06H747.208V463.45L754.828 454.06H759.898L751.258 464.44L760.138 475H754.828ZM767.1 454.06V475H762.9V454.06H767.1ZM775.45 471.67H782.35V475H771.25V454.06H775.45V471.67ZM789.219 471.67H796.119V475H785.019V454.06H789.219V471.67ZM806.019 475.21C804.559 475.21 803.239 474.96 802.059 474.46C800.899 473.96 799.979 473.24 799.299 472.3C798.619 471.36 798.269 470.25 798.249 468.97H802.749C802.809 469.83 803.109 470.51 803.649 471.01C804.209 471.51 804.969 471.76 805.929 471.76C806.909 471.76 807.679 471.53 808.239 471.07C808.799 470.59 809.079 469.97 809.079 469.21C809.079 468.59 808.889 468.08 808.509 467.68C808.129 467.28 807.649 466.97 807.069 466.75C806.509 466.51 805.729 466.25 804.729 465.97C803.369 465.57 802.259 465.18 801.399 464.8C800.559 464.4 799.829 463.81 799.209 463.03C798.609 462.23 798.309 461.17 798.309 459.85C798.309 458.61 798.619 457.53 799.239 456.61C799.859 455.69 800.729 454.99 801.849 454.51C802.969 454.01 804.249 453.76 805.689 453.76C807.849 453.76 809.599 454.29 810.939 455.35C812.299 456.39 813.049 457.85 813.189 459.73H808.569C808.529 459.01 808.219 458.42 807.639 457.96C807.079 457.48 806.329 457.24 805.389 457.24C804.569 457.24 803.909 457.45 803.409 457.87C802.929 458.29 802.689 458.9 802.689 459.7C802.689 460.26 802.869 460.73 803.229 461.11C803.609 461.47 804.069 461.77 804.609 462.01C805.169 462.23 805.949 462.49 806.949 462.79C808.309 463.19 809.419 463.59 810.279 463.99C811.139 464.39 811.879 464.99 812.499 465.79C813.119 466.59 813.429 467.64 813.429 468.94C813.429 470.06 813.139 471.1 812.559 472.06C811.979 473.02 811.129 473.79 810.009 474.37C808.889 474.93 807.559 475.21 806.019 475.21Z" fill="black"/>
<path d="M1038.06 467.608H1041.45V473.188H1059V477.388H1041.45V482.968H1038.06V467.608ZM1059 453.743L1050.84 458.363V460.343H1059V464.543H1038.06V456.683C1038.06 455.063 1038.35 453.683 1038.93 452.543C1039.49 451.403 1040.26 450.553 1041.24 449.993C1042.2 449.413 1043.28 449.123 1044.48 449.123C1045.86 449.123 1047.11 449.523 1048.23 450.323C1049.33 451.123 1050.09 452.313 1050.51 453.893L1059 448.883V453.743ZM1047.69 460.343V456.833C1047.69 455.693 1047.42 454.843 1046.88 454.283C1046.32 453.723 1045.55 453.443 1044.57 453.443C1043.61 453.443 1042.87 453.723 1042.35 454.283C1041.81 454.843 1041.54 455.693 1041.54 456.833V460.343H1047.69ZM1055.01 432.485V440.825L1059 442.205V446.615L1038.03 439.085V434.195L1059 426.665V431.105L1055.01 432.485ZM1051.65 433.625L1042.89 436.655L1051.65 439.685V433.625ZM1038.06 419.65H1059V423.85H1038.06V419.65ZM1059 397.59V401.79L1044.63 411.3H1059V415.5H1038.03V411.3L1052.43 401.79H1038.03V397.59H1059ZM1038.06 389.24H1059V393.44H1038.06V389.24ZM1059 367.18V371.38L1044.63 380.89H1059V385.09H1038.03V380.89L1052.43 371.38H1038.03V367.18H1059ZM1044.36 348.45C1043.48 348.93 1042.81 349.59 1042.35 350.43C1041.89 351.27 1041.66 352.25 1041.66 353.37C1041.66 354.61 1041.94 355.71 1042.5 356.67C1043.06 357.63 1043.86 358.38 1044.9 358.92C1045.94 359.46 1047.14 359.73 1048.5 359.73C1049.9 359.73 1051.12 359.46 1052.16 358.92C1053.2 358.36 1054 357.59 1054.56 356.61C1055.12 355.63 1055.4 354.49 1055.4 353.19C1055.4 351.59 1054.98 350.28 1054.14 349.26C1053.28 348.24 1052.09 347.57 1050.57 347.25V354.45H1047.36V343.11H1051.02C1052.48 343.39 1053.83 343.99 1055.07 344.91C1056.31 345.83 1057.31 347.02 1058.07 348.48C1058.81 349.92 1059.18 351.54 1059.18 353.34C1059.18 355.36 1058.73 357.19 1057.83 358.83C1056.91 360.45 1055.64 361.73 1054.02 362.67C1052.4 363.59 1050.56 364.05 1048.5 364.05C1046.44 364.05 1044.6 363.59 1042.98 362.67C1041.34 361.73 1040.07 360.45 1039.17 358.83C1038.25 357.19 1037.79 355.37 1037.79 353.37C1037.79 351.01 1038.37 348.96 1039.53 347.22C1040.67 345.48 1042.28 344.28 1044.36 343.62V348.45Z" fill="black"/>
<path d="M993.59 472.305H998.675V480.675H1025V486.975H998.675V495.345H993.59V472.305ZM1025 451.508L1012.76 458.438V461.408H1025V467.708H993.59V455.918C993.59 453.488 994.025 451.418 994.895 449.708C995.735 447.998 996.89 446.723 998.36 445.883C999.8 445.013 1001.42 444.578 1003.22 444.578C1005.29 444.578 1007.16 445.178 1008.84 446.378C1010.49 447.578 1011.63 449.363 1012.26 451.733L1025 444.218V451.508ZM1008.03 461.408V456.143C1008.03 454.433 1007.63 453.158 1006.82 452.318C1005.98 451.478 1004.82 451.058 1003.35 451.058C1001.91 451.058 1000.8 451.478 1000.02 452.318C999.215 453.158 998.81 454.433 998.81 456.143V461.408H1008.03ZM993.59 432.67H1013.03C1015.16 432.67 1016.79 432.115 1017.93 431.005C1019.04 429.895 1019.6 428.335 1019.6 426.325C1019.6 424.285 1019.04 422.71 1017.93 421.6C1016.79 420.49 1015.16 419.935 1013.03 419.935H993.59V413.59H1012.98C1015.65 413.59 1017.92 414.175 1019.78 415.345C1021.61 416.485 1022.99 418.03 1023.92 419.98C1024.85 421.9 1025.32 424.045 1025.32 426.415C1025.32 428.755 1024.85 430.885 1023.92 432.805C1022.99 434.695 1021.61 436.195 1019.78 437.305C1017.92 438.415 1015.65 438.97 1012.98 438.97H993.59V432.67ZM1025.32 396.658C1025.32 398.848 1024.94 400.828 1024.19 402.598C1023.44 404.338 1022.36 405.718 1020.95 406.738C1019.54 407.758 1017.87 408.283 1015.95 408.313V401.563C1017.24 401.473 1018.26 401.023 1019.01 400.213C1019.76 399.373 1020.14 398.233 1020.14 396.793C1020.14 395.323 1019.79 394.168 1019.1 393.328C1018.38 392.488 1017.45 392.068 1016.31 392.068C1015.38 392.068 1014.62 392.353 1014.02 392.923C1013.42 393.493 1012.95 394.213 1012.62 395.083C1012.26 395.923 1011.87 397.093 1011.45 398.593C1010.85 400.633 1010.27 402.298 1009.7 403.588C1009.1 404.848 1008.21 405.943 1007.04 406.873C1005.84 407.773 1004.25 408.223 1002.28 408.223C1000.41 408.223 998.795 407.758 997.415 406.828C996.035 405.898 994.985 404.593 994.265 402.913C993.515 401.233 993.14 399.313 993.14 397.153C993.14 393.913 993.935 391.288 995.525 389.278C997.085 387.238 999.275 386.113 1002.09 385.903V392.833C1001.01 392.893 1000.13 393.358 999.44 394.228C998.72 395.068 998.36 396.193 998.36 397.603C998.36 398.833 998.675 399.823 999.305 400.573C999.935 401.293 1000.85 401.653 1002.05 401.653C1002.89 401.653 1003.59 401.383 1004.16 400.843C1004.7 400.273 1005.15 399.583 1005.51 398.773C1005.84 397.933 1006.23 396.763 1006.68 395.263C1007.28 393.223 1007.88 391.558 1008.48 390.268C1009.08 388.978 1009.98 387.868 1011.18 386.938C1012.38 386.008 1013.96 385.543 1015.91 385.543C1017.59 385.543 1019.15 385.978 1020.59 386.848C1022.03 387.718 1023.18 388.993 1024.05 390.673C1024.89 392.353 1025.32 394.348 1025.32 396.658ZM993.59 358.707H998.675V367.077H1025V373.377H998.675V381.747H993.59V358.707Z" fill="black"/>
<path d="M711.115 176.12V205.52C711.115 209.6 709.935 212.78 707.575 215.06C705.215 217.3 702.055 218.42 698.095 218.42C694.095 218.42 690.855 217.26 688.375 214.94C685.935 212.62 684.715 209.38 684.715 205.22H693.115C693.155 207.02 693.575 208.42 694.375 209.42C695.215 210.42 696.415 210.92 697.975 210.92C699.495 210.92 700.655 210.44 701.455 209.48C702.255 208.52 702.655 207.2 702.655 205.52V176.12H711.115ZM740.353 218.42C736.433 218.42 732.833 217.5 729.553 215.66C726.273 213.82 723.673 211.28 721.753 208.04C719.833 204.76 718.873 201.06 718.873 196.94C718.873 192.86 719.833 189.2 721.753 185.96C723.673 182.68 726.273 180.12 729.553 178.28C732.833 176.44 736.433 175.52 740.353 175.52C744.313 175.52 747.913 176.44 751.153 178.28C754.433 180.12 757.013 182.68 758.893 185.96C760.813 189.2 761.773 192.86 761.773 196.94C761.773 201.06 760.813 204.76 758.893 208.04C757.013 211.28 754.433 213.82 751.153 215.66C747.873 217.5 744.273 218.42 740.353 218.42ZM740.353 210.92C742.873 210.92 745.093 210.36 747.013 209.24C748.933 208.08 750.433 206.44 751.513 204.32C752.593 202.2 753.133 199.74 753.133 196.94C753.133 194.14 752.593 191.7 751.513 189.62C750.433 187.5 748.933 185.88 747.013 184.76C745.093 183.64 742.873 183.08 740.353 183.08C737.833 183.08 735.593 183.64 733.633 184.76C731.713 185.88 730.213 187.5 729.133 189.62C728.053 191.7 727.513 194.14 727.513 196.94C727.513 199.74 728.053 202.2 729.133 204.32C730.213 206.44 731.713 208.08 733.633 209.24C735.593 210.36 737.833 210.92 740.353 210.92ZM791.783 196.52C794.143 196.96 796.083 198.14 797.603 200.06C799.123 201.98 799.883 204.18 799.883 206.66C799.883 208.9 799.323 210.88 798.203 212.6C797.123 214.28 795.543 215.6 793.463 216.56C791.383 217.52 788.923 218 786.083 218H768.023V176.12H785.303C788.143 176.12 790.583 176.58 792.623 177.5C794.703 178.42 796.263 179.7 797.303 181.34C798.383 182.98 798.923 184.84 798.923 186.92C798.923 189.36 798.263 191.4 796.943 193.04C795.663 194.68 793.943 195.84 791.783 196.52ZM776.423 193.4H784.103C786.103 193.4 787.643 192.96 788.723 192.08C789.803 191.16 790.343 189.86 790.343 188.18C790.343 186.5 789.803 185.2 788.723 184.28C787.643 183.36 786.103 182.9 784.103 182.9H776.423V193.4ZM784.883 211.16C786.923 211.16 788.503 210.68 789.623 209.72C790.783 208.76 791.363 207.4 791.363 205.64C791.363 203.84 790.763 202.44 789.563 201.44C788.363 200.4 786.743 199.88 784.703 199.88H776.423V211.16H784.883ZM821.038 218.42C818.118 218.42 815.478 217.92 813.118 216.92C810.798 215.92 808.958 214.48 807.598 212.6C806.238 210.72 805.538 208.5 805.498 205.94H814.498C814.618 207.66 815.218 209.02 816.298 210.02C817.418 211.02 818.938 211.52 820.858 211.52C822.818 211.52 824.358 211.06 825.478 210.14C826.598 209.18 827.158 207.94 827.158 206.42C827.158 205.18 826.778 204.16 826.018 203.36C825.258 202.56 824.298 201.94 823.138 201.5C822.018 201.02 820.458 200.5 818.458 199.94C815.738 199.14 813.518 198.36 811.798 197.6C810.118 196.8 808.658 195.62 807.418 194.06C806.218 192.46 805.618 190.34 805.618 187.7C805.618 185.22 806.238 183.06 807.478 181.22C808.718 179.38 810.458 177.98 812.698 177.02C814.938 176.02 817.498 175.52 820.378 175.52C824.698 175.52 828.198 176.58 830.878 178.7C833.598 180.78 835.098 183.7 835.378 187.46H826.138C826.058 186.02 825.438 184.84 824.278 183.92C823.158 182.96 821.658 182.48 819.778 182.48C818.138 182.48 816.818 182.9 815.818 183.74C814.858 184.58 814.378 185.8 814.378 187.4C814.378 188.52 814.738 189.46 815.458 190.22C816.218 190.94 817.138 191.54 818.218 192.02C819.338 192.46 820.898 192.98 822.898 193.58C825.618 194.38 827.838 195.18 829.558 195.98C831.278 196.78 832.758 197.98 833.998 199.58C835.238 201.18 835.858 203.28 835.858 205.88C835.858 208.12 835.278 210.2 834.117 212.12C832.958 214.04 831.258 215.58 829.018 216.74C826.778 217.86 824.118 218.42 821.038 218.42Z" fill="#00B7E9"/>
<path d="M385.465 264H381.965L374.04 252.025V264H370.54V246.525H374.04L381.965 258.525V246.525H385.465V264ZM392.424 249.375V253.75H398.299V256.525H392.424V261.15H399.049V264H388.924V246.525H399.049V249.375H392.424ZM414.105 246.55V249.375H409.455V264H405.955V249.375H401.305V246.55H414.105ZM439.984 246.55L435.109 264H430.984L427.709 251.575L424.284 264L420.184 264.025L415.484 246.55H419.234L422.309 260.1L425.859 246.55H429.759L433.109 260.025L436.209 246.55H439.984ZM450.369 264.175C448.736 264.175 447.236 263.792 445.869 263.025C444.502 262.258 443.419 261.2 442.619 259.85C441.819 258.483 441.419 256.942 441.419 255.225C441.419 253.525 441.819 252 442.619 250.65C443.419 249.283 444.502 248.217 445.869 247.45C447.236 246.683 448.736 246.3 450.369 246.3C452.019 246.3 453.519 246.683 454.869 247.45C456.236 248.217 457.311 249.283 458.094 250.65C458.894 252 459.294 253.525 459.294 255.225C459.294 256.942 458.894 258.483 458.094 259.85C457.311 261.2 456.236 262.258 454.869 263.025C453.502 263.792 452.002 264.175 450.369 264.175ZM450.369 261.05C451.419 261.05 452.344 260.817 453.144 260.35C453.944 259.867 454.569 259.183 455.019 258.3C455.469 257.417 455.694 256.392 455.694 255.225C455.694 254.058 455.469 253.042 455.019 252.175C454.569 251.292 453.944 250.617 453.144 250.15C452.344 249.683 451.419 249.45 450.369 249.45C449.319 249.45 448.386 249.683 447.569 250.15C446.769 250.617 446.144 251.292 445.694 252.175C445.244 253.042 445.019 254.058 445.019 255.225C445.019 256.392 445.244 257.417 445.694 258.3C446.144 259.183 446.769 259.867 447.569 260.35C448.386 260.817 449.319 261.05 450.369 261.05ZM470.898 264L467.048 257.2H465.398V264H461.898V246.55H468.448C469.798 246.55 470.948 246.792 471.898 247.275C472.848 247.742 473.556 248.383 474.023 249.2C474.506 250 474.748 250.9 474.748 251.9C474.748 253.05 474.415 254.092 473.748 255.025C473.081 255.942 472.09 256.575 470.773 256.925L474.948 264H470.898ZM465.398 254.575H468.323C469.273 254.575 469.981 254.35 470.448 253.9C470.915 253.433 471.148 252.792 471.148 251.975C471.148 251.175 470.915 250.558 470.448 250.125C469.981 249.675 469.273 249.45 468.323 249.45H465.398V254.575ZM487.763 264L481.413 256.225V264H477.913V246.55H481.413V254.375L487.763 246.55H491.988L484.788 255.2L492.188 264H487.763ZM500.516 264.175C499.299 264.175 498.199 263.967 497.216 263.55C496.249 263.133 495.482 262.533 494.916 261.75C494.349 260.967 494.057 260.042 494.041 258.975H497.791C497.841 259.692 498.091 260.258 498.541 260.675C499.007 261.092 499.641 261.3 500.441 261.3C501.257 261.3 501.899 261.108 502.366 260.725C502.832 260.325 503.066 259.808 503.066 259.175C503.066 258.658 502.907 258.233 502.591 257.9C502.274 257.567 501.874 257.308 501.391 257.125C500.924 256.925 500.274 256.708 499.441 256.475C498.307 256.142 497.382 255.817 496.666 255.5C495.966 255.167 495.357 254.675 494.841 254.025C494.341 253.358 494.091 252.475 494.091 251.375C494.091 250.342 494.349 249.442 494.866 248.675C495.382 247.908 496.107 247.325 497.041 246.925C497.974 246.508 499.041 246.3 500.241 246.3C502.041 246.3 503.499 246.742 504.616 247.625C505.749 248.492 506.374 249.708 506.491 251.275H502.641C502.607 250.675 502.349 250.183 501.866 249.8C501.399 249.4 500.774 249.2 499.991 249.2C499.307 249.2 498.757 249.375 498.341 249.725C497.941 250.075 497.741 250.583 497.741 251.25C497.741 251.717 497.891 252.108 498.191 252.425C498.507 252.725 498.891 252.975 499.341 253.175C499.807 253.358 500.457 253.575 501.291 253.825C502.424 254.158 503.349 254.492 504.066 254.825C504.782 255.158 505.399 255.658 505.916 256.325C506.432 256.992 506.691 257.867 506.691 258.95C506.691 259.883 506.449 260.75 505.966 261.55C505.482 262.35 504.774 262.992 503.841 263.475C502.907 263.942 501.799 264.175 500.516 264.175Z" fill="black"/>
<path d="M361.21 367.341C361.21 368.801 360.96 370.121 360.46 371.301C359.96 372.461 359.24 373.381 358.3 374.061C357.36 374.741 356.25 375.091 354.97 375.111V370.611C355.83 370.551 356.51 370.251 357.01 369.711C357.51 369.151 357.76 368.391 357.76 367.431C357.76 366.451 357.53 365.681 357.07 365.121C356.59 364.561 355.97 364.281 355.21 364.281C354.59 364.281 354.08 364.471 353.68 364.851C353.28 365.231 352.97 365.711 352.75 366.291C352.51 366.851 352.25 367.631 351.97 368.631C351.57 369.991 351.18 371.101 350.8 371.961C350.4 372.801 349.81 373.531 349.03 374.151C348.23 374.751 347.17 375.051 345.85 375.051C344.61 375.051 343.53 374.741 342.61 374.121C341.69 373.501 340.99 372.631 340.51 371.511C340.01 370.391 339.76 369.111 339.76 367.671C339.76 365.511 340.29 363.761 341.35 362.421C342.39 361.061 343.85 360.311 345.73 360.171V364.791C345.01 364.831 344.42 365.141 343.96 365.721C343.48 366.281 343.24 367.031 343.24 367.971C343.24 368.791 343.45 369.451 343.87 369.951C344.29 370.431 344.9 370.671 345.7 370.671C346.26 370.671 346.73 370.491 347.11 370.131C347.47 369.751 347.77 369.291 348.01 368.751C348.23 368.191 348.49 367.411 348.79 366.411C349.19 365.051 349.59 363.941 349.99 363.081C350.39 362.221 350.99 361.481 351.79 360.861C352.59 360.241 353.64 359.931 354.94 359.931C356.06 359.931 357.1 360.221 358.06 360.801C359.02 361.381 359.79 362.231 360.37 363.351C360.93 364.471 361.21 365.801 361.21 367.341ZM340.06 342.039H343.45V347.619H361V351.819H343.45V357.399H340.06V342.039ZM340.06 334.835H353.02C354.44 334.835 355.53 334.465 356.29 333.725C357.03 332.985 357.4 331.945 357.4 330.605C357.4 329.245 357.03 328.195 356.29 327.455C355.53 326.715 354.44 326.345 353.02 326.345H340.06V322.115H352.99C354.77 322.115 356.28 322.505 357.52 323.285C358.74 324.045 359.66 325.075 360.28 326.375C360.9 327.655 361.21 329.085 361.21 330.665C361.21 332.225 360.9 333.645 360.28 334.925C359.66 336.185 358.74 337.185 357.52 337.925C356.28 338.665 354.77 339.035 352.99 339.035H340.06V334.835ZM340.06 310.737C340.06 308.537 340.49 306.607 341.35 304.947C342.21 303.267 343.44 301.977 345.04 301.077C346.62 300.157 348.46 299.697 350.56 299.697C352.66 299.697 354.5 300.157 356.08 301.077C357.64 301.977 358.85 303.267 359.71 304.947C360.57 306.607 361 308.537 361 310.737V318.057H340.06V310.737ZM357.43 310.887C357.43 308.687 356.83 306.987 355.63 305.787C354.43 304.587 352.74 303.987 350.56 303.987C348.38 303.987 346.68 304.587 345.46 305.787C344.22 306.987 343.6 308.687 343.6 310.887V313.857H357.43V310.887ZM343.45 292.353H348.7V285.303H352.03V292.353H357.58V284.403H361V296.553H340.03V284.403H343.45V292.353ZM361 262.676V266.876L346.63 276.386H361V280.586H340.03V276.386L354.43 266.876H340.03V262.676H361ZM340.06 244.276H343.45V249.856H361V254.056H343.45V259.636H340.06V244.276ZM361.21 233.981C361.21 235.441 360.96 236.761 360.46 237.941C359.96 239.101 359.24 240.021 358.3 240.701C357.36 241.381 356.25 241.731 354.97 241.751V237.251C355.83 237.191 356.51 236.891 357.01 236.351C357.51 235.791 357.76 235.031 357.76 234.071C357.76 233.091 357.53 232.321 357.07 231.761C356.59 231.201 355.97 230.921 355.21 230.921C354.59 230.921 354.08 231.111 353.68 231.491C353.28 231.871 352.97 232.351 352.75 232.931C352.51 233.491 352.25 234.271 351.97 235.271C351.57 236.631 351.18 237.741 350.8 238.601C350.4 239.441 349.81 240.171 349.03 240.791C348.23 241.391 347.17 241.691 345.85 241.691C344.61 241.691 343.53 241.381 342.61 240.761C341.69 240.141 340.99 239.271 340.51 238.151C340.01 237.031 339.76 235.751 339.76 234.311C339.76 232.151 340.29 230.401 341.35 229.061C342.39 227.701 343.85 226.951 345.73 226.811V231.431C345.01 231.471 344.42 231.781 343.96 232.361C343.48 232.921 343.24 233.671 343.24 234.611C343.24 235.431 343.45 236.091 343.87 236.591C344.29 237.071 344.9 237.311 345.7 237.311C346.26 237.311 346.73 237.131 347.11 236.771C347.47 236.391 347.77 235.931 348.01 235.391C348.23 234.831 348.49 234.051 348.79 233.051C349.19 231.691 349.59 230.581 349.99 229.721C350.39 228.861 350.99 228.121 351.79 227.501C352.59 226.881 353.64 226.571 354.94 226.571C356.06 226.571 357.1 226.861 358.06 227.441C359.02 228.021 359.79 228.871 360.37 229.991C360.93 231.111 361.21 232.441 361.21 233.981Z" fill="black"/>
<path d="M417.344 379.06V382.45H408.614V387.82H415.304V391.15H408.614V400H404.414V379.06H417.344ZM431.122 400L426.502 391.84H424.522V400H420.322V379.06H428.182C429.802 379.06 431.182 379.35 432.322 379.93C433.462 380.49 434.312 381.26 434.872 382.24C435.452 383.2 435.742 384.28 435.742 385.48C435.742 386.86 435.342 388.11 434.542 389.23C433.742 390.33 432.552 391.09 430.972 391.51L435.982 400H431.122ZM424.522 388.69H428.032C429.172 388.69 430.022 388.42 430.582 387.88C431.142 387.32 431.422 386.55 431.422 385.57C431.422 384.61 431.142 383.87 430.582 383.35C430.022 382.81 429.172 382.54 428.032 382.54H424.522V388.69ZM452.381 396.01H444.041L442.661 400H438.251L445.781 379.03H450.671L458.201 400H453.761L452.381 396.01ZM451.241 392.65L448.211 383.89L445.181 392.65H451.241ZM478.925 400H474.725L465.215 385.63V400H461.015V379.03H465.215L474.725 393.43V379.03H478.925V400ZM482.056 389.5C482.056 387.44 482.516 385.6 483.436 383.98C484.376 382.34 485.646 381.07 487.246 380.17C488.866 379.25 490.676 378.79 492.676 378.79C495.016 378.79 497.066 379.39 498.826 380.59C500.586 381.79 501.816 383.45 502.516 385.57H497.686C497.206 384.57 496.526 383.82 495.646 383.32C494.786 382.82 493.786 382.57 492.646 382.57C491.426 382.57 490.336 382.86 489.376 383.44C488.436 384 487.696 384.8 487.156 385.84C486.636 386.88 486.376 388.1 486.376 389.5C486.376 390.88 486.636 392.1 487.156 393.16C487.696 394.2 488.436 395.01 489.376 395.59C490.336 396.15 491.426 396.43 492.646 396.43C493.786 396.43 494.786 396.18 495.646 395.68C496.526 395.16 497.206 394.4 497.686 393.4H502.516C501.816 395.54 500.586 397.21 498.826 398.41C497.086 399.59 495.036 400.18 492.676 400.18C490.676 400.18 488.866 399.73 487.246 398.83C485.646 397.91 484.376 396.64 483.436 395.02C482.516 393.4 482.056 391.56 482.056 389.5ZM510.303 382.45V387.7H517.353V391.03H510.303V396.58H518.253V400H506.103V379.03H518.253V382.45H510.303Z" fill="black"/>
<path d="M416.634 275.53V286H414.534V281.545H410.049V286H407.949V275.53H410.049V279.835H414.534V275.53H416.634ZM423.561 286.105C422.581 286.105 421.681 285.875 420.861 285.415C420.041 284.955 419.391 284.32 418.911 283.51C418.431 282.69 418.191 281.765 418.191 280.735C418.191 279.715 418.431 278.8 418.911 277.99C419.391 277.17 420.041 276.53 420.861 276.07C421.681 275.61 422.581 275.38 423.561 275.38C424.551 275.38 425.451 275.61 426.261 276.07C427.081 276.53 427.726 277.17 428.196 277.99C428.676 278.8 428.916 279.715 428.916 280.735C428.916 281.765 428.676 282.69 428.196 283.51C427.726 284.32 427.081 284.955 426.261 285.415C425.441 285.875 424.541 286.105 423.561 286.105ZM423.561 284.23C424.191 284.23 424.746 284.09 425.226 283.81C425.706 283.52 426.081 283.11 426.351 282.58C426.621 282.05 426.756 281.435 426.756 280.735C426.756 280.035 426.621 279.425 426.351 278.905C426.081 278.375 425.706 277.97 425.226 277.69C424.746 277.41 424.191 277.27 423.561 277.27C422.931 277.27 422.371 277.41 421.881 277.69C421.401 277.97 421.026 278.375 420.756 278.905C420.486 279.425 420.351 280.035 420.351 280.735C420.351 281.435 420.486 282.05 420.756 282.58C421.026 283.11 421.401 283.52 421.881 283.81C422.371 284.09 422.931 284.23 423.561 284.23ZM439.433 286H437.333L432.578 278.815V286H430.478V275.515H432.578L437.333 282.715V275.515H439.433V286ZM448.799 278.68C448.559 278.24 448.229 277.905 447.809 277.675C447.389 277.445 446.899 277.33 446.339 277.33C445.719 277.33 445.169 277.47 444.689 277.75C444.209 278.03 443.834 278.43 443.564 278.95C443.294 279.47 443.159 280.07 443.159 280.75C443.159 281.45 443.294 282.06 443.564 282.58C443.844 283.1 444.229 283.5 444.719 283.78C445.209 284.06 445.779 284.2 446.429 284.2C447.229 284.2 447.884 283.99 448.394 283.57C448.904 283.14 449.239 282.545 449.399 281.785H445.799V280.18H451.469V282.01C451.329 282.74 451.029 283.415 450.569 284.035C450.109 284.655 449.514 285.155 448.784 285.535C448.064 285.905 447.254 286.09 446.354 286.09C445.344 286.09 444.429 285.865 443.609 285.415C442.799 284.955 442.159 284.32 441.689 283.51C441.229 282.7 440.999 281.78 440.999 280.75C440.999 279.72 441.229 278.8 441.689 277.99C442.159 277.17 442.799 276.535 443.609 276.085C444.429 275.625 445.339 275.395 446.339 275.395C447.519 275.395 448.544 275.685 449.414 276.265C450.284 276.835 450.884 277.64 451.214 278.68H448.799ZM459.412 279.76V281.53H453.052V279.76H459.412ZM467.677 286L463.867 281.335V286H461.767V275.53H463.867V280.225L467.677 275.53H470.212L465.892 280.72L470.332 286H467.677ZM476.574 286.105C475.594 286.105 474.694 285.875 473.874 285.415C473.054 284.955 472.404 284.32 471.924 283.51C471.444 282.69 471.204 281.765 471.204 280.735C471.204 279.715 471.444 278.8 471.924 277.99C472.404 277.17 473.054 276.53 473.874 276.07C474.694 275.61 475.594 275.38 476.574 275.38C477.564 275.38 478.464 275.61 479.274 276.07C480.094 276.53 480.739 277.17 481.209 277.99C481.689 278.8 481.929 279.715 481.929 280.735C481.929 281.765 481.689 282.69 481.209 283.51C480.739 284.32 480.094 284.955 479.274 285.415C478.454 285.875 477.554 286.105 476.574 286.105ZM476.574 284.23C477.204 284.23 477.759 284.09 478.239 283.81C478.719 283.52 479.094 283.11 479.364 282.58C479.634 282.05 479.769 281.435 479.769 280.735C479.769 280.035 479.634 279.425 479.364 278.905C479.094 278.375 478.719 277.97 478.239 277.69C477.759 277.41 477.204 277.27 476.574 277.27C475.944 277.27 475.384 277.41 474.894 277.69C474.414 277.97 474.039 278.375 473.769 278.905C473.499 279.425 473.364 280.035 473.364 280.735C473.364 281.435 473.499 282.05 473.769 282.58C474.039 283.11 474.414 283.52 474.894 283.81C475.384 284.09 475.944 284.23 476.574 284.23ZM492.446 286H490.346L485.591 278.815V286H483.491V275.515H485.591L490.346 282.715V275.515H492.446V286ZM501.811 278.68C501.571 278.24 501.241 277.905 500.821 277.675C500.401 277.445 499.911 277.33 499.351 277.33C498.731 277.33 498.181 277.47 497.701 277.75C497.221 278.03 496.846 278.43 496.576 278.95C496.306 279.47 496.171 280.07 496.171 280.75C496.171 281.45 496.306 282.06 496.576 282.58C496.856 283.1 497.241 283.5 497.731 283.78C498.221 284.06 498.791 284.2 499.441 284.2C500.241 284.2 500.896 283.99 501.406 283.57C501.916 283.14 502.251 282.545 502.411 281.785H498.811V280.18H504.481V282.01C504.341 282.74 504.041 283.415 503.581 284.035C503.121 284.655 502.526 285.155 501.796 285.535C501.076 285.905 500.266 286.09 499.366 286.09C498.356 286.09 497.441 285.865 496.621 285.415C495.811 284.955 495.171 284.32 494.701 283.51C494.241 282.7 494.011 281.78 494.011 280.75C494.011 279.72 494.241 278.8 494.701 277.99C495.171 277.17 495.811 276.535 496.621 276.085C497.441 275.625 498.351 275.395 499.351 275.395C500.531 275.395 501.556 275.685 502.426 276.265C503.296 276.835 503.896 277.64 504.226 278.68H501.811Z" fill="black"/>
<path d="M413.04 359.572L427 364.692V368.092L413.04 373.212V370.212L424.14 366.372L413.04 362.552V359.572ZM424.34 349.333V354.893L427 355.813V358.753L413.02 353.733V350.473L427 345.453V348.413L424.34 349.333ZM422.1 350.093L416.26 352.113L422.1 354.133V350.093ZM424.78 340.777V336.177H427V343.577H413.04V340.777H424.78ZM413.04 331.637H421.68C422.627 331.637 423.353 331.391 423.86 330.897C424.353 330.404 424.6 329.711 424.6 328.817C424.6 327.911 424.353 327.211 423.86 326.717C423.353 326.224 422.627 325.977 421.68 325.977H413.04V323.157H421.66C422.847 323.157 423.853 323.417 424.68 323.937C425.493 324.444 426.107 325.131 426.52 325.997C426.933 326.851 427.14 327.804 427.14 328.857C427.14 329.897 426.933 330.844 426.52 331.697C426.107 332.537 425.493 333.204 424.68 333.697C423.853 334.191 422.847 334.437 421.66 334.437H413.04V331.637ZM415.3 317.652H418.8V312.952H421.02V317.652H424.72V312.352H427V320.452H413.02V312.352H415.3V317.652ZM427.14 304.987C427.14 305.961 426.973 306.841 426.64 307.627C426.307 308.401 425.827 309.014 425.2 309.467C424.573 309.921 423.833 310.154 422.98 310.167V307.167C423.553 307.127 424.007 306.927 424.34 306.567C424.673 306.194 424.84 305.687 424.84 305.047C424.84 304.394 424.687 303.881 424.38 303.507C424.06 303.134 423.647 302.947 423.14 302.947C422.727 302.947 422.387 303.074 422.12 303.327C421.853 303.581 421.647 303.901 421.5 304.287C421.34 304.661 421.167 305.181 420.98 305.847C420.713 306.754 420.453 307.494 420.2 308.067C419.933 308.627 419.54 309.114 419.02 309.527C418.487 309.927 417.78 310.127 416.9 310.127C416.073 310.127 415.353 309.921 414.74 309.507C414.127 309.094 413.66 308.514 413.34 307.767C413.007 307.021 412.84 306.167 412.84 305.207C412.84 303.767 413.193 302.601 413.9 301.707C414.593 300.801 415.567 300.301 416.82 300.207V303.287C416.34 303.314 415.947 303.521 415.64 303.907C415.32 304.281 415.16 304.781 415.16 305.407C415.16 305.954 415.3 306.394 415.58 306.727C415.86 307.047 416.267 307.207 416.8 307.207C417.173 307.207 417.487 307.087 417.74 306.847C417.98 306.594 418.18 306.287 418.34 305.927C418.487 305.554 418.66 305.034 418.86 304.367C419.127 303.461 419.393 302.721 419.66 302.147C419.927 301.574 420.327 301.081 420.86 300.667C421.393 300.254 422.093 300.047 422.96 300.047C423.707 300.047 424.4 300.241 425.04 300.628C425.68 301.014 426.193 301.581 426.58 302.327C426.953 303.074 427.14 303.961 427.14 304.987Z" fill="black"/>
<path d="M342.111 426.08L334.311 454H327.711L322.471 434.12L316.991 454L310.431 454.04L302.911 426.08H308.911L313.831 447.76L319.511 426.08H325.751L331.111 447.64L336.071 426.08H342.111ZM351.368 430.6V437.6H360.768V442.04H351.368V449.44H361.968V454H345.768V426.04H361.968V430.6H351.368ZM382.897 439.68C384.47 439.973 385.764 440.76 386.777 442.04C387.79 443.32 388.297 444.787 388.297 446.44C388.297 447.933 387.924 449.253 387.177 450.4C386.457 451.52 385.404 452.4 384.017 453.04C382.63 453.68 380.99 454 379.097 454H367.057V426.08H378.577C380.47 426.08 382.097 426.387 383.457 427C384.844 427.613 385.884 428.467 386.577 429.56C387.297 430.653 387.657 431.893 387.657 433.28C387.657 434.907 387.217 436.267 386.337 437.36C385.484 438.453 384.337 439.227 382.897 439.68ZM372.657 437.6H377.777C379.11 437.6 380.137 437.307 380.857 436.72C381.577 436.107 381.937 435.24 381.937 434.12C381.937 433 381.577 432.133 380.857 431.52C380.137 430.907 379.11 430.6 377.777 430.6H372.657V437.6ZM378.297 449.44C379.657 449.44 380.71 449.12 381.457 448.48C382.23 447.84 382.617 446.933 382.617 445.76C382.617 444.56 382.217 443.627 381.417 442.96C380.617 442.267 379.537 441.92 378.177 441.92H372.657V449.44H378.297Z" fill="black"/>
<path d="M853.677 158.1V193H846.677V158.1H853.677ZM884.343 158.1V163.75H875.043V193H868.043V163.75H858.743V158.1H884.343Z" fill="black"/>
<path d="M826.626 396.5C826.626 394.44 827.086 392.6 828.006 390.98C828.946 389.34 830.216 388.07 831.816 387.17C833.436 386.25 835.246 385.79 837.246 385.79C839.586 385.79 841.636 386.39 843.396 387.59C845.156 388.79 846.386 390.45 847.086 392.57H842.256C841.776 391.57 841.096 390.82 840.216 390.32C839.356 389.82 838.356 389.57 837.216 389.57C835.996 389.57 834.906 389.86 833.946 390.44C833.006 391 832.266 391.8 831.726 392.84C831.206 393.88 830.946 395.1 830.946 396.5C830.946 397.88 831.206 399.1 831.726 400.16C832.266 401.2 833.006 402.01 833.946 402.59C834.906 403.15 835.996 403.43 837.216 403.43C838.356 403.43 839.356 403.18 840.216 402.68C841.096 402.16 841.776 401.4 842.256 400.4H847.086C846.386 402.54 845.156 404.21 843.396 405.41C841.656 406.59 839.606 407.18 837.246 407.18C835.246 407.18 833.436 406.73 831.816 405.83C830.216 404.91 828.946 403.64 828.006 402.02C827.086 400.4 826.626 398.56 826.626 396.5ZM860.394 407.21C858.434 407.21 856.634 406.75 854.994 405.83C853.354 404.91 852.054 403.64 851.094 402.02C850.134 400.38 849.654 398.53 849.654 396.47C849.654 394.43 850.134 392.6 851.094 390.98C852.054 389.34 853.354 388.06 854.994 387.14C856.634 386.22 858.434 385.76 860.394 385.76C862.374 385.76 864.174 386.22 865.794 387.14C867.434 388.06 868.724 389.34 869.664 390.98C870.624 392.6 871.104 394.43 871.104 396.47C871.104 398.53 870.624 400.38 869.664 402.02C868.724 403.64 867.434 404.91 865.794 405.83C864.154 406.75 862.354 407.21 860.394 407.21ZM860.394 403.46C861.654 403.46 862.764 403.18 863.724 402.62C864.684 402.04 865.434 401.22 865.974 400.16C866.514 399.1 866.784 397.87 866.784 396.47C866.784 395.07 866.514 393.85 865.974 392.81C865.434 391.75 864.684 390.94 863.724 390.38C862.764 389.82 861.654 389.54 860.394 389.54C859.134 389.54 858.014 389.82 857.034 390.38C856.074 390.94 855.324 391.75 854.784 392.81C854.244 393.85 853.974 395.07 853.974 396.47C853.974 397.87 854.244 399.1 854.784 400.16C855.324 401.22 856.074 402.04 857.034 402.62C858.014 403.18 859.134 403.46 860.394 403.46ZM897.058 386.06V407H892.858V393.38L887.248 407H884.068L878.428 393.38V407H874.228V386.06H878.998L885.658 401.63L892.318 386.06H897.058ZM916.481 392.54C916.481 393.66 916.211 394.71 915.671 395.69C915.151 396.67 914.321 397.46 913.181 398.06C912.061 398.66 910.641 398.96 908.921 398.96H905.411V407H901.211V386.06H908.921C910.541 386.06 911.921 386.34 913.061 386.9C914.201 387.46 915.051 388.23 915.611 389.21C916.191 390.19 916.481 391.3 916.481 392.54ZM908.741 395.57C909.901 395.57 910.761 395.31 911.321 394.79C911.881 394.25 912.161 393.5 912.161 392.54C912.161 390.5 911.021 389.48 908.741 389.48H905.411V395.57H908.741ZM932.303 403.01H923.963L922.583 407H918.173L925.703 386.03H930.593L938.123 407H933.683L932.303 403.01ZM931.163 399.65L928.133 390.89L925.103 399.65H931.163ZM958.847 407H954.647L945.137 392.63V407H940.937V386.03H945.137L954.647 400.43V386.03H958.847V407ZM979.648 386.06L972.568 399.71V407H968.368V399.71L961.258 386.06H965.998L970.498 395.63L974.968 386.06H979.648Z" fill="black"/>
<path d="M901.321 219L896.701 210.84H894.721V219H890.521V198.06H898.381C900.001 198.06 901.381 198.35 902.521 198.93C903.661 199.49 904.511 200.26 905.071 201.24C905.651 202.2 905.941 203.28 905.941 204.48C905.941 205.86 905.541 207.11 904.741 208.23C903.941 209.33 902.751 210.09 901.171 210.51L906.181 219H901.321ZM894.721 207.69H898.231C899.371 207.69 900.221 207.42 900.781 206.88C901.341 206.32 901.621 205.55 901.621 204.57C901.621 203.61 901.341 202.87 900.781 202.35C900.221 201.81 899.371 201.54 898.231 201.54H894.721V207.69ZM913.94 201.45V206.7H920.99V210.03H913.94V215.58H921.89V219H909.74V198.03H921.89V201.45H913.94ZM932.937 219.21C931.477 219.21 930.157 218.96 928.977 218.46C927.817 217.96 926.897 217.24 926.217 216.3C925.537 215.36 925.187 214.25 925.167 212.97H929.667C929.727 213.83 930.027 214.51 930.567 215.01C931.127 215.51 931.887 215.76 932.847 215.76C933.827 215.76 934.597 215.53 935.157 215.07C935.717 214.59 935.997 213.97 935.997 213.21C935.997 212.59 935.807 212.08 935.427 211.68C935.047 211.28 934.567 210.97 933.987 210.75C933.427 210.51 932.647 210.25 931.647 209.97C930.287 209.57 929.177 209.18 928.317 208.8C927.477 208.4 926.747 207.81 926.127 207.03C925.527 206.23 925.227 205.17 925.227 203.85C925.227 202.61 925.537 201.53 926.157 200.61C926.777 199.69 927.647 198.99 928.767 198.51C929.887 198.01 931.167 197.76 932.607 197.76C934.767 197.76 936.517 198.29 937.857 199.35C939.217 200.39 939.967 201.85 940.107 203.73H935.487C935.447 203.01 935.137 202.42 934.557 201.96C933.997 201.48 933.247 201.24 932.307 201.24C931.487 201.24 930.827 201.45 930.327 201.87C929.847 202.29 929.607 202.9 929.607 203.7C929.607 204.26 929.787 204.73 930.147 205.11C930.527 205.47 930.987 205.77 931.527 206.01C932.087 206.23 932.867 206.49 933.867 206.79C935.227 207.19 936.337 207.59 937.197 207.99C938.057 208.39 938.797 208.99 939.417 209.79C940.037 210.59 940.347 211.64 940.347 212.94C940.347 214.06 940.057 215.1 939.477 216.06C938.897 217.02 938.047 217.79 936.927 218.37C935.807 218.93 934.477 219.21 932.937 219.21ZM959.258 204.54C959.258 205.66 958.988 206.71 958.448 207.69C957.928 208.67 957.098 209.46 955.958 210.06C954.838 210.66 953.418 210.96 951.698 210.96H948.188V219H943.988V198.06H951.698C953.318 198.06 954.698 198.34 955.838 198.9C956.978 199.46 957.828 200.23 958.388 201.21C958.968 202.19 959.258 203.3 959.258 204.54ZM951.518 207.57C952.678 207.57 953.538 207.31 954.098 206.79C954.658 206.25 954.938 205.5 954.938 204.54C954.938 202.5 953.798 201.48 951.518 201.48H948.188V207.57H951.518ZM971.96 219.21C970 219.21 968.2 218.75 966.56 217.83C964.92 216.91 963.62 215.64 962.66 214.02C961.7 212.38 961.22 210.53 961.22 208.47C961.22 206.43 961.7 204.6 962.66 202.98C963.62 201.34 964.92 200.06 966.56 199.14C968.2 198.22 970 197.76 971.96 197.76C973.94 197.76 975.74 198.22 977.36 199.14C979 200.06 980.29 201.34 981.23 202.98C982.19 204.6 982.67 206.43 982.67 208.47C982.67 210.53 982.19 212.38 981.23 214.02C980.29 215.64 979 216.91 977.36 217.83C975.72 218.75 973.92 219.21 971.96 219.21ZM971.96 215.46C973.22 215.46 974.33 215.18 975.29 214.62C976.25 214.04 977 213.22 977.54 212.16C978.08 211.1 978.35 209.87 978.35 208.47C978.35 207.07 978.08 205.85 977.54 204.81C977 203.75 976.25 202.94 975.29 202.38C974.33 201.82 973.22 201.54 971.96 201.54C970.7 201.54 969.58 201.82 968.6 202.38C967.64 202.94 966.89 203.75 966.35 204.81C965.81 205.85 965.54 207.07 965.54 208.47C965.54 209.87 965.81 211.1 966.35 212.16C966.89 213.22 967.64 214.04 968.6 214.62C969.58 215.18 970.7 215.46 971.96 215.46ZM1003.7 219H999.505L989.995 204.63V219H985.795V198.03H989.995L999.505 212.43V198.03H1003.7V219ZM1015.09 219.21C1013.63 219.21 1012.31 218.96 1011.13 218.46C1009.97 217.96 1009.05 217.24 1008.37 216.3C1007.69 215.36 1007.34 214.25 1007.32 212.97H1011.82C1011.88 213.83 1012.18 214.51 1012.72 215.01C1013.28 215.51 1014.04 215.76 1015 215.76C1015.98 215.76 1016.75 215.53 1017.31 215.07C1017.87 214.59 1018.15 213.97 1018.15 213.21C1018.15 212.59 1017.96 212.08 1017.58 211.68C1017.2 211.28 1016.72 210.97 1016.14 210.75C1015.58 210.51 1014.8 210.25 1013.8 209.97C1012.44 209.57 1011.33 209.18 1010.47 208.8C1009.63 208.4 1008.9 207.81 1008.28 207.03C1007.68 206.23 1007.38 205.17 1007.38 203.85C1007.38 202.61 1007.69 201.53 1008.31 200.61C1008.93 199.69 1009.8 198.99 1010.92 198.51C1012.04 198.01 1013.32 197.76 1014.76 197.76C1016.92 197.76 1018.67 198.29 1020.01 199.35C1021.37 200.39 1022.12 201.85 1022.26 203.73H1017.64C1017.6 203.01 1017.29 202.42 1016.71 201.96C1016.15 201.48 1015.4 201.24 1014.46 201.24C1013.64 201.24 1012.98 201.45 1012.48 201.87C1012 202.29 1011.76 202.9 1011.76 203.7C1011.76 204.26 1011.94 204.73 1012.3 205.11C1012.68 205.47 1013.14 205.77 1013.68 206.01C1014.24 206.23 1015.02 206.49 1016.02 206.79C1017.38 207.19 1018.49 207.59 1019.35 207.99C1020.21 208.39 1020.95 208.99 1021.57 209.79C1022.19 210.59 1022.5 211.64 1022.5 212.94C1022.5 214.06 1022.21 215.1 1021.63 216.06C1021.05 217.02 1020.2 217.79 1019.08 218.37C1017.96 218.93 1016.63 219.21 1015.09 219.21ZM1030.34 198.06V219H1026.14V198.06H1030.34ZM1046.37 208.26C1047.55 208.48 1048.52 209.07 1049.28 210.03C1050.04 210.99 1050.42 212.09 1050.42 213.33C1050.42 214.45 1050.14 215.44 1049.58 216.3C1049.04 217.14 1048.25 217.8 1047.21 218.28C1046.17 218.76 1044.94 219 1043.52 219H1034.49V198.06H1043.13C1044.55 198.06 1045.77 198.29 1046.79 198.75C1047.83 199.21 1048.61 199.85 1049.13 200.67C1049.67 201.49 1049.94 202.42 1049.94 203.46C1049.94 204.68 1049.61 205.7 1048.95 206.52C1048.31 207.34 1047.45 207.92 1046.37 208.26ZM1038.69 206.7H1042.53C1043.53 206.7 1044.3 206.48 1044.84 206.04C1045.38 205.58 1045.65 204.93 1045.65 204.09C1045.65 203.25 1045.38 202.6 1044.84 202.14C1044.3 201.68 1043.53 201.45 1042.53 201.45H1038.69V206.7ZM1042.92 215.58C1043.94 215.58 1044.73 215.34 1045.29 214.86C1045.87 214.38 1046.16 213.7 1046.16 212.82C1046.16 211.92 1045.86 211.22 1045.26 210.72C1044.66 210.2 1043.85 209.94 1042.83 209.94H1038.69V215.58H1042.92ZM1057.96 198.06V219H1053.76V198.06H1057.96ZM1066.31 215.67H1073.21V219H1062.11V198.06H1066.31V215.67ZM1080.08 198.06V219H1075.88V198.06H1080.08ZM1098.48 198.06V201.45H1092.9V219H1088.7V201.45H1083.12V198.06H1098.48ZM1118.2 198.06L1111.12 211.71V219H1106.92V211.71L1099.81 198.06H1104.55L1109.05 207.63L1113.52 198.06H1118.2Z" fill="black"/>
<path d="M279.95 388.06V409H275.75V395.38L270.14 409H266.96L261.32 395.38V409H257.12V388.06H261.89L268.55 403.63L275.21 388.06H279.95ZM293.822 409.21C291.862 409.21 290.062 408.75 288.422 407.83C286.782 406.91 285.482 405.64 284.522 404.02C283.562 402.38 283.082 400.53 283.082 398.47C283.082 396.43 283.562 394.6 284.522 392.98C285.482 391.34 286.782 390.06 288.422 389.14C290.062 388.22 291.862 387.76 293.822 387.76C295.802 387.76 297.602 388.22 299.222 389.14C300.862 390.06 302.152 391.34 303.092 392.98C304.052 394.6 304.532 396.43 304.532 398.47C304.532 400.53 304.052 402.38 303.092 404.02C302.152 405.64 300.862 406.91 299.222 407.83C297.582 408.75 295.782 409.21 293.822 409.21ZM293.822 405.46C295.082 405.46 296.192 405.18 297.152 404.62C298.112 404.04 298.862 403.22 299.402 402.16C299.942 401.1 300.212 399.87 300.212 398.47C300.212 397.07 299.942 395.85 299.402 394.81C298.862 393.75 298.112 392.94 297.152 392.38C296.192 391.82 295.082 391.54 293.822 391.54C292.562 391.54 291.442 391.82 290.462 392.38C289.502 392.94 288.752 393.75 288.212 394.81C287.672 395.85 287.402 397.07 287.402 398.47C287.402 399.87 287.672 401.1 288.212 402.16C288.752 403.22 289.502 404.04 290.462 404.62C291.442 405.18 292.562 405.46 293.822 405.46ZM319.537 398.26C320.717 398.48 321.687 399.07 322.447 400.03C323.207 400.99 323.587 402.09 323.587 403.33C323.587 404.45 323.307 405.44 322.747 406.3C322.207 407.14 321.417 407.8 320.377 408.28C319.337 408.76 318.107 409 316.687 409H307.657V388.06H316.297C317.717 388.06 318.937 388.29 319.957 388.75C320.997 389.21 321.777 389.85 322.297 390.67C322.837 391.49 323.107 392.42 323.107 393.46C323.107 394.68 322.777 395.7 322.117 396.52C321.477 397.34 320.617 397.92 319.537 398.26ZM311.857 396.7H315.697C316.697 396.7 317.467 396.48 318.007 396.04C318.547 395.58 318.817 394.93 318.817 394.09C318.817 393.25 318.547 392.6 318.007 392.14C317.467 391.68 316.697 391.45 315.697 391.45H311.857V396.7ZM316.087 405.58C317.107 405.58 317.897 405.34 318.457 404.86C319.037 404.38 319.327 403.7 319.327 402.82C319.327 401.92 319.027 401.22 318.427 400.72C317.827 400.2 317.017 399.94 315.997 399.94H311.857V405.58H316.087ZM331.134 388.06V409H326.934V388.06H331.134ZM339.484 405.67H346.384V409H335.284V388.06H339.484V405.67ZM353.253 391.45V396.7H360.303V400.03H353.253V405.58H361.203V409H349.053V388.03H361.203V391.45H353.253Z" fill="black"/>
<path d="M841.663 420.06V423.45H836.083V441H831.883V423.45H826.303V420.06H841.663ZM848.927 423.45V428.7H855.977V432.03H848.927V437.58H856.877V441H844.727V420.03H856.877V423.45H848.927ZM867.924 441.21C866.464 441.21 865.144 440.96 863.964 440.46C862.804 439.96 861.884 439.24 861.204 438.3C860.524 437.36 860.174 436.25 860.154 434.97H864.654C864.714 435.83 865.014 436.51 865.554 437.01C866.114 437.51 866.874 437.76 867.834 437.76C868.814 437.76 869.584 437.53 870.144 437.07C870.704 436.59 870.984 435.97 870.984 435.21C870.984 434.59 870.794 434.08 870.414 433.68C870.034 433.28 869.554 432.97 868.974 432.75C868.414 432.51 867.634 432.25 866.634 431.97C865.274 431.57 864.164 431.18 863.304 430.8C862.464 430.4 861.734 429.81 861.114 429.03C860.514 428.23 860.214 427.17 860.214 425.85C860.214 424.61 860.524 423.53 861.144 422.61C861.764 421.69 862.634 420.99 863.754 420.51C864.874 420.01 866.154 419.76 867.594 419.76C869.754 419.76 871.504 420.29 872.844 421.35C874.204 422.39 874.954 423.85 875.094 425.73H870.474C870.434 425.01 870.124 424.42 869.544 423.96C868.984 423.48 868.234 423.24 867.294 423.24C866.474 423.24 865.814 423.45 865.314 423.87C864.834 424.29 864.594 424.9 864.594 425.7C864.594 426.26 864.774 426.73 865.134 427.11C865.514 427.47 865.974 427.77 866.514 428.01C867.074 428.23 867.854 428.49 868.854 428.79C870.214 429.19 871.324 429.59 872.184 429.99C873.044 430.39 873.784 430.99 874.404 431.79C875.024 432.59 875.334 433.64 875.334 434.94C875.334 436.06 875.044 437.1 874.464 438.06C873.884 439.02 873.034 439.79 871.914 440.37C870.794 440.93 869.464 441.21 867.924 441.21ZM893.225 420.06V423.45H887.645V441H883.445V423.45H877.865V420.06H893.225ZM900.49 420.06V441H896.29V420.06H900.49ZM922.549 441H918.349L908.839 426.63V441H904.639V420.03H908.839L918.349 434.43V420.03H922.549V441ZM941.28 426.36C940.8 425.48 940.14 424.81 939.3 424.35C938.46 423.89 937.48 423.66 936.36 423.66C935.12 423.66 934.02 423.94 933.06 424.5C932.1 425.06 931.35 425.86 930.81 426.9C930.27 427.94 930 429.14 930 430.5C930 431.9 930.27 433.12 930.81 434.16C931.37 435.2 932.14 436 933.12 436.56C934.1 437.12 935.24 437.4 936.54 437.4C938.14 437.4 939.45 436.98 940.47 436.14C941.49 435.28 942.16 434.09 942.48 432.57H935.28V429.36H946.62V433.02C946.34 434.48 945.74 435.83 944.82 437.07C943.9 438.31 942.71 439.31 941.25 440.07C939.81 440.81 938.19 441.18 936.39 441.18C934.37 441.18 932.54 440.73 930.9 439.83C929.28 438.91 928 437.64 927.06 436.02C926.14 434.4 925.68 432.56 925.68 430.5C925.68 428.44 926.14 426.6 927.06 424.98C928 423.34 929.28 422.07 930.9 421.17C932.54 420.25 934.36 419.79 936.36 419.79C938.72 419.79 940.77 420.37 942.51 421.53C944.25 422.67 945.45 424.28 946.11 426.36H941.28Z" fill="black"/>
</svg>
