<svg width="926" viewBox="0 0 926 369" fill="none" xmlns="http://www.w3.org/2000/svg">
<path d="M303.49 104.44C303.49 107.427 302.77 110.227 301.33 112.84C299.943 115.453 297.73 117.56 294.69 119.16C291.703 120.76 287.917 121.56 283.33 121.56H273.97V143H262.77V87.16H283.33C287.65 87.16 291.33 87.9067 294.37 89.4C297.41 90.8933 299.677 92.9467 301.17 95.56C302.717 98.1733 303.49 101.133 303.49 104.44ZM282.85 112.52C285.943 112.52 288.237 111.827 289.73 110.44C291.223 109 291.97 107 291.97 104.44C291.97 99 288.93 96.28 282.85 96.28H273.97V112.52H282.85ZM345.682 132.36H323.442L319.762 143H308.002L328.082 87.08H341.122L361.202 143H349.362L345.682 132.36ZM342.642 123.4L334.562 100.04L326.482 123.4H342.642ZM387.988 143.56C384.094 143.56 380.574 142.893 377.428 141.56C374.334 140.227 371.881 138.307 370.068 135.8C368.254 133.293 367.321 130.333 367.268 126.92H379.268C379.428 129.213 380.228 131.027 381.668 132.36C383.161 133.693 385.188 134.36 387.748 134.36C390.361 134.36 392.414 133.747 393.908 132.52C395.401 131.24 396.148 129.587 396.148 127.56C396.148 125.907 395.641 124.547 394.628 123.48C393.614 122.413 392.334 121.587 390.788 121C389.294 120.36 387.214 119.667 384.548 118.92C380.921 117.853 377.961 116.813 375.668 115.8C373.428 114.733 371.481 113.16 369.828 111.08C368.228 108.947 367.428 106.12 367.428 102.6C367.428 99.2933 368.254 96.4133 369.908 93.96C371.561 91.5067 373.881 89.64 376.868 88.36C379.854 87.0267 383.268 86.36 387.108 86.36C392.868 86.36 397.534 87.7733 401.108 90.6C404.734 93.3733 406.734 97.2667 407.108 102.28H394.788C394.681 100.36 393.854 98.7867 392.308 97.56C390.814 96.28 388.814 95.64 386.308 95.64C384.121 95.64 382.361 96.2 381.028 97.32C379.748 98.44 379.108 100.067 379.108 102.2C379.108 103.693 379.588 104.947 380.548 105.96C381.561 106.92 382.788 107.72 384.228 108.36C385.721 108.947 387.801 109.64 390.468 110.44C394.094 111.507 397.054 112.573 399.348 113.64C401.641 114.707 403.614 116.307 405.268 118.44C406.921 120.573 407.748 123.373 407.748 126.84C407.748 129.827 406.974 132.6 405.427 135.16C403.881 137.72 401.614 139.773 398.628 141.32C395.641 142.813 392.094 143.56 387.988 143.56ZM436.738 143.56C432.844 143.56 429.324 142.893 426.178 141.56C423.084 140.227 420.631 138.307 418.818 135.8C417.004 133.293 416.071 130.333 416.018 126.92H428.018C428.178 129.213 428.978 131.027 430.418 132.36C431.911 133.693 433.938 134.36 436.498 134.36C439.111 134.36 441.164 133.747 442.658 132.52C444.151 131.24 444.898 129.587 444.898 127.56C444.898 125.907 444.391 124.547 443.378 123.48C442.364 122.413 441.084 121.587 439.538 121C438.044 120.36 435.964 119.667 433.298 118.92C429.671 117.853 426.711 116.813 424.418 115.8C422.178 114.733 420.231 113.16 418.578 111.08C416.978 108.947 416.178 106.12 416.178 102.6C416.178 99.2933 417.004 96.4133 418.658 93.96C420.311 91.5067 422.631 89.64 425.618 88.36C428.604 87.0267 432.018 86.36 435.858 86.36C441.618 86.36 446.284 87.7733 449.858 90.6C453.484 93.3733 455.484 97.2667 455.858 102.28H443.538C443.431 100.36 442.604 98.7867 441.058 97.56C439.564 96.28 437.564 95.64 435.058 95.64C432.871 95.64 431.111 96.2 429.778 97.32C428.498 98.44 427.858 100.067 427.858 102.2C427.858 103.693 428.338 104.947 429.298 105.96C430.311 106.92 431.538 107.72 432.978 108.36C434.471 108.947 436.551 109.64 439.218 110.44C442.844 111.507 445.804 112.573 448.098 113.64C450.391 114.707 452.364 116.307 454.018 118.44C455.671 120.573 456.498 123.373 456.498 126.84C456.498 129.827 455.724 132.6 454.177 135.16C452.631 137.72 450.364 139.773 447.378 141.32C444.391 142.813 440.844 143.56 436.738 143.56ZM477.408 96.2V110.2H496.208V119.08H477.408V133.88H498.608V143H466.208V87.08H498.608V96.2H477.408ZM537.586 143L525.266 121.24H519.986V143H508.786V87.16H529.746C534.066 87.16 537.746 87.9333 540.786 89.48C543.826 90.9733 546.092 93.0267 547.586 95.64C549.132 98.2 549.906 101.08 549.906 104.28C549.906 107.96 548.839 111.293 546.706 114.28C544.572 117.213 541.399 119.24 537.186 120.36L550.546 143H537.586ZM519.986 112.84H529.346C532.386 112.84 534.652 112.12 536.146 110.68C537.639 109.187 538.386 107.133 538.386 104.52C538.386 101.96 537.639 99.9867 536.146 98.6C534.652 97.16 532.386 96.44 529.346 96.44H519.986V112.84ZM571.236 96.2V110.2H590.036V119.08H571.236V133.88H592.436V143H560.036V87.08H592.436V96.2H571.236ZM613.814 134.12H632.214V143H602.614V87.16H613.814V134.12ZM650.533 134.12H668.933V143H639.333V87.16H650.533V134.12ZM687.251 96.2V110.2H706.051V119.08H687.251V133.88H708.451V143H676.051V87.08H708.451V96.2H687.251ZM737.909 143.56C734.016 143.56 730.496 142.893 727.349 141.56C724.256 140.227 721.803 138.307 719.989 135.8C718.176 133.293 717.243 130.333 717.189 126.92H729.189C729.349 129.213 730.149 131.027 731.589 132.36C733.083 133.693 735.109 134.36 737.669 134.36C740.283 134.36 742.336 133.747 743.829 132.52C745.323 131.24 746.069 129.587 746.069 127.56C746.069 125.907 745.563 124.547 744.549 123.48C743.536 122.413 742.256 121.587 740.709 121C739.216 120.36 737.136 119.667 734.469 118.92C730.843 117.853 727.883 116.813 725.589 115.8C723.349 114.733 721.403 113.16 719.749 111.08C718.149 108.947 717.349 106.12 717.349 102.6C717.349 99.2933 718.176 96.4133 719.829 93.96C721.483 91.5067 723.803 89.64 726.789 88.36C729.776 87.0267 733.189 86.36 737.029 86.36C742.789 86.36 747.456 87.7733 751.029 90.6C754.656 93.3733 756.656 97.2667 757.029 102.28H744.709C744.603 100.36 743.776 98.7867 742.229 97.56C740.736 96.28 738.736 95.64 736.229 95.64C734.043 95.64 732.283 96.2 730.949 97.32C729.669 98.44 729.029 100.067 729.029 102.2C729.029 103.693 729.509 104.947 730.469 105.96C731.483 106.92 732.709 107.72 734.149 108.36C735.643 108.947 737.723 109.64 740.389 110.44C744.016 111.507 746.976 112.573 749.269 113.64C751.563 114.707 753.536 116.307 755.189 118.44C756.843 120.573 757.669 123.373 757.669 126.84C757.669 129.827 756.896 132.6 755.349 135.16C753.803 137.72 751.536 139.773 748.549 141.32C745.563 142.813 742.016 143.56 737.909 143.56ZM234.28 223H223.08L197.72 184.68V223H186.52V167.08H197.72L223.08 205.48V167.08H234.28V223ZM256.388 167.16V201.72C256.388 205.507 257.375 208.413 259.348 210.44C261.321 212.413 264.095 213.4 267.668 213.4C271.295 213.4 274.095 212.413 276.068 210.44C278.041 208.413 279.028 205.507 279.028 201.72V167.16H290.308V201.64C290.308 206.387 289.268 210.413 287.188 213.72C285.161 216.973 282.415 219.427 278.948 221.08C275.535 222.733 271.721 223.56 267.508 223.56C263.348 223.56 259.561 222.733 256.148 221.08C252.788 219.427 250.121 216.973 248.148 213.72C246.175 210.413 245.188 206.387 245.188 201.64V167.16H256.388ZM362.009 167.16V223H350.809V186.68L335.849 223H327.369L312.329 186.68V223H301.129V167.16H313.849L331.609 208.68L349.369 167.16H362.009ZM384.283 176.2V190.2H403.083V199.08H384.283V213.88H405.483V223H373.083V167.08H405.483V176.2H384.283ZM444.461 223L432.141 201.24H426.861V223H415.661V167.16H436.621C440.941 167.16 444.621 167.933 447.661 169.48C450.701 170.973 452.967 173.027 454.461 175.64C456.007 178.2 456.781 181.08 456.781 184.28C456.781 187.96 455.714 191.293 453.581 194.28C451.447 197.213 448.274 199.24 444.061 200.36L457.421 223H444.461ZM426.861 192.84H436.221C439.261 192.84 441.527 192.12 443.021 190.68C444.514 189.187 445.261 187.133 445.261 184.52C445.261 181.96 444.514 179.987 443.021 178.6C441.527 177.16 439.261 176.44 436.221 176.44H426.861V192.84ZM478.111 167.16V223H466.911V167.16H478.111ZM530.776 232.84L522.296 222.68C519.95 223.267 517.55 223.56 515.096 223.56C509.87 223.56 505.07 222.333 500.696 219.88C496.323 217.427 492.856 214.04 490.296 209.72C487.736 205.347 486.456 200.413 486.456 194.92C486.456 189.48 487.736 184.6 490.296 180.28C492.856 175.907 496.323 172.493 500.696 170.04C505.07 167.587 509.87 166.36 515.096 166.36C520.376 166.36 525.176 167.587 529.496 170.04C533.87 172.493 537.31 175.907 539.816 180.28C542.376 184.6 543.656 189.48 543.656 194.92C543.656 199.88 542.59 204.413 540.456 208.52C538.376 212.573 535.523 215.88 531.896 218.44L544.696 232.84H530.776ZM497.976 194.92C497.976 198.653 498.696 201.933 500.136 204.76C501.576 207.587 503.576 209.773 506.136 211.32C508.75 212.813 511.736 213.56 515.096 213.56C518.456 213.56 521.416 212.813 523.976 211.32C526.536 209.773 528.536 207.587 529.976 204.76C531.416 201.933 532.136 198.653 532.136 194.92C532.136 191.187 531.416 187.933 529.976 185.16C528.536 182.333 526.536 180.173 523.976 178.68C521.416 177.187 518.456 176.44 515.096 176.44C511.736 176.44 508.75 177.187 506.136 178.68C503.576 180.173 501.576 182.333 500.136 185.16C498.696 187.933 497.976 191.187 497.976 194.92ZM563.185 167.16V201.72C563.185 205.507 564.172 208.413 566.145 210.44C568.118 212.413 570.892 213.4 574.465 213.4C578.092 213.4 580.892 212.413 582.865 210.44C584.838 208.413 585.825 205.507 585.825 201.72V167.16H597.105V201.64C597.105 206.387 596.065 210.413 593.985 213.72C591.958 216.973 589.212 219.427 585.745 221.08C582.332 222.733 578.518 223.56 574.305 223.56C570.145 223.56 566.358 222.733 562.945 221.08C559.585 219.427 556.918 216.973 554.945 213.72C552.972 210.413 551.985 206.387 551.985 201.64V167.16H563.185ZM619.126 176.2V190.2H637.926V199.08H619.126V213.88H640.326V223H607.926V167.08H640.326V176.2H619.126ZM669.784 223.56C665.891 223.56 662.371 222.893 659.224 221.56C656.131 220.227 653.678 218.307 651.864 215.8C650.051 213.293 649.118 210.333 649.064 206.92H661.064C661.224 209.213 662.024 211.027 663.464 212.36C664.958 213.693 666.984 214.36 669.544 214.36C672.158 214.36 674.211 213.747 675.704 212.52C677.198 211.24 677.944 209.587 677.944 207.56C677.944 205.907 677.438 204.547 676.424 203.48C675.411 202.413 674.131 201.587 672.584 201C671.091 200.36 669.011 199.667 666.344 198.92C662.718 197.853 659.758 196.813 657.464 195.8C655.224 194.733 653.278 193.16 651.624 191.08C650.024 188.947 649.224 186.12 649.224 182.6C649.224 179.293 650.051 176.413 651.704 173.96C653.358 171.507 655.678 169.64 658.664 168.36C661.651 167.027 665.064 166.36 668.904 166.36C674.664 166.36 679.331 167.773 682.904 170.6C686.531 173.373 688.531 177.267 688.904 182.28H676.584C676.478 180.36 675.651 178.787 674.104 177.56C672.611 176.28 670.611 175.64 668.104 175.64C665.918 175.64 664.158 176.2 662.824 177.32C661.544 178.44 660.904 180.067 660.904 182.2C660.904 183.693 661.384 184.947 662.344 185.96C663.358 186.92 664.584 187.72 666.024 188.36C667.518 188.947 669.598 189.64 672.264 190.44C675.891 191.507 678.851 192.573 681.144 193.64C683.438 194.707 685.411 196.307 687.064 198.44C688.718 200.573 689.544 203.373 689.544 206.84C689.544 209.827 688.771 212.6 687.224 215.16C685.678 217.72 683.411 219.773 680.424 221.32C677.438 222.813 673.891 223.56 669.784 223.56Z" fill="black"/>
<path d="M335.783 256.12L320.423 298H310.223L294.863 256.12H303.863L315.383 289.42L326.843 256.12H335.783ZM349.22 256.12V298H340.82V256.12H349.22ZM365.919 262.9V273.4H380.019V280.06H365.919V291.16H381.819V298H357.519V256.06H381.819V262.9H365.919ZM417.953 256.12V262.9H406.793V298H398.393V262.9H387.233V256.12H417.953ZM459.901 298H451.501L432.481 269.26V298H424.081V256.06H432.481L451.501 284.86V256.06H459.901V298ZM493.883 290.02H477.203L474.443 298H465.623L480.683 256.06H490.463L505.523 298H496.643L493.883 290.02ZM491.603 283.3L485.543 265.78L479.482 283.3H491.603ZM556.812 256.12V298H548.412V270.76L537.192 298H530.832L519.552 270.76V298H511.152V256.12H520.692L534.012 287.26L547.332 256.12H556.812Z" fill="#FF8643"/>
<path d="M154.97 55.31C154.97 56.99 154.565 58.565 153.755 60.035C152.975 61.505 151.73 62.69 150.02 63.59C148.34 64.49 146.21 64.94 143.63 64.94H138.365V77H132.065V45.59H143.63C146.06 45.59 148.13 46.01 149.84 46.85C151.55 47.69 152.825 48.845 153.665 50.315C154.535 51.785 154.97 53.45 154.97 55.31ZM143.36 59.855C145.1 59.855 146.39 59.465 147.23 58.685C148.07 57.875 148.49 56.75 148.49 55.31C148.49 52.25 146.78 50.72 143.36 50.72H138.365V59.855H143.36ZM185.498 45.59V77H179.198V63.635H165.743V77H159.443V45.59H165.743V58.505H179.198V45.59H185.498ZM197.999 45.59V77H191.699V45.59H197.999ZM210.523 72.005H220.873V77H204.223V45.59H210.523V72.005ZM231.177 45.59V77H224.877V45.59H231.177ZM260.307 55.31C260.307 56.99 259.902 58.565 259.092 60.035C258.312 61.505 257.067 62.69 255.357 63.59C253.677 64.49 251.547 64.94 248.967 64.94H243.702V77H237.402V45.59H248.967C251.397 45.59 253.467 46.01 255.177 46.85C256.887 47.69 258.162 48.845 259.002 50.315C259.872 51.785 260.307 53.45 260.307 55.31ZM248.697 59.855C250.437 59.855 251.727 59.465 252.567 58.685C253.407 57.875 253.827 56.75 253.827 55.31C253.827 52.25 252.117 50.72 248.697 50.72H243.702V59.855H248.697ZM287.685 55.31C287.685 56.99 287.28 58.565 286.47 60.035C285.69 61.505 284.445 62.69 282.735 63.59C281.055 64.49 278.925 64.94 276.345 64.94H271.08V77H264.78V45.59H276.345C278.775 45.59 280.845 46.01 282.555 46.85C284.265 47.69 285.54 48.845 286.38 50.315C287.25 51.785 287.685 53.45 287.685 55.31ZM276.075 59.855C277.815 59.855 279.105 59.465 279.945 58.685C280.785 57.875 281.205 56.75 281.205 55.31C281.205 52.25 279.495 50.72 276.075 50.72H271.08V59.855H276.075ZM298.458 45.59V77H292.158V45.59H298.458ZM331.547 77H325.247L310.982 55.445V77H304.682V45.545H310.982L325.247 67.145V45.545H331.547V77ZM344.073 50.675V58.55H354.648V63.545H344.073V71.87H355.998V77H337.773V45.545H355.998V50.675H344.073ZM372.568 77.315C370.378 77.315 368.398 76.94 366.628 76.19C364.888 75.44 363.508 74.36 362.488 72.95C361.468 71.54 360.943 69.875 360.913 67.955H367.663C367.753 69.245 368.203 70.265 369.013 71.015C369.853 71.765 370.993 72.14 372.433 72.14C373.903 72.14 375.058 71.795 375.898 71.105C376.738 70.385 377.158 69.455 377.158 68.315C377.158 67.385 376.873 66.62 376.303 66.02C375.733 65.42 375.013 64.955 374.143 64.625C373.303 64.265 372.133 63.875 370.633 63.455C368.593 62.855 366.928 62.27 365.638 61.7C364.378 61.1 363.283 60.215 362.353 59.045C361.453 57.845 361.003 56.255 361.003 54.275C361.003 52.415 361.468 50.795 362.398 49.415C363.328 48.035 364.633 46.985 366.313 46.265C367.993 45.515 369.913 45.14 372.073 45.14C375.313 45.14 377.938 45.935 379.948 47.525C381.988 49.085 383.113 51.275 383.323 54.095H376.393C376.333 53.015 375.868 52.13 374.998 51.44C374.158 50.72 373.033 50.36 371.623 50.36C370.393 50.36 369.403 50.675 368.653 51.305C367.933 51.935 367.573 52.85 367.573 54.05C367.573 54.89 367.843 55.595 368.383 56.165C368.953 56.705 369.643 57.155 370.453 57.515C371.293 57.845 372.463 58.235 373.963 58.685C376.003 59.285 377.668 59.885 378.958 60.485C380.248 61.085 381.358 61.985 382.288 63.185C383.218 64.385 383.683 65.96 383.683 67.91C383.683 69.59 383.248 71.15 382.378 72.59C381.508 74.03 380.233 75.185 378.553 76.055C376.873 76.895 374.878 77.315 372.568 77.315Z" fill="black"/>
<path d="M704.4 174C704.4 171.253 705.013 168.8 706.24 166.64C707.493 164.453 709.187 162.76 711.32 161.56C713.48 160.333 715.893 159.72 718.56 159.72C721.68 159.72 724.413 160.52 726.76 162.12C729.107 163.72 730.747 165.933 731.68 168.76H725.24C724.6 167.427 723.693 166.427 722.52 165.76C721.373 165.093 720.04 164.76 718.52 164.76C716.893 164.76 715.44 165.147 714.16 165.92C712.907 166.667 711.92 167.733 711.2 169.12C710.507 170.507 710.16 172.133 710.16 174C710.16 175.84 710.507 177.467 711.2 178.88C711.92 180.267 712.907 181.347 714.16 182.12C715.44 182.867 716.893 183.24 718.52 183.24C720.04 183.24 721.373 182.907 722.52 182.24C723.693 181.547 724.6 180.533 725.24 179.2H731.68C730.747 182.053 729.107 184.28 726.76 185.88C724.44 187.453 721.707 188.24 718.56 188.24C715.893 188.24 713.48 187.64 711.32 186.44C709.187 185.213 707.493 183.52 706.24 181.36C705.013 179.2 704.4 176.747 704.4 174ZM753.583 182.68H742.463L740.623 188H734.743L744.783 160.04H751.303L761.343 188H755.423L753.583 182.68ZM752.063 178.2L748.023 166.52L743.983 178.2H752.063ZM795.536 160.08V188H789.936V169.84L782.456 188H778.216L770.696 169.84V188H765.096V160.08H771.456L780.336 180.84L789.216 160.08H795.536ZM816.913 173.68C818.486 173.973 819.779 174.76 820.793 176.04C821.806 177.32 822.313 178.787 822.313 180.44C822.313 181.933 821.939 183.253 821.193 184.4C820.473 185.52 819.419 186.4 818.033 187.04C816.646 187.68 815.006 188 813.113 188H801.073V160.08H812.593C814.486 160.08 816.113 160.387 817.473 161C818.859 161.613 819.899 162.467 820.593 163.56C821.313 164.653 821.673 165.893 821.673 167.28C821.673 168.907 821.233 170.267 820.352 171.36C819.499 172.453 818.353 173.227 816.913 173.68ZM806.673 171.6H811.793C813.126 171.6 814.153 171.307 814.873 170.72C815.593 170.107 815.953 169.24 815.953 168.12C815.953 167 815.593 166.133 814.873 165.52C814.153 164.907 813.126 164.6 811.793 164.6H806.673V171.6ZM812.313 183.44C813.673 183.44 814.726 183.12 815.473 182.48C816.246 181.84 816.633 180.933 816.633 179.76C816.633 178.56 816.233 177.627 815.433 176.96C814.633 176.267 813.553 175.92 812.193 175.92H806.673V183.44H812.313ZM839.736 188.28C837.122 188.28 834.722 187.667 832.536 186.44C830.349 185.213 828.616 183.52 827.336 181.36C826.056 179.173 825.416 176.707 825.416 173.96C825.416 171.24 826.056 168.8 827.336 166.64C828.616 164.453 830.349 162.747 832.536 161.52C834.722 160.293 837.122 159.68 839.736 159.68C842.376 159.68 844.776 160.293 846.936 161.52C849.122 162.747 850.842 164.453 852.096 166.64C853.376 168.8 854.016 171.24 854.016 173.96C854.016 176.707 853.376 179.173 852.096 181.36C850.842 183.52 849.122 185.213 846.936 186.44C844.749 187.667 842.349 188.28 839.736 188.28ZM839.736 183.28C841.416 183.28 842.896 182.907 844.176 182.16C845.456 181.387 846.456 180.293 847.176 178.88C847.896 177.467 848.256 175.827 848.256 173.96C848.256 172.093 847.896 170.467 847.176 169.08C846.456 167.667 845.456 166.587 844.176 165.84C842.896 165.093 841.416 164.72 839.736 164.72C838.056 164.72 836.562 165.093 835.256 165.84C833.976 166.587 832.976 167.667 832.256 169.08C831.536 170.467 831.176 172.093 831.176 173.96C831.176 175.827 831.536 177.467 832.256 178.88C832.976 180.293 833.976 181.387 835.256 182.16C836.562 182.907 838.056 183.28 839.736 183.28ZM867.942 160.08C870.875 160.08 873.449 160.653 875.662 161.8C877.902 162.947 879.622 164.587 880.822 166.72C882.049 168.827 882.662 171.28 882.662 174.08C882.662 176.88 882.049 179.333 880.822 181.44C879.622 183.52 877.902 185.133 875.662 186.28C873.449 187.427 870.875 188 867.942 188H858.182V160.08H867.942ZM867.742 183.24C870.675 183.24 872.942 182.44 874.542 180.84C876.142 179.24 876.942 176.987 876.942 174.08C876.942 171.173 876.142 168.907 874.542 167.28C872.942 165.627 870.675 164.8 867.742 164.8H863.782V183.24H867.742ZM892.454 160.08V188H886.854V160.08H892.454ZM915.107 182.68H903.987L902.147 188H896.267L906.307 160.04H912.827L922.867 188H916.947L915.107 182.68ZM913.587 178.2L909.547 166.52L905.507 178.2H913.587Z" fill="black"/>
<path d="M121.04 259.354H123.3V263.074H135V265.874H123.3V269.594H121.04V259.354ZM123.3 254.511H126.8V249.811H129.02V254.511H132.72V249.211H135V257.311H121.02V249.211H123.3V254.511ZM128 247.347C126.627 247.347 125.4 247.04 124.32 246.427C123.227 245.8 122.38 244.954 121.78 243.887C121.167 242.807 120.86 241.6 120.86 240.267C120.86 238.707 121.26 237.34 122.06 236.167C122.86 234.994 123.967 234.174 125.38 233.707V236.927C124.713 237.247 124.213 237.7 123.88 238.287C123.547 238.86 123.38 239.527 123.38 240.287C123.38 241.1 123.573 241.827 123.96 242.467C124.333 243.094 124.867 243.587 125.56 243.947C126.253 244.294 127.067 244.467 128 244.467C128.92 244.467 129.733 244.294 130.44 243.947C131.133 243.587 131.673 243.094 132.06 242.467C132.433 241.827 132.62 241.1 132.62 240.287C132.62 239.527 132.453 238.86 132.12 238.287C131.773 237.7 131.267 237.247 130.6 236.927V233.707C132.027 234.174 133.14 234.994 133.94 236.167C134.727 237.327 135.12 238.694 135.12 240.267C135.12 241.6 134.82 242.807 134.22 243.887C133.607 244.954 132.76 245.8 131.68 246.427C130.6 247.04 129.373 247.347 128 247.347ZM121.04 219.735H135V222.535H129.06V228.515H135V231.315H121.04V228.515H126.78V222.535H121.04V219.735ZM135 205.039V207.839L125.42 214.179H135V216.979H121.02V214.179L130.62 207.839H121.02V205.039H135ZM135.14 195.792C135.14 197.099 134.833 198.299 134.22 199.392C133.607 200.486 132.76 201.352 131.68 201.992C130.587 202.632 129.353 202.952 127.98 202.952C126.62 202.952 125.4 202.632 124.32 201.992C123.227 201.352 122.373 200.486 121.76 199.392C121.147 198.299 120.84 197.099 120.84 195.792C120.84 194.472 121.147 193.272 121.76 192.192C122.373 191.099 123.227 190.239 124.32 189.612C125.4 188.972 126.62 188.652 127.98 188.652C129.353 188.652 130.587 188.972 131.68 189.612C132.76 190.239 133.607 191.099 134.22 192.192C134.833 193.286 135.14 194.486 135.14 195.792ZM132.64 195.792C132.64 194.952 132.453 194.212 132.08 193.572C131.693 192.932 131.147 192.432 130.44 192.072C129.733 191.712 128.913 191.532 127.98 191.532C127.047 191.532 126.233 191.712 125.54 192.072C124.833 192.432 124.293 192.932 123.92 193.572C123.547 194.212 123.36 194.952 123.36 195.792C123.36 196.632 123.547 197.379 123.92 198.032C124.293 198.672 124.833 199.172 125.54 199.532C126.233 199.892 127.047 200.072 127.98 200.072C128.913 200.072 129.733 199.892 130.44 199.532C131.147 199.172 131.693 198.672 132.08 198.032C132.453 197.379 132.64 196.632 132.64 195.792ZM132.78 183.769V179.169H135V186.569H121.04V183.769H132.78ZM135.14 170.91C135.14 172.216 134.833 173.416 134.22 174.51C133.607 175.603 132.76 176.47 131.68 177.11C130.587 177.75 129.353 178.07 127.98 178.07C126.62 178.07 125.4 177.75 124.32 177.11C123.227 176.47 122.373 175.603 121.76 174.51C121.147 173.416 120.84 172.216 120.84 170.91C120.84 169.59 121.147 168.39 121.76 167.31C122.373 166.216 123.227 165.356 124.32 164.73C125.4 164.09 126.62 163.77 127.98 163.77C129.353 163.77 130.587 164.09 131.68 164.73C132.76 165.356 133.607 166.216 134.22 167.31C134.833 168.403 135.14 169.603 135.14 170.91ZM132.64 170.91C132.64 170.07 132.453 169.33 132.08 168.69C131.693 168.05 131.147 167.55 130.44 167.19C129.733 166.83 128.913 166.65 127.98 166.65C127.047 166.65 126.233 166.83 125.54 167.19C124.833 167.55 124.293 168.05 123.92 168.69C123.547 169.33 123.36 170.07 123.36 170.91C123.36 171.75 123.547 172.496 123.92 173.15C124.293 173.79 124.833 174.29 125.54 174.65C126.233 175.01 127.047 175.19 127.98 175.19C128.913 175.19 129.733 175.01 130.44 174.65C131.147 174.29 131.693 173.79 132.08 173.15C132.453 172.496 132.64 171.75 132.64 170.91ZM125.24 151.966C124.653 152.286 124.207 152.726 123.9 153.286C123.593 153.846 123.44 154.5 123.44 155.246C123.44 156.073 123.627 156.806 124 157.446C124.373 158.086 124.907 158.586 125.6 158.946C126.293 159.306 127.093 159.486 128 159.486C128.933 159.486 129.747 159.306 130.44 158.946C131.133 158.573 131.667 158.06 132.04 157.406C132.413 156.753 132.6 155.993 132.6 155.126C132.6 154.06 132.32 153.186 131.76 152.506C131.187 151.826 130.393 151.38 129.38 151.166V155.966H127.24V148.406H129.68C130.653 148.593 131.553 148.993 132.38 149.606C133.207 150.22 133.873 151.013 134.38 151.986C134.873 152.946 135.12 154.026 135.12 155.226C135.12 156.573 134.82 157.793 134.22 158.886C133.607 159.966 132.76 160.82 131.68 161.446C130.6 162.06 129.373 162.366 128 162.366C126.627 162.366 125.4 162.06 124.32 161.446C123.227 160.82 122.38 159.966 121.78 158.886C121.167 157.793 120.86 156.58 120.86 155.246C120.86 153.673 121.247 152.306 122.02 151.146C122.78 149.986 123.853 149.186 125.24 148.746V151.966ZM121.04 135.235L130.14 139.955H135V142.755H130.14L121.04 147.495V144.335L127.42 141.335L121.04 138.355V135.235Z" fill="black"/>
<path d="M223.534 319.26C224.714 319.48 225.684 320.07 226.444 321.03C227.204 321.99 227.584 323.09 227.584 324.33C227.584 325.45 227.304 326.44 226.744 327.3C226.204 328.14 225.414 328.8 224.374 329.28C223.334 329.76 222.104 330 220.684 330H211.654V309.06H220.294C221.714 309.06 222.934 309.29 223.954 309.75C224.994 310.21 225.774 310.85 226.294 311.67C226.834 312.49 227.104 313.42 227.104 314.46C227.104 315.68 226.774 316.7 226.114 317.52C225.474 318.34 224.614 318.92 223.534 319.26ZM215.854 317.7H219.694C220.694 317.7 221.464 317.48 222.004 317.04C222.544 316.58 222.814 315.93 222.814 315.09C222.814 314.25 222.544 313.6 222.004 313.14C221.464 312.68 220.694 312.45 219.694 312.45H215.854V317.7ZM220.084 326.58C221.104 326.58 221.894 326.34 222.454 325.86C223.034 325.38 223.324 324.7 223.324 323.82C223.324 322.92 223.024 322.22 222.424 321.72C221.824 321.2 221.014 320.94 219.994 320.94H215.854V326.58H220.084ZM235.071 309.06V322.02C235.071 323.44 235.441 324.53 236.181 325.29C236.921 326.03 237.961 326.4 239.301 326.4C240.661 326.4 241.711 326.03 242.451 325.29C243.191 324.53 243.561 323.44 243.561 322.02V309.06H247.791V321.99C247.791 323.77 247.401 325.28 246.621 326.52C245.861 327.74 244.831 328.66 243.531 329.28C242.251 329.9 240.821 330.21 239.241 330.21C237.681 330.21 236.261 329.9 234.981 329.28C233.721 328.66 232.721 327.74 231.981 326.52C231.241 325.28 230.871 323.77 230.871 321.99V309.06H235.071ZM259.079 330.21C257.619 330.21 256.299 329.96 255.119 329.46C253.959 328.96 253.039 328.24 252.359 327.3C251.679 326.36 251.329 325.25 251.309 323.97H255.809C255.869 324.83 256.169 325.51 256.709 326.01C257.269 326.51 258.029 326.76 258.989 326.76C259.969 326.76 260.739 326.53 261.299 326.07C261.859 325.59 262.139 324.97 262.139 324.21C262.139 323.59 261.949 323.08 261.569 322.68C261.189 322.28 260.709 321.97 260.129 321.75C259.569 321.51 258.789 321.25 257.789 320.97C256.429 320.57 255.319 320.18 254.459 319.8C253.619 319.4 252.889 318.81 252.269 318.03C251.669 317.23 251.369 316.17 251.369 314.85C251.369 313.61 251.679 312.53 252.299 311.61C252.919 310.69 253.789 309.99 254.909 309.51C256.029 309.01 257.309 308.76 258.749 308.76C260.909 308.76 262.659 309.29 263.999 310.35C265.359 311.39 266.109 312.85 266.249 314.73H261.629C261.589 314.01 261.279 313.42 260.699 312.96C260.139 312.48 259.389 312.24 258.449 312.24C257.629 312.24 256.969 312.45 256.469 312.87C255.989 313.29 255.749 313.9 255.749 314.7C255.749 315.26 255.929 315.73 256.289 316.11C256.669 316.47 257.129 316.77 257.669 317.01C258.229 317.23 259.009 317.49 260.009 317.79C261.369 318.19 262.479 318.59 263.339 318.99C264.199 319.39 264.939 319.99 265.559 320.79C266.179 321.59 266.489 322.64 266.489 323.94C266.489 325.06 266.199 326.1 265.619 327.06C265.039 328.02 264.189 328.79 263.069 329.37C261.949 329.93 260.619 330.21 259.079 330.21ZM274.331 309.06V330H270.131V309.06H274.331ZM296.39 330H292.19L282.68 315.63V330H278.48V309.03H282.68L292.19 323.43V309.03H296.39V330ZM304.741 312.45V317.7H311.791V321.03H304.741V326.58H312.691V330H300.541V309.03H312.691V312.45H304.741ZM323.738 330.21C322.278 330.21 320.958 329.96 319.778 329.46C318.618 328.96 317.698 328.24 317.018 327.3C316.338 326.36 315.988 325.25 315.968 323.97H320.468C320.528 324.83 320.828 325.51 321.368 326.01C321.928 326.51 322.688 326.76 323.648 326.76C324.628 326.76 325.398 326.53 325.958 326.07C326.518 325.59 326.798 324.97 326.798 324.21C326.798 323.59 326.608 323.08 326.228 322.68C325.848 322.28 325.368 321.97 324.788 321.75C324.228 321.51 323.448 321.25 322.448 320.97C321.088 320.57 319.978 320.18 319.118 319.8C318.278 319.4 317.548 318.81 316.928 318.03C316.328 317.23 316.028 316.17 316.028 314.85C316.028 313.61 316.338 312.53 316.958 311.61C317.578 310.69 318.448 309.99 319.568 309.51C320.688 309.01 321.968 308.76 323.408 308.76C325.568 308.76 327.318 309.29 328.658 310.35C330.018 311.39 330.768 312.85 330.908 314.73H326.288C326.248 314.01 325.938 313.42 325.358 312.96C324.798 312.48 324.048 312.24 323.108 312.24C322.288 312.24 321.628 312.45 321.128 312.87C320.648 313.29 320.408 313.9 320.408 314.7C320.408 315.26 320.588 315.73 320.948 316.11C321.328 316.47 321.788 316.77 322.328 317.01C322.888 317.23 323.668 317.49 324.668 317.79C326.028 318.19 327.138 318.59 327.998 318.99C328.858 319.39 329.598 319.99 330.218 320.79C330.838 321.59 331.148 322.64 331.148 323.94C331.148 325.06 330.858 326.1 330.277 327.06C329.698 328.02 328.848 328.79 327.728 329.37C326.608 329.93 325.278 330.21 323.738 330.21ZM342.019 330.21C340.559 330.21 339.239 329.96 338.059 329.46C336.899 328.96 335.979 328.24 335.299 327.3C334.619 326.36 334.269 325.25 334.249 323.97H338.749C338.809 324.83 339.109 325.51 339.649 326.01C340.209 326.51 340.969 326.76 341.929 326.76C342.909 326.76 343.679 326.53 344.239 326.07C344.799 325.59 345.079 324.97 345.079 324.21C345.079 323.59 344.889 323.08 344.509 322.68C344.129 322.28 343.649 321.97 343.069 321.75C342.509 321.51 341.729 321.25 340.729 320.97C339.369 320.57 338.259 320.18 337.399 319.8C336.559 319.4 335.829 318.81 335.209 318.03C334.609 317.23 334.309 316.17 334.309 314.85C334.309 313.61 334.619 312.53 335.239 311.61C335.859 310.69 336.729 309.99 337.849 309.51C338.969 309.01 340.249 308.76 341.689 308.76C343.849 308.76 345.599 309.29 346.939 310.35C348.299 311.39 349.049 312.85 349.189 314.73H344.569C344.529 314.01 344.219 313.42 343.639 312.96C343.079 312.48 342.329 312.24 341.389 312.24C340.569 312.24 339.909 312.45 339.409 312.87C338.929 313.29 338.689 313.9 338.689 314.7C338.689 315.26 338.869 315.73 339.229 316.11C339.609 316.47 340.069 316.77 340.609 317.01C341.169 317.23 341.949 317.49 342.949 317.79C344.309 318.19 345.419 318.59 346.279 318.99C347.139 319.39 347.879 319.99 348.499 320.79C349.119 321.59 349.429 322.64 349.429 323.94C349.429 325.06 349.139 326.1 348.559 327.06C347.979 328.02 347.129 328.79 346.009 329.37C344.889 329.93 343.559 330.21 342.019 330.21Z" fill="black"/>
<path d="M163.356 10C163.356 8.62667 163.663 7.4 164.276 6.32C164.903 5.22667 165.75 4.38 166.816 3.78C167.896 3.16667 169.103 2.86 170.436 2.86C171.996 2.86 173.363 3.26 174.536 4.06C175.71 4.86 176.53 5.96667 176.996 7.38H173.776C173.456 6.71333 173.003 6.21333 172.416 5.88C171.843 5.54667 171.176 5.38 170.416 5.38C169.603 5.38 168.876 5.57333 168.236 5.96C167.61 6.33333 167.116 6.86667 166.756 7.56C166.41 8.25333 166.236 9.06667 166.236 10C166.236 10.92 166.41 11.7333 166.756 12.44C167.116 13.1333 167.61 13.6733 168.236 14.06C168.876 14.4333 169.603 14.62 170.416 14.62C171.176 14.62 171.843 14.4533 172.416 14.12C173.003 13.7733 173.456 13.2667 173.776 12.6H176.996C176.53 14.0267 175.71 15.14 174.536 15.94C173.376 16.7267 172.01 17.12 170.436 17.12C169.103 17.12 167.896 16.82 166.816 16.22C165.75 15.6067 164.903 14.76 164.276 13.68C163.663 12.6 163.356 11.3733 163.356 10ZM185.868 17.14C184.561 17.14 183.361 16.8333 182.268 16.22C181.174 15.6067 180.308 14.76 179.668 13.68C179.028 12.5867 178.708 11.3533 178.708 9.98C178.708 8.62 179.028 7.4 179.668 6.32C180.308 5.22667 181.174 4.37333 182.268 3.76C183.361 3.14667 184.561 2.84 185.868 2.84C187.188 2.84 188.388 3.14667 189.468 3.76C190.561 4.37333 191.421 5.22667 192.048 6.32C192.688 7.4 193.008 8.62 193.008 9.98C193.008 11.3533 192.688 12.5867 192.048 13.68C191.421 14.76 190.561 15.6067 189.468 16.22C188.374 16.8333 187.174 17.14 185.868 17.14ZM185.868 14.64C186.708 14.64 187.448 14.4533 188.088 14.08C188.728 13.6933 189.228 13.1467 189.588 12.44C189.948 11.7333 190.128 10.9133 190.128 9.98C190.128 9.04667 189.948 8.23333 189.588 7.54C189.228 6.83333 188.728 6.29333 188.088 5.92C187.448 5.54667 186.708 5.36 185.868 5.36C185.028 5.36 184.281 5.54667 183.628 5.92C182.988 6.29333 182.488 6.83333 182.128 7.54C181.768 8.23333 181.588 9.04667 181.588 9.98C181.588 10.9133 181.768 11.7333 182.128 12.44C182.488 13.1467 182.988 13.6933 183.628 14.08C184.281 14.4533 185.028 14.64 185.868 14.64ZM210.311 3.04V17H207.511V7.92L203.771 17H201.651L197.891 7.92V17H195.091V3.04H198.271L202.711 13.42L207.151 3.04H210.311ZM223.259 7.36C223.259 8.10667 223.079 8.80667 222.719 9.46C222.373 10.1133 221.819 10.64 221.059 11.04C220.313 11.44 219.366 11.64 218.219 11.64H215.879V17H213.079V3.04H218.219C219.299 3.04 220.219 3.22667 220.979 3.6C221.739 3.97333 222.306 4.48667 222.679 5.14C223.066 5.79333 223.259 6.53333 223.259 7.36ZM218.099 9.38C218.873 9.38 219.446 9.20667 219.819 8.86C220.193 8.5 220.379 8 220.379 7.36C220.379 6 219.619 5.32 218.099 5.32H215.879V9.38H218.099ZM228.007 3.04V11.68C228.007 12.6267 228.254 13.3533 228.747 13.86C229.241 14.3533 229.934 14.6 230.827 14.6C231.734 14.6 232.434 14.3533 232.927 13.86C233.421 13.3533 233.667 12.6267 233.667 11.68V3.04H236.487V11.66C236.487 12.8467 236.227 13.8533 235.707 14.68C235.201 15.4933 234.514 16.1067 233.647 16.52C232.794 16.9333 231.841 17.14 230.787 17.14C229.747 17.14 228.801 16.9333 227.947 16.52C227.107 16.1067 226.441 15.4933 225.947 14.68C225.454 13.8533 225.207 12.8467 225.207 11.66V3.04H228.007ZM248.693 3.04V5.3H244.973V17H242.173V5.3H238.453V3.04H248.693ZM253.535 5.3V8.8H258.235V11.02H253.535V14.72H258.835V17H250.735V3.02H258.835V5.3H253.535ZM268.58 17L265.5 11.56H264.18V17H261.38V3.04H266.62C267.7 3.04 268.62 3.23333 269.38 3.62C270.14 3.99333 270.707 4.50667 271.08 5.16C271.467 5.8 271.66 6.52 271.66 7.32C271.66 8.24 271.393 9.07333 270.86 9.82C270.327 10.5533 269.533 11.06 268.48 11.34L271.82 17H268.58ZM264.18 9.46H266.52C267.28 9.46 267.847 9.28 268.22 8.92C268.593 8.54667 268.78 8.03333 268.78 7.38C268.78 6.74 268.593 6.24667 268.22 5.9C267.847 5.54 267.28 5.36 266.52 5.36H264.18V9.46ZM279.013 17.14C278.039 17.14 277.159 16.9733 276.373 16.64C275.599 16.3067 274.986 15.8267 274.533 15.2C274.079 14.5733 273.846 13.8333 273.833 12.98H276.833C276.873 13.5533 277.073 14.0067 277.433 14.34C277.806 14.6733 278.313 14.84 278.953 14.84C279.606 14.84 280.119 14.6867 280.493 14.38C280.866 14.06 281.053 13.6467 281.053 13.14C281.053 12.7267 280.926 12.3867 280.673 12.12C280.419 11.8533 280.099 11.6467 279.713 11.5C279.339 11.34 278.819 11.1667 278.153 10.98C277.246 10.7133 276.506 10.4533 275.933 10.2C275.373 9.93333 274.886 9.54 274.473 9.02C274.073 8.48667 273.873 7.78 273.873 6.9C273.873 6.07333 274.079 5.35333 274.493 4.74C274.906 4.12667 275.486 3.66 276.233 3.34C276.979 3.00667 277.833 2.84 278.793 2.84C280.233 2.84 281.399 3.19333 282.293 3.9C283.199 4.59333 283.699 5.56667 283.793 6.82H280.713C280.686 6.34 280.479 5.94667 280.093 5.64C279.719 5.32 279.219 5.16 278.593 5.16C278.046 5.16 277.606 5.3 277.273 5.58C276.953 5.86 276.793 6.26667 276.793 6.8C276.793 7.17333 276.913 7.48667 277.153 7.74C277.406 7.98 277.713 8.18 278.073 8.34C278.446 8.48667 278.966 8.66 279.633 8.86C280.539 9.12667 281.279 9.39333 281.853 9.66C282.426 9.92667 282.919 10.3267 283.333 10.86C283.746 11.3933 283.953 12.0933 283.953 12.96C283.953 13.7067 283.759 14.4 283.372 15.04C282.986 15.68 282.419 16.1933 281.673 16.58C280.926 16.9533 280.039 17.14 279.013 17.14Z" fill="black"/>
<path d="M266.899 27.3V30.8H271.599V33.02H266.899V36.72H272.199V39H264.099V25.02H272.199V27.3H266.899ZM289.963 25.04V39H287.163V29.92L283.423 39H281.303L277.543 29.92V39H274.743V25.04H277.923L282.363 35.42L286.803 25.04H289.963ZM302.912 29.36C302.912 30.1067 302.732 30.8067 302.372 31.46C302.025 32.1133 301.472 32.64 300.712 33.04C299.965 33.44 299.018 33.64 297.872 33.64H295.532V39H292.732V25.04H297.872C298.952 25.04 299.872 25.2267 300.632 25.6C301.392 25.9733 301.958 26.4867 302.332 27.14C302.718 27.7933 302.912 28.5333 302.912 29.36ZM297.752 31.38C298.525 31.38 299.098 31.2067 299.472 30.86C299.845 30.5 300.032 30 300.032 29.36C300.032 28 299.272 27.32 297.752 27.32H295.532V31.38H297.752ZM307.7 36.78H312.3V39H304.9V25.04H307.7V36.78ZM320.559 39.14C319.253 39.14 318.053 38.8333 316.959 38.22C315.866 37.6067 314.999 36.76 314.359 35.68C313.719 34.5867 313.399 33.3533 313.399 31.98C313.399 30.62 313.719 29.4 314.359 28.32C314.999 27.2267 315.866 26.3733 316.959 25.76C318.053 25.1467 319.253 24.84 320.559 24.84C321.879 24.84 323.079 25.1467 324.159 25.76C325.253 26.3733 326.113 27.2267 326.739 28.32C327.379 29.4 327.699 30.62 327.699 31.98C327.699 33.3533 327.379 34.5867 326.739 35.68C326.113 36.76 325.253 37.6067 324.159 38.22C323.066 38.8333 321.866 39.14 320.559 39.14ZM320.559 36.64C321.399 36.64 322.139 36.4533 322.779 36.08C323.419 35.6933 323.919 35.1467 324.279 34.44C324.639 33.7333 324.819 32.9133 324.819 31.98C324.819 31.0467 324.639 30.2333 324.279 29.54C323.919 28.8333 323.419 28.2933 322.779 27.92C322.139 27.5467 321.399 27.36 320.559 27.36C319.719 27.36 318.973 27.5467 318.319 27.92C317.679 28.2933 317.179 28.8333 316.819 29.54C316.459 30.2333 316.279 31.0467 316.279 31.98C316.279 32.9133 316.459 33.7333 316.819 34.44C317.179 35.1467 317.679 35.6933 318.319 36.08C318.973 36.4533 319.719 36.64 320.559 36.64ZM340.882 25.04L336.162 34.14V39H333.362V34.14L328.622 25.04H331.782L334.782 31.42L337.762 25.04H340.882ZM357.717 25.04V39H354.917V29.92L351.177 39H349.057L345.297 29.92V39H342.497V25.04H345.677L350.117 35.42L354.557 25.04H357.717ZM363.285 27.3V30.8H367.985V33.02H363.285V36.72H368.585V39H360.485V25.02H368.585V27.3H363.285ZM383.07 39H380.27L373.93 29.42V39H371.13V25.02H373.93L380.27 34.62V25.02H383.07V39ZM395.337 25.04V27.3H391.617V39H388.817V27.3H385.097V25.04H395.337Z" fill="black"/>
<path d="M476.956 332.21C475.496 332.21 474.176 331.96 472.996 331.46C471.836 330.96 470.916 330.24 470.236 329.3C469.556 328.36 469.206 327.25 469.186 325.97H473.686C473.746 326.83 474.046 327.51 474.586 328.01C475.146 328.51 475.906 328.76 476.866 328.76C477.846 328.76 478.616 328.53 479.176 328.07C479.736 327.59 480.016 326.97 480.016 326.21C480.016 325.59 479.826 325.08 479.446 324.68C479.066 324.28 478.586 323.97 478.006 323.75C477.446 323.51 476.666 323.25 475.666 322.97C474.306 322.57 473.196 322.18 472.336 321.8C471.496 321.4 470.766 320.81 470.146 320.03C469.546 319.23 469.246 318.17 469.246 316.85C469.246 315.61 469.556 314.53 470.176 313.61C470.796 312.69 471.666 311.99 472.786 311.51C473.906 311.01 475.186 310.76 476.626 310.76C478.786 310.76 480.536 311.29 481.876 312.35C483.236 313.39 483.986 314.85 484.126 316.73H479.506C479.466 316.01 479.156 315.42 478.576 314.96C478.016 314.48 477.266 314.24 476.326 314.24C475.506 314.24 474.846 314.45 474.346 314.87C473.866 315.29 473.626 315.9 473.626 316.7C473.626 317.26 473.806 317.73 474.166 318.11C474.546 318.47 475.006 318.77 475.546 319.01C476.106 319.23 476.886 319.49 477.886 319.79C479.246 320.19 480.356 320.59 481.216 320.99C482.076 321.39 482.816 321.99 483.436 322.79C484.056 323.59 484.366 324.64 484.366 325.94C484.366 327.06 484.076 328.1 483.496 329.06C482.916 330.02 482.066 330.79 480.946 331.37C479.826 331.93 478.496 332.21 476.956 332.21ZM499.828 332L492.208 322.67V332H488.008V311.06H492.208V320.45L499.828 311.06H504.898L496.258 321.44L505.138 332H499.828ZM512.1 311.06V332H507.9V311.06H512.1ZM520.45 328.67H527.35V332H516.25V311.06H520.45V328.67ZM534.219 328.67H541.119V332H530.019V311.06H534.219V328.67ZM551.019 332.21C549.559 332.21 548.239 331.96 547.059 331.46C545.899 330.96 544.979 330.24 544.299 329.3C543.619 328.36 543.269 327.25 543.249 325.97H547.749C547.809 326.83 548.109 327.51 548.649 328.01C549.209 328.51 549.969 328.76 550.929 328.76C551.909 328.76 552.679 328.53 553.239 328.07C553.799 327.59 554.079 326.97 554.079 326.21C554.079 325.59 553.889 325.08 553.509 324.68C553.129 324.28 552.649 323.97 552.069 323.75C551.509 323.51 550.729 323.25 549.729 322.97C548.369 322.57 547.259 322.18 546.399 321.8C545.559 321.4 544.829 320.81 544.209 320.03C543.609 319.23 543.309 318.17 543.309 316.85C543.309 315.61 543.619 314.53 544.239 313.61C544.859 312.69 545.729 311.99 546.849 311.51C547.969 311.01 549.249 310.76 550.689 310.76C552.849 310.76 554.599 311.29 555.939 312.35C557.299 313.39 558.049 314.85 558.189 316.73H553.569C553.529 316.01 553.219 315.42 552.639 314.96C552.079 314.48 551.329 314.24 550.389 314.24C549.569 314.24 548.909 314.45 548.409 314.87C547.929 315.29 547.689 315.9 547.689 316.7C547.689 317.26 547.869 317.73 548.229 318.11C548.609 318.47 549.069 318.77 549.609 319.01C550.169 319.23 550.949 319.49 551.949 319.79C553.309 320.19 554.419 320.59 555.279 320.99C556.139 321.39 556.879 321.99 557.499 322.79C558.119 323.59 558.429 324.64 558.429 325.94C558.429 327.06 558.139 328.1 557.559 329.06C556.979 330.02 556.129 330.79 555.009 331.37C553.889 331.93 552.559 332.21 551.019 332.21Z" fill="black"/>
<path d="M783.06 324.608H786.45V330.188H804V334.388H786.45V339.968H783.06V324.608ZM804 310.743L795.84 315.363V317.343H804V321.543H783.06V313.683C783.06 312.063 783.35 310.683 783.93 309.543C784.49 308.403 785.26 307.553 786.24 306.993C787.2 306.413 788.28 306.123 789.48 306.123C790.86 306.123 792.11 306.523 793.23 307.323C794.33 308.123 795.09 309.313 795.51 310.893L804 305.883V310.743ZM792.69 317.343V313.833C792.69 312.693 792.42 311.843 791.88 311.283C791.32 310.723 790.55 310.443 789.57 310.443C788.61 310.443 787.87 310.723 787.35 311.283C786.81 311.843 786.54 312.693 786.54 313.833V317.343H792.69ZM800.01 289.485V297.825L804 299.205V303.615L783.03 296.085V291.195L804 283.665V288.105L800.01 289.485ZM796.65 290.625L787.89 293.655L796.65 296.685V290.625ZM783.06 276.65H804V280.85H783.06V276.65ZM804 254.59V258.79L789.63 268.3H804V272.5H783.03V268.3L797.43 258.79H783.03V254.59H804ZM783.06 246.24H804V250.44H783.06V246.24ZM804 224.18V228.38L789.63 237.89H804V242.09H783.03V237.89L797.43 228.38H783.03V224.18H804ZM789.36 205.45C788.48 205.93 787.81 206.59 787.35 207.43C786.89 208.27 786.66 209.25 786.66 210.37C786.66 211.61 786.94 212.71 787.5 213.67C788.06 214.63 788.86 215.38 789.9 215.92C790.94 216.46 792.14 216.73 793.5 216.73C794.9 216.73 796.12 216.46 797.16 215.92C798.2 215.36 799 214.59 799.56 213.61C800.12 212.63 800.4 211.49 800.4 210.19C800.4 208.59 799.98 207.28 799.14 206.26C798.28 205.24 797.09 204.57 795.57 204.25V211.45H792.36V200.11H796.02C797.48 200.39 798.83 200.99 800.07 201.91C801.31 202.83 802.31 204.02 803.07 205.48C803.81 206.92 804.18 208.54 804.18 210.34C804.18 212.36 803.73 214.19 802.83 215.83C801.91 217.45 800.64 218.73 799.02 219.67C797.4 220.59 795.56 221.05 793.5 221.05C791.44 221.05 789.6 220.59 787.98 219.67C786.34 218.73 785.07 217.45 784.17 215.83C783.25 214.19 782.79 212.37 782.79 210.37C782.79 208.01 783.37 205.96 784.53 204.22C785.67 202.48 787.28 201.28 789.36 200.62V205.45Z" fill="black"/>
<path d="M738.59 329.305H743.675V337.675H770V343.975H743.675V352.345H738.59V329.305ZM770 308.508L757.76 315.438V318.408H770V324.708H738.59V312.918C738.59 310.488 739.025 308.418 739.895 306.708C740.735 304.998 741.89 303.723 743.36 302.883C744.8 302.013 746.42 301.578 748.22 301.578C750.29 301.578 752.165 302.178 753.845 303.378C755.495 304.578 756.635 306.363 757.265 308.733L770 301.218V308.508ZM753.035 318.408V313.143C753.035 311.433 752.63 310.158 751.82 309.318C750.98 308.478 749.825 308.058 748.355 308.058C746.915 308.058 745.805 308.478 745.025 309.318C744.215 310.158 743.81 311.433 743.81 313.143V318.408H753.035ZM738.59 289.67H758.03C760.16 289.67 761.795 289.115 762.935 288.005C764.045 286.895 764.6 285.335 764.6 283.325C764.6 281.285 764.045 279.71 762.935 278.6C761.795 277.49 760.16 276.935 758.03 276.935H738.59V270.59H757.985C760.655 270.59 762.92 271.175 764.78 272.345C766.61 273.485 767.99 275.03 768.92 276.98C769.85 278.9 770.315 281.045 770.315 283.415C770.315 285.755 769.85 287.885 768.92 289.805C767.99 291.695 766.61 293.195 764.78 294.305C762.92 295.415 760.655 295.97 757.985 295.97H738.59V289.67ZM770.315 253.658C770.315 255.848 769.94 257.828 769.19 259.598C768.44 261.338 767.36 262.718 765.95 263.738C764.54 264.758 762.875 265.283 760.955 265.313V258.563C762.245 258.473 763.265 258.023 764.015 257.213C764.765 256.373 765.14 255.233 765.14 253.793C765.14 252.323 764.795 251.168 764.105 250.328C763.385 249.488 762.455 249.068 761.315 249.068C760.385 249.068 759.62 249.353 759.02 249.923C758.42 250.493 757.955 251.213 757.625 252.083C757.265 252.923 756.875 254.093 756.455 255.593C755.855 257.633 755.27 259.298 754.7 260.588C754.1 261.848 753.215 262.943 752.045 263.873C750.845 264.773 749.255 265.223 747.275 265.223C745.415 265.223 743.795 264.758 742.415 263.828C741.035 262.898 739.985 261.593 739.265 259.913C738.515 258.233 738.14 256.313 738.14 254.153C738.14 250.913 738.935 248.288 740.525 246.278C742.085 244.238 744.275 243.113 747.095 242.903V249.833C746.015 249.893 745.13 250.358 744.44 251.228C743.72 252.068 743.36 253.193 743.36 254.603C743.36 255.833 743.675 256.823 744.305 257.573C744.935 258.293 745.85 258.653 747.05 258.653C747.89 258.653 748.595 258.383 749.165 257.843C749.705 257.273 750.155 256.583 750.515 255.773C750.845 254.933 751.235 253.763 751.685 252.263C752.285 250.223 752.885 248.558 753.485 247.268C754.085 245.978 754.985 244.868 756.185 243.938C757.385 243.008 758.96 242.543 760.91 242.543C762.59 242.543 764.15 242.978 765.59 243.848C767.03 244.718 768.185 245.993 769.055 247.673C769.895 249.353 770.315 251.348 770.315 253.658ZM738.59 215.707H743.675V224.077H770V230.377H743.675V238.747H738.59V215.707Z" fill="black"/>
<path d="M456.115 33.12V62.52C456.115 66.6 454.935 69.78 452.575 72.06C450.215 74.3 447.055 75.42 443.095 75.42C439.095 75.42 435.855 74.26 433.375 71.94C430.935 69.62 429.715 66.38 429.715 62.22H438.115C438.155 64.02 438.575 65.42 439.375 66.42C440.215 67.42 441.415 67.92 442.975 67.92C444.495 67.92 445.655 67.44 446.455 66.48C447.255 65.52 447.655 64.2 447.655 62.52V33.12H456.115ZM485.353 75.42C481.433 75.42 477.833 74.5 474.553 72.66C471.273 70.82 468.673 68.28 466.753 65.04C464.833 61.76 463.873 58.06 463.873 53.94C463.873 49.86 464.833 46.2 466.753 42.96C468.673 39.68 471.273 37.12 474.553 35.28C477.833 33.44 481.433 32.52 485.353 32.52C489.313 32.52 492.913 33.44 496.153 35.28C499.433 37.12 502.013 39.68 503.893 42.96C505.813 46.2 506.773 49.86 506.773 53.94C506.773 58.06 505.813 61.76 503.893 65.04C502.013 68.28 499.433 70.82 496.153 72.66C492.873 74.5 489.273 75.42 485.353 75.42ZM485.353 67.92C487.873 67.92 490.093 67.36 492.013 66.24C493.933 65.08 495.433 63.44 496.513 61.32C497.593 59.2 498.133 56.74 498.133 53.94C498.133 51.14 497.593 48.7 496.513 46.62C495.433 44.5 493.933 42.88 492.013 41.76C490.093 40.64 487.873 40.08 485.353 40.08C482.833 40.08 480.593 40.64 478.633 41.76C476.713 42.88 475.213 44.5 474.133 46.62C473.053 48.7 472.513 51.14 472.513 53.94C472.513 56.74 473.053 59.2 474.133 61.32C475.213 63.44 476.713 65.08 478.633 66.24C480.593 67.36 482.833 67.92 485.353 67.92ZM536.783 53.52C539.143 53.96 541.083 55.14 542.603 57.06C544.123 58.98 544.883 61.18 544.883 63.66C544.883 65.9 544.323 67.88 543.203 69.6C542.123 71.28 540.543 72.6 538.463 73.56C536.383 74.52 533.923 75 531.083 75H513.023V33.12H530.303C533.143 33.12 535.583 33.58 537.623 34.5C539.703 35.42 541.263 36.7 542.303 38.34C543.383 39.98 543.923 41.84 543.923 43.92C543.923 46.36 543.263 48.4 541.943 50.04C540.663 51.68 538.943 52.84 536.783 53.52ZM521.423 50.4H529.103C531.103 50.4 532.643 49.96 533.723 49.08C534.803 48.16 535.343 46.86 535.343 45.18C535.343 43.5 534.803 42.2 533.723 41.28C532.643 40.36 531.103 39.9 529.103 39.9H521.423V50.4ZM529.883 68.16C531.923 68.16 533.503 67.68 534.623 66.72C535.783 65.76 536.363 64.4 536.363 62.64C536.363 60.84 535.763 59.44 534.563 58.44C533.363 57.4 531.743 56.88 529.703 56.88H521.423V68.16H529.883ZM566.038 75.42C563.118 75.42 560.478 74.92 558.118 73.92C555.798 72.92 553.958 71.48 552.598 69.6C551.238 67.72 550.538 65.5 550.498 62.94H559.498C559.618 64.66 560.218 66.02 561.298 67.02C562.418 68.02 563.938 68.52 565.858 68.52C567.818 68.52 569.358 68.06 570.478 67.14C571.598 66.18 572.158 64.94 572.158 63.42C572.158 62.18 571.778 61.16 571.018 60.36C570.258 59.56 569.298 58.94 568.138 58.5C567.018 58.02 565.458 57.5 563.458 56.94C560.738 56.14 558.518 55.36 556.798 54.6C555.118 53.8 553.658 52.62 552.418 51.06C551.218 49.46 550.618 47.34 550.618 44.7C550.618 42.22 551.238 40.06 552.478 38.22C553.718 36.38 555.458 34.98 557.698 34.02C559.938 33.02 562.498 32.52 565.378 32.52C569.698 32.52 573.198 33.58 575.878 35.7C578.598 37.78 580.098 40.7 580.378 44.46H571.138C571.058 43.02 570.438 41.84 569.278 40.92C568.158 39.96 566.658 39.48 564.778 39.48C563.138 39.48 561.818 39.9 560.818 40.74C559.858 41.58 559.378 42.8 559.378 44.4C559.378 45.52 559.738 46.46 560.458 47.22C561.218 47.94 562.138 48.54 563.218 49.02C564.338 49.46 565.898 49.98 567.898 50.58C570.618 51.38 572.838 52.18 574.558 52.98C576.278 53.78 577.758 54.98 578.998 56.58C580.238 58.18 580.858 60.28 580.858 62.88C580.858 65.12 580.278 67.2 579.117 69.12C577.958 71.04 576.258 72.58 574.018 73.74C571.778 74.86 569.118 75.42 566.038 75.42Z" fill="#00B7E9"/>
<path d="M130.465 121H126.965L119.04 109.025V121H115.54V103.525H119.04L126.965 115.525V103.525H130.465V121ZM137.424 106.375V110.75H143.299V113.525H137.424V118.15H144.049V121H133.924V103.525H144.049V106.375H137.424ZM159.105 103.55V106.375H154.455V121H150.955V106.375H146.305V103.55H159.105ZM184.984 103.55L180.109 121H175.984L172.709 108.575L169.284 121L165.184 121.025L160.484 103.55H164.234L167.309 117.1L170.859 103.55H174.759L178.109 117.025L181.209 103.55H184.984ZM195.369 121.175C193.736 121.175 192.236 120.792 190.869 120.025C189.502 119.258 188.419 118.2 187.619 116.85C186.819 115.483 186.419 113.942 186.419 112.225C186.419 110.525 186.819 109 187.619 107.65C188.419 106.283 189.502 105.217 190.869 104.45C192.236 103.683 193.736 103.3 195.369 103.3C197.019 103.3 198.519 103.683 199.869 104.45C201.236 105.217 202.311 106.283 203.094 107.65C203.894 109 204.294 110.525 204.294 112.225C204.294 113.942 203.894 115.483 203.094 116.85C202.311 118.2 201.236 119.258 199.869 120.025C198.502 120.792 197.002 121.175 195.369 121.175ZM195.369 118.05C196.419 118.05 197.344 117.817 198.144 117.35C198.944 116.867 199.569 116.183 200.019 115.3C200.469 114.417 200.694 113.392 200.694 112.225C200.694 111.058 200.469 110.042 200.019 109.175C199.569 108.292 198.944 107.617 198.144 107.15C197.344 106.683 196.419 106.45 195.369 106.45C194.319 106.45 193.386 106.683 192.569 107.15C191.769 107.617 191.144 108.292 190.694 109.175C190.244 110.042 190.019 111.058 190.019 112.225C190.019 113.392 190.244 114.417 190.694 115.3C191.144 116.183 191.769 116.867 192.569 117.35C193.386 117.817 194.319 118.05 195.369 118.05ZM215.898 121L212.048 114.2H210.398V121H206.898V103.55H213.448C214.798 103.55 215.948 103.792 216.898 104.275C217.848 104.742 218.556 105.383 219.023 106.2C219.506 107 219.748 107.9 219.748 108.9C219.748 110.05 219.415 111.092 218.748 112.025C218.081 112.942 217.09 113.575 215.773 113.925L219.948 121H215.898ZM210.398 111.575H213.323C214.273 111.575 214.981 111.35 215.448 110.9C215.915 110.433 216.148 109.792 216.148 108.975C216.148 108.175 215.915 107.558 215.448 107.125C214.981 106.675 214.273 106.45 213.323 106.45H210.398V111.575ZM232.763 121L226.413 113.225V121H222.913V103.55H226.413V111.375L232.763 103.55H236.988L229.788 112.2L237.188 121H232.763ZM245.516 121.175C244.299 121.175 243.199 120.967 242.216 120.55C241.249 120.133 240.482 119.533 239.916 118.75C239.349 117.967 239.057 117.042 239.041 115.975H242.791C242.841 116.692 243.091 117.258 243.541 117.675C244.007 118.092 244.641 118.3 245.441 118.3C246.257 118.3 246.899 118.108 247.366 117.725C247.832 117.325 248.066 116.808 248.066 116.175C248.066 115.658 247.907 115.233 247.591 114.9C247.274 114.567 246.874 114.308 246.391 114.125C245.924 113.925 245.274 113.708 244.441 113.475C243.307 113.142 242.382 112.817 241.666 112.5C240.966 112.167 240.357 111.675 239.841 111.025C239.341 110.358 239.091 109.475 239.091 108.375C239.091 107.342 239.349 106.442 239.866 105.675C240.382 104.908 241.107 104.325 242.041 103.925C242.974 103.508 244.041 103.3 245.241 103.3C247.041 103.3 248.499 103.742 249.616 104.625C250.749 105.492 251.374 106.708 251.491 108.275H247.641C247.607 107.675 247.349 107.183 246.866 106.8C246.399 106.4 245.774 106.2 244.991 106.2C244.307 106.2 243.757 106.375 243.341 106.725C242.941 107.075 242.741 107.583 242.741 108.25C242.741 108.717 242.891 109.108 243.191 109.425C243.507 109.725 243.891 109.975 244.341 110.175C244.807 110.358 245.457 110.575 246.291 110.825C247.424 111.158 248.349 111.492 249.066 111.825C249.782 112.158 250.399 112.658 250.916 113.325C251.432 113.992 251.691 114.867 251.691 115.95C251.691 116.883 251.449 117.75 250.966 118.55C250.482 119.35 249.774 119.992 248.841 120.475C247.907 120.942 246.799 121.175 245.516 121.175Z" fill="black"/>
<path d="M106.21 224.341C106.21 225.801 105.96 227.121 105.46 228.301C104.96 229.461 104.24 230.381 103.3 231.061C102.36 231.741 101.25 232.091 99.97 232.111V227.611C100.83 227.551 101.51 227.251 102.01 226.711C102.51 226.151 102.76 225.391 102.76 224.431C102.76 223.451 102.53 222.681 102.07 222.121C101.59 221.561 100.97 221.281 100.21 221.281C99.59 221.281 99.08 221.471 98.68 221.851C98.28 222.231 97.97 222.711 97.75 223.291C97.51 223.851 97.25 224.631 96.97 225.631C96.57 226.991 96.18 228.101 95.8 228.961C95.4 229.801 94.81 230.531 94.03 231.151C93.23 231.751 92.17 232.051 90.85 232.051C89.61 232.051 88.53 231.741 87.61 231.121C86.69 230.501 85.99 229.631 85.51 228.511C85.01 227.391 84.76 226.111 84.76 224.671C84.76 222.511 85.29 220.761 86.35 219.421C87.39 218.061 88.85 217.311 90.73 217.171V221.791C90.01 221.831 89.42 222.141 88.96 222.721C88.48 223.281 88.24 224.031 88.24 224.971C88.24 225.791 88.45 226.451 88.87 226.951C89.29 227.431 89.9 227.671 90.7 227.671C91.26 227.671 91.73 227.491 92.11 227.131C92.47 226.751 92.77 226.291 93.01 225.751C93.23 225.191 93.49 224.411 93.79 223.411C94.19 222.051 94.59 220.941 94.99 220.081C95.39 219.221 95.99 218.481 96.79 217.861C97.59 217.241 98.64 216.931 99.94 216.931C101.06 216.931 102.1 217.221 103.06 217.801C104.02 218.381 104.79 219.231 105.37 220.351C105.93 221.471 106.21 222.801 106.21 224.341ZM85.06 199.039H88.45V204.619H106V208.819H88.45V214.399H85.06V199.039ZM85.06 191.835H98.02C99.44 191.835 100.53 191.465 101.29 190.725C102.03 189.985 102.4 188.945 102.4 187.605C102.4 186.245 102.03 185.195 101.29 184.455C100.53 183.715 99.44 183.345 98.02 183.345H85.06V179.115H97.99C99.77 179.115 101.28 179.505 102.52 180.285C103.74 181.045 104.66 182.075 105.28 183.375C105.9 184.655 106.21 186.085 106.21 187.665C106.21 189.225 105.9 190.645 105.28 191.925C104.66 193.185 103.74 194.185 102.52 194.925C101.28 195.665 99.77 196.035 97.99 196.035H85.06V191.835ZM85.06 167.737C85.06 165.537 85.49 163.607 86.35 161.947C87.21 160.267 88.44 158.977 90.04 158.077C91.62 157.157 93.46 156.697 95.56 156.697C97.66 156.697 99.5 157.157 101.08 158.077C102.64 158.977 103.85 160.267 104.71 161.947C105.57 163.607 106 165.537 106 167.737V175.057H85.06V167.737ZM102.43 167.887C102.43 165.687 101.83 163.987 100.63 162.787C99.43 161.587 97.74 160.987 95.56 160.987C93.38 160.987 91.68 161.587 90.46 162.787C89.22 163.987 88.6 165.687 88.6 167.887V170.857H102.43V167.887ZM88.45 149.353H93.7V142.303H97.03V149.353H102.58V141.403H106V153.553H85.03V141.403H88.45V149.353ZM106 119.676V123.876L91.63 133.386H106V137.586H85.03V133.386L99.43 123.876H85.03V119.676H106ZM85.06 101.276H88.45V106.856H106V111.056H88.45V116.636H85.06L85.06 101.276ZM106.21 90.9812C106.21 92.4412 105.96 93.7612 105.46 94.9412C104.96 96.1012 104.24 97.0212 103.3 97.7012C102.36 98.3812 101.25 98.7312 99.97 98.7512V94.2512C100.83 94.1912 101.51 93.8912 102.01 93.3512C102.51 92.7912 102.76 92.0312 102.76 91.0712C102.76 90.0912 102.53 89.3212 102.07 88.7612C101.59 88.2012 100.97 87.9212 100.21 87.9212C99.59 87.9212 99.08 88.1112 98.68 88.4912C98.28 88.8712 97.97 89.3512 97.75 89.9312C97.51 90.4912 97.25 91.2712 96.97 92.2712C96.57 93.6312 96.18 94.7412 95.8 95.6012C95.4 96.4412 94.81 97.1712 94.03 97.7912C93.23 98.3912 92.17 98.6912 90.85 98.6912C89.61 98.6912 88.53 98.3812 87.61 97.7612C86.69 97.1412 85.99 96.2712 85.51 95.1512C85.01 94.0312 84.76 92.7512 84.76 91.3112C84.76 89.1512 85.29 87.4012 86.35 86.0612C87.39 84.7012 88.85 83.9512 90.73 83.8112V88.4312C90.01 88.4712 89.42 88.7812 88.96 89.3612C88.48 89.9212 88.24 90.6712 88.24 91.6112C88.24 92.4312 88.45 93.0912 88.87 93.5912C89.29 94.0712 89.9 94.3112 90.7 94.3112C91.26 94.3112 91.73 94.1312 92.11 93.7712C92.47 93.3912 92.77 92.9312 93.01 92.3912C93.23 91.8312 93.49 91.0512 93.79 90.0512C94.19 88.6912 94.59 87.5812 94.99 86.7212C95.39 85.8612 95.99 85.1212 96.79 84.5012C97.59 83.8812 98.64 83.5712 99.94 83.5712C101.06 83.5712 102.1 83.8612 103.06 84.4413C104.02 85.0212 104.79 85.8712 105.37 86.9912C105.93 88.1112 106.21 89.4412 106.21 90.9812Z" fill="black"/>
<path d="M162.344 236.06V239.45H153.614V244.82H160.304V248.15H153.614V257H149.414V236.06H162.344ZM176.122 257L171.502 248.84H169.522V257H165.322V236.06H173.182C174.802 236.06 176.182 236.35 177.322 236.93C178.462 237.49 179.312 238.26 179.872 239.24C180.452 240.2 180.742 241.28 180.742 242.48C180.742 243.86 180.342 245.11 179.542 246.23C178.742 247.33 177.552 248.09 175.972 248.51L180.982 257H176.122ZM169.522 245.69H173.032C174.172 245.69 175.022 245.42 175.582 244.88C176.142 244.32 176.422 243.55 176.422 242.57C176.422 241.61 176.142 240.87 175.582 240.35C175.022 239.81 174.172 239.54 173.032 239.54H169.522V245.69ZM197.381 253.01H189.041L187.661 257H183.251L190.781 236.03H195.671L203.201 257H198.761L197.381 253.01ZM196.241 249.65L193.211 240.89L190.181 249.65H196.241ZM223.925 257H219.725L210.215 242.63V257H206.015V236.03H210.215L219.725 250.43V236.03H223.925V257ZM227.056 246.5C227.056 244.44 227.516 242.6 228.436 240.98C229.376 239.34 230.646 238.07 232.246 237.17C233.866 236.25 235.676 235.79 237.676 235.79C240.016 235.79 242.066 236.39 243.826 237.59C245.586 238.79 246.816 240.45 247.516 242.57H242.686C242.206 241.57 241.526 240.82 240.646 240.32C239.786 239.82 238.786 239.57 237.646 239.57C236.426 239.57 235.336 239.86 234.376 240.44C233.436 241 232.696 241.8 232.156 242.84C231.636 243.88 231.376 245.1 231.376 246.5C231.376 247.88 231.636 249.1 232.156 250.16C232.696 251.2 233.436 252.01 234.376 252.59C235.336 253.15 236.426 253.43 237.646 253.43C238.786 253.43 239.786 253.18 240.646 252.68C241.526 252.16 242.206 251.4 242.686 250.4H247.516C246.816 252.54 245.586 254.21 243.826 255.41C242.086 256.59 240.036 257.18 237.676 257.18C235.676 257.18 233.866 256.73 232.246 255.83C230.646 254.91 229.376 253.64 228.436 252.02C227.516 250.4 227.056 248.56 227.056 246.5ZM255.303 239.45V244.7H262.353V248.03H255.303V253.58H263.253V257H251.103V236.03H263.253V239.45H255.303Z" fill="black"/>
<path d="M161.634 132.53V143H159.534V138.545H155.049V143H152.949V132.53H155.049V136.835H159.534V132.53H161.634ZM168.561 143.105C167.581 143.105 166.681 142.875 165.861 142.415C165.041 141.955 164.391 141.32 163.911 140.51C163.431 139.69 163.191 138.765 163.191 137.735C163.191 136.715 163.431 135.8 163.911 134.99C164.391 134.17 165.041 133.53 165.861 133.07C166.681 132.61 167.581 132.38 168.561 132.38C169.551 132.38 170.451 132.61 171.261 133.07C172.081 133.53 172.726 134.17 173.196 134.99C173.676 135.8 173.916 136.715 173.916 137.735C173.916 138.765 173.676 139.69 173.196 140.51C172.726 141.32 172.081 141.955 171.261 142.415C170.441 142.875 169.541 143.105 168.561 143.105ZM168.561 141.23C169.191 141.23 169.746 141.09 170.226 140.81C170.706 140.52 171.081 140.11 171.351 139.58C171.621 139.05 171.756 138.435 171.756 137.735C171.756 137.035 171.621 136.425 171.351 135.905C171.081 135.375 170.706 134.97 170.226 134.69C169.746 134.41 169.191 134.27 168.561 134.27C167.931 134.27 167.371 134.41 166.881 134.69C166.401 134.97 166.026 135.375 165.756 135.905C165.486 136.425 165.351 137.035 165.351 137.735C165.351 138.435 165.486 139.05 165.756 139.58C166.026 140.11 166.401 140.52 166.881 140.81C167.371 141.09 167.931 141.23 168.561 141.23ZM184.433 143H182.333L177.578 135.815V143H175.478V132.515H177.578L182.333 139.715V132.515H184.433V143ZM193.799 135.68C193.559 135.24 193.229 134.905 192.809 134.675C192.389 134.445 191.899 134.33 191.339 134.33C190.719 134.33 190.169 134.47 189.689 134.75C189.209 135.03 188.834 135.43 188.564 135.95C188.294 136.47 188.159 137.07 188.159 137.75C188.159 138.45 188.294 139.06 188.564 139.58C188.844 140.1 189.229 140.5 189.719 140.78C190.209 141.06 190.779 141.2 191.429 141.2C192.229 141.2 192.884 140.99 193.394 140.57C193.904 140.14 194.239 139.545 194.399 138.785H190.799V137.18H196.469V139.01C196.329 139.74 196.029 140.415 195.569 141.035C195.109 141.655 194.514 142.155 193.784 142.535C193.064 142.905 192.254 143.09 191.354 143.09C190.344 143.09 189.429 142.865 188.609 142.415C187.799 141.955 187.159 141.32 186.689 140.51C186.229 139.7 185.999 138.78 185.999 137.75C185.999 136.72 186.229 135.8 186.689 134.99C187.159 134.17 187.799 133.535 188.609 133.085C189.429 132.625 190.339 132.395 191.339 132.395C192.519 132.395 193.544 132.685 194.414 133.265C195.284 133.835 195.884 134.64 196.214 135.68H193.799ZM204.412 136.76V138.53H198.052V136.76H204.412ZM212.677 143L208.867 138.335V143H206.767V132.53H208.867V137.225L212.677 132.53H215.212L210.892 137.72L215.332 143H212.677ZM221.574 143.105C220.594 143.105 219.694 142.875 218.874 142.415C218.054 141.955 217.404 141.32 216.924 140.51C216.444 139.69 216.204 138.765 216.204 137.735C216.204 136.715 216.444 135.8 216.924 134.99C217.404 134.17 218.054 133.53 218.874 133.07C219.694 132.61 220.594 132.38 221.574 132.38C222.564 132.38 223.464 132.61 224.274 133.07C225.094 133.53 225.739 134.17 226.209 134.99C226.689 135.8 226.929 136.715 226.929 137.735C226.929 138.765 226.689 139.69 226.209 140.51C225.739 141.32 225.094 141.955 224.274 142.415C223.454 142.875 222.554 143.105 221.574 143.105ZM221.574 141.23C222.204 141.23 222.759 141.09 223.239 140.81C223.719 140.52 224.094 140.11 224.364 139.58C224.634 139.05 224.769 138.435 224.769 137.735C224.769 137.035 224.634 136.425 224.364 135.905C224.094 135.375 223.719 134.97 223.239 134.69C222.759 134.41 222.204 134.27 221.574 134.27C220.944 134.27 220.384 134.41 219.894 134.69C219.414 134.97 219.039 135.375 218.769 135.905C218.499 136.425 218.364 137.035 218.364 137.735C218.364 138.435 218.499 139.05 218.769 139.58C219.039 140.11 219.414 140.52 219.894 140.81C220.384 141.09 220.944 141.23 221.574 141.23ZM237.446 143H235.346L230.591 135.815V143H228.491V132.515H230.591L235.346 139.715V132.515H237.446V143ZM246.811 135.68C246.571 135.24 246.241 134.905 245.821 134.675C245.401 134.445 244.911 134.33 244.351 134.33C243.731 134.33 243.181 134.47 242.701 134.75C242.221 135.03 241.846 135.43 241.576 135.95C241.306 136.47 241.171 137.07 241.171 137.75C241.171 138.45 241.306 139.06 241.576 139.58C241.856 140.1 242.241 140.5 242.731 140.78C243.221 141.06 243.791 141.2 244.441 141.2C245.241 141.2 245.896 140.99 246.406 140.57C246.916 140.14 247.251 139.545 247.411 138.785H243.811V137.18H249.481V139.01C249.341 139.74 249.041 140.415 248.581 141.035C248.121 141.655 247.526 142.155 246.796 142.535C246.076 142.905 245.266 143.09 244.366 143.09C243.356 143.09 242.441 142.865 241.621 142.415C240.811 141.955 240.171 141.32 239.701 140.51C239.241 139.7 239.011 138.78 239.011 137.75C239.011 136.72 239.241 135.8 239.701 134.99C240.171 134.17 240.811 133.535 241.621 133.085C242.441 132.625 243.351 132.395 244.351 132.395C245.531 132.395 246.556 132.685 247.426 133.265C248.296 133.835 248.896 134.64 249.226 135.68H246.811Z" fill="black"/>
<path d="M158.04 216.572L172 221.692V225.092L158.04 230.212V227.212L169.14 223.372L158.04 219.552V216.572ZM169.34 206.333V211.893L172 212.813V215.753L158.02 210.733V207.473L172 202.453V205.413L169.34 206.333ZM167.1 207.093L161.26 209.113L167.1 211.133V207.093ZM169.78 197.777V193.177H172V200.577H158.04V197.777H169.78ZM158.04 188.637H166.68C167.627 188.637 168.353 188.391 168.86 187.897C169.353 187.404 169.6 186.711 169.6 185.817C169.6 184.911 169.353 184.211 168.86 183.717C168.353 183.224 167.627 182.977 166.68 182.977H158.04L158.04 180.157H166.66C167.847 180.157 168.853 180.417 169.68 180.937C170.493 181.444 171.107 182.131 171.52 182.997C171.933 183.851 172.14 184.804 172.14 185.857C172.14 186.897 171.933 187.844 171.52 188.697C171.107 189.537 170.493 190.204 169.68 190.697C168.853 191.191 167.847 191.437 166.66 191.437H158.04V188.637ZM160.3 174.652H163.8V169.952H166.02V174.652H169.72V169.352H172L172 177.452H158.02V169.352H160.3V174.652ZM172.14 161.987C172.14 162.961 171.973 163.841 171.64 164.627C171.307 165.401 170.827 166.014 170.2 166.467C169.573 166.921 168.833 167.154 167.98 167.167V164.167C168.553 164.127 169.007 163.927 169.34 163.567C169.673 163.194 169.84 162.687 169.84 162.047C169.84 161.394 169.687 160.881 169.38 160.507C169.06 160.134 168.647 159.947 168.14 159.947C167.727 159.947 167.387 160.074 167.12 160.327C166.853 160.581 166.647 160.901 166.5 161.287C166.34 161.661 166.167 162.181 165.98 162.847C165.713 163.754 165.453 164.494 165.2 165.067C164.933 165.627 164.54 166.114 164.02 166.527C163.487 166.927 162.78 167.127 161.9 167.127C161.073 167.127 160.353 166.921 159.74 166.507C159.127 166.094 158.66 165.514 158.34 164.767C158.007 164.021 157.84 163.167 157.84 162.207C157.84 160.767 158.193 159.601 158.9 158.707C159.593 157.801 160.567 157.301 161.82 157.207V160.287C161.34 160.314 160.947 160.521 160.64 160.907C160.32 161.281 160.16 161.781 160.16 162.407C160.16 162.954 160.3 163.394 160.58 163.727C160.86 164.047 161.267 164.207 161.8 164.207C162.173 164.207 162.487 164.087 162.74 163.847C162.98 163.594 163.18 163.287 163.34 162.927C163.487 162.554 163.66 162.034 163.86 161.367C164.127 160.461 164.393 159.721 164.66 159.147C164.927 158.574 165.327 158.081 165.86 157.667C166.393 157.254 167.093 157.047 167.96 157.047C168.707 157.047 169.4 157.241 170.04 157.628C170.68 158.014 171.193 158.581 171.58 159.327C171.953 160.074 172.14 160.961 172.14 161.987Z" fill="black"/>
<path d="M87.1113 283.08L79.3113 311H72.7113L67.4713 291.12L61.9913 311L55.4313 311.04L47.9113 283.08H53.9113L58.8313 304.76L64.5113 283.08H70.7513L76.1113 304.64L81.0713 283.08H87.1113ZM96.3678 287.6V294.6H105.768V299.04H96.3678V306.44H106.968V311H90.7678V283.04H106.968V287.6H96.3678ZM127.897 296.68C129.47 296.973 130.764 297.76 131.777 299.04C132.79 300.32 133.297 301.787 133.297 303.44C133.297 304.933 132.924 306.253 132.177 307.4C131.457 308.52 130.404 309.4 129.017 310.04C127.63 310.68 125.99 311 124.097 311H112.057V283.08H123.577C125.47 283.08 127.097 283.387 128.457 284C129.844 284.613 130.884 285.467 131.577 286.56C132.297 287.653 132.657 288.893 132.657 290.28C132.657 291.907 132.217 293.267 131.337 294.36C130.484 295.453 129.337 296.227 127.897 296.68ZM117.657 294.6H122.777C124.11 294.6 125.137 294.307 125.857 293.72C126.577 293.107 126.937 292.24 126.937 291.12C126.937 290 126.577 289.133 125.857 288.52C125.137 287.907 124.11 287.6 122.777 287.6H117.657V294.6ZM123.297 306.44C124.657 306.44 125.71 306.12 126.457 305.48C127.23 304.84 127.617 303.933 127.617 302.76C127.617 301.56 127.217 300.627 126.417 299.96C125.617 299.267 124.537 298.92 123.177 298.92H117.657V306.44H123.297Z" fill="black"/>
<path d="M598.677 15.1V50H591.677V15.1H598.677ZM629.343 15.1V20.75H620.043V50H613.043V20.75H603.743V15.1H629.343Z" fill="black"/>
<path d="M571.626 253.5C571.626 251.44 572.086 249.6 573.006 247.98C573.946 246.34 575.216 245.07 576.816 244.17C578.436 243.25 580.246 242.79 582.246 242.79C584.586 242.79 586.636 243.39 588.396 244.59C590.156 245.79 591.386 247.45 592.086 249.57H587.256C586.776 248.57 586.096 247.82 585.216 247.32C584.356 246.82 583.356 246.57 582.216 246.57C580.996 246.57 579.906 246.86 578.946 247.44C578.006 248 577.266 248.8 576.726 249.84C576.206 250.88 575.946 252.1 575.946 253.5C575.946 254.88 576.206 256.1 576.726 257.16C577.266 258.2 578.006 259.01 578.946 259.59C579.906 260.15 580.996 260.43 582.216 260.43C583.356 260.43 584.356 260.18 585.216 259.68C586.096 259.16 586.776 258.4 587.256 257.4H592.086C591.386 259.54 590.156 261.21 588.396 262.41C586.656 263.59 584.606 264.18 582.246 264.18C580.246 264.18 578.436 263.73 576.816 262.83C575.216 261.91 573.946 260.64 573.006 259.02C572.086 257.4 571.626 255.56 571.626 253.5ZM605.394 264.21C603.434 264.21 601.634 263.75 599.994 262.83C598.354 261.91 597.054 260.64 596.094 259.02C595.134 257.38 594.654 255.53 594.654 253.47C594.654 251.43 595.134 249.6 596.094 247.98C597.054 246.34 598.354 245.06 599.994 244.14C601.634 243.22 603.434 242.76 605.394 242.76C607.374 242.76 609.174 243.22 610.794 244.14C612.434 245.06 613.724 246.34 614.664 247.98C615.624 249.6 616.104 251.43 616.104 253.47C616.104 255.53 615.624 257.38 614.664 259.02C613.724 260.64 612.434 261.91 610.794 262.83C609.154 263.75 607.354 264.21 605.394 264.21ZM605.394 260.46C606.654 260.46 607.764 260.18 608.724 259.62C609.684 259.04 610.434 258.22 610.974 257.16C611.514 256.1 611.784 254.87 611.784 253.47C611.784 252.07 611.514 250.85 610.974 249.81C610.434 248.75 609.684 247.94 608.724 247.38C607.764 246.82 606.654 246.54 605.394 246.54C604.134 246.54 603.014 246.82 602.034 247.38C601.074 247.94 600.324 248.75 599.784 249.81C599.244 250.85 598.974 252.07 598.974 253.47C598.974 254.87 599.244 256.1 599.784 257.16C600.324 258.22 601.074 259.04 602.034 259.62C603.014 260.18 604.134 260.46 605.394 260.46ZM642.058 243.06V264H637.858V250.38L632.248 264H629.068L623.428 250.38V264H619.228V243.06H623.998L630.658 258.63L637.318 243.06H642.058ZM661.481 249.54C661.481 250.66 661.211 251.71 660.671 252.69C660.151 253.67 659.321 254.46 658.181 255.06C657.061 255.66 655.641 255.96 653.921 255.96H650.411V264H646.211V243.06H653.921C655.541 243.06 656.921 243.34 658.061 243.9C659.201 244.46 660.051 245.23 660.611 246.21C661.191 247.19 661.481 248.3 661.481 249.54ZM653.741 252.57C654.901 252.57 655.761 252.31 656.321 251.79C656.881 251.25 657.161 250.5 657.161 249.54C657.161 247.5 656.021 246.48 653.741 246.48H650.411V252.57H653.741ZM677.303 260.01H668.963L667.583 264H663.173L670.703 243.03H675.593L683.123 264H678.683L677.303 260.01ZM676.163 256.65L673.133 247.89L670.103 256.65H676.163ZM703.847 264H699.647L690.137 249.63V264H685.937V243.03H690.137L699.647 257.43V243.03H703.847V264ZM724.648 243.06L717.568 256.71V264H713.368V256.71L706.258 243.06H710.998L715.498 252.63L719.968 243.06H724.648Z" fill="black"/>
<path d="M646.321 76L641.701 67.84H639.721V76H635.521V55.06H643.381C645.001 55.06 646.381 55.35 647.521 55.93C648.661 56.49 649.511 57.26 650.071 58.24C650.651 59.2 650.941 60.28 650.941 61.48C650.941 62.86 650.541 64.11 649.741 65.23C648.941 66.33 647.751 67.09 646.171 67.51L651.181 76H646.321ZM639.721 64.69H643.231C644.371 64.69 645.221 64.42 645.781 63.88C646.341 63.32 646.621 62.55 646.621 61.57C646.621 60.61 646.341 59.87 645.781 59.35C645.221 58.81 644.371 58.54 643.231 58.54H639.721V64.69ZM658.94 58.45V63.7H665.99V67.03H658.94V72.58H666.89V76H654.74V55.03H666.89V58.45H658.94ZM677.937 76.21C676.477 76.21 675.157 75.96 673.977 75.46C672.817 74.96 671.897 74.24 671.217 73.3C670.537 72.36 670.187 71.25 670.167 69.97H674.667C674.727 70.83 675.027 71.51 675.567 72.01C676.127 72.51 676.887 72.76 677.847 72.76C678.827 72.76 679.597 72.53 680.157 72.07C680.717 71.59 680.997 70.97 680.997 70.21C680.997 69.59 680.807 69.08 680.427 68.68C680.047 68.28 679.567 67.97 678.987 67.75C678.427 67.51 677.647 67.25 676.647 66.97C675.287 66.57 674.177 66.18 673.317 65.8C672.477 65.4 671.747 64.81 671.127 64.03C670.527 63.23 670.227 62.17 670.227 60.85C670.227 59.61 670.537 58.53 671.157 57.61C671.777 56.69 672.647 55.99 673.767 55.51C674.887 55.01 676.167 54.76 677.607 54.76C679.767 54.76 681.517 55.29 682.857 56.35C684.217 57.39 684.967 58.85 685.107 60.73H680.487C680.447 60.01 680.137 59.42 679.557 58.96C678.997 58.48 678.247 58.24 677.307 58.24C676.487 58.24 675.827 58.45 675.327 58.87C674.847 59.29 674.607 59.9 674.607 60.7C674.607 61.26 674.787 61.73 675.147 62.11C675.527 62.47 675.987 62.77 676.527 63.01C677.087 63.23 677.867 63.49 678.867 63.79C680.227 64.19 681.337 64.59 682.197 64.99C683.057 65.39 683.797 65.99 684.417 66.79C685.037 67.59 685.347 68.64 685.347 69.94C685.347 71.06 685.057 72.1 684.477 73.06C683.897 74.02 683.047 74.79 681.927 75.37C680.807 75.93 679.477 76.21 677.937 76.21ZM704.258 61.54C704.258 62.66 703.988 63.71 703.448 64.69C702.928 65.67 702.098 66.46 700.958 67.06C699.838 67.66 698.418 67.96 696.698 67.96H693.188V76H688.988V55.06H696.698C698.318 55.06 699.698 55.34 700.838 55.9C701.978 56.46 702.828 57.23 703.388 58.21C703.968 59.19 704.258 60.3 704.258 61.54ZM696.518 64.57C697.678 64.57 698.538 64.31 699.098 63.79C699.658 63.25 699.938 62.5 699.938 61.54C699.938 59.5 698.798 58.48 696.518 58.48H693.188V64.57H696.518ZM716.96 76.21C715 76.21 713.2 75.75 711.56 74.83C709.92 73.91 708.62 72.64 707.66 71.02C706.7 69.38 706.22 67.53 706.22 65.47C706.22 63.43 706.7 61.6 707.66 59.98C708.62 58.34 709.92 57.06 711.56 56.14C713.2 55.22 715 54.76 716.96 54.76C718.94 54.76 720.74 55.22 722.36 56.14C724 57.06 725.29 58.34 726.23 59.98C727.19 61.6 727.67 63.43 727.67 65.47C727.67 67.53 727.19 69.38 726.23 71.02C725.29 72.64 724 73.91 722.36 74.83C720.72 75.75 718.92 76.21 716.96 76.21ZM716.96 72.46C718.22 72.46 719.33 72.18 720.29 71.62C721.25 71.04 722 70.22 722.54 69.16C723.08 68.1 723.35 66.87 723.35 65.47C723.35 64.07 723.08 62.85 722.54 61.81C722 60.75 721.25 59.94 720.29 59.38C719.33 58.82 718.22 58.54 716.96 58.54C715.7 58.54 714.58 58.82 713.6 59.38C712.64 59.94 711.89 60.75 711.35 61.81C710.81 62.85 710.54 64.07 710.54 65.47C710.54 66.87 710.81 68.1 711.35 69.16C711.89 70.22 712.64 71.04 713.6 71.62C714.58 72.18 715.7 72.46 716.96 72.46ZM748.705 76H744.505L734.995 61.63V76H730.795V55.03H734.995L744.505 69.43V55.03H748.705V76ZM760.085 76.21C758.625 76.21 757.305 75.96 756.125 75.46C754.965 74.96 754.045 74.24 753.365 73.3C752.685 72.36 752.335 71.25 752.315 69.97H756.815C756.875 70.83 757.175 71.51 757.715 72.01C758.275 72.51 759.035 72.76 759.995 72.76C760.975 72.76 761.745 72.53 762.305 72.07C762.865 71.59 763.145 70.97 763.145 70.21C763.145 69.59 762.955 69.08 762.575 68.68C762.195 68.28 761.715 67.97 761.135 67.75C760.575 67.51 759.795 67.25 758.795 66.97C757.435 66.57 756.325 66.18 755.465 65.8C754.625 65.4 753.895 64.81 753.275 64.03C752.675 63.23 752.375 62.17 752.375 60.85C752.375 59.61 752.685 58.53 753.305 57.61C753.925 56.69 754.795 55.99 755.915 55.51C757.035 55.01 758.315 54.76 759.755 54.76C761.915 54.76 763.665 55.29 765.005 56.35C766.365 57.39 767.115 58.85 767.255 60.73H762.635C762.595 60.01 762.285 59.42 761.705 58.96C761.145 58.48 760.395 58.24 759.455 58.24C758.635 58.24 757.975 58.45 757.475 58.87C756.995 59.29 756.755 59.9 756.755 60.7C756.755 61.26 756.935 61.73 757.295 62.11C757.675 62.47 758.135 62.77 758.675 63.01C759.235 63.23 760.015 63.49 761.015 63.79C762.375 64.19 763.485 64.59 764.345 64.99C765.205 65.39 765.945 65.99 766.565 66.79C767.185 67.59 767.495 68.64 767.495 69.94C767.495 71.06 767.205 72.1 766.625 73.06C766.045 74.02 765.195 74.79 764.075 75.37C762.955 75.93 761.625 76.21 760.085 76.21ZM775.336 55.06V76H771.136V55.06H775.336ZM791.366 65.26C792.546 65.48 793.516 66.07 794.276 67.03C795.036 67.99 795.416 69.09 795.416 70.33C795.416 71.45 795.136 72.44 794.576 73.3C794.036 74.14 793.246 74.8 792.206 75.28C791.166 75.76 789.936 76 788.516 76H779.486V55.06H788.126C789.546 55.06 790.766 55.29 791.786 55.75C792.826 56.21 793.606 56.85 794.126 57.67C794.666 58.49 794.936 59.42 794.936 60.46C794.936 61.68 794.606 62.7 793.946 63.52C793.306 64.34 792.446 64.92 791.366 65.26ZM783.686 63.7H787.526C788.526 63.7 789.296 63.48 789.836 63.04C790.376 62.58 790.646 61.93 790.646 61.09C790.646 60.25 790.376 59.6 789.836 59.14C789.296 58.68 788.526 58.45 787.526 58.45H783.686V63.7ZM787.916 72.58C788.936 72.58 789.726 72.34 790.286 71.86C790.866 71.38 791.156 70.7 791.156 69.82C791.156 68.92 790.856 68.22 790.256 67.72C789.656 67.2 788.846 66.94 787.826 66.94H783.686V72.58H787.916ZM802.963 55.06V76H798.763V55.06H802.963ZM811.313 72.67H818.213V76H807.113V55.06H811.313V72.67ZM825.083 55.06V76H820.883V55.06H825.083ZM843.482 55.06V58.45H837.902V76H833.702V58.45H828.122V55.06H843.482ZM863.197 55.06L856.117 68.71V76H851.917V68.71L844.807 55.06H849.547L854.047 64.63L858.517 55.06H863.197Z" fill="black"/>
<path d="M24.9498 245.06V266H20.7498V252.38L15.1398 266H11.9598L6.3198 252.38V266H2.1198V245.06H6.88981L13.5498 260.63L20.2098 245.06H24.9498ZM38.8222 266.21C36.8622 266.21 35.0622 265.75 33.4222 264.83C31.7822 263.91 30.4822 262.64 29.5222 261.02C28.5622 259.38 28.0822 257.53 28.0822 255.47C28.0822 253.43 28.5622 251.6 29.5222 249.98C30.4822 248.34 31.7822 247.06 33.4222 246.14C35.0622 245.22 36.8622 244.76 38.8222 244.76C40.8022 244.76 42.6022 245.22 44.2222 246.14C45.8622 247.06 47.1522 248.34 48.0922 249.98C49.0522 251.6 49.5322 253.43 49.5322 255.47C49.5322 257.53 49.0522 259.38 48.0922 261.02C47.1522 262.64 45.8622 263.91 44.2222 264.83C42.5822 265.75 40.7822 266.21 38.8222 266.21ZM38.8222 262.46C40.0822 262.46 41.1922 262.18 42.1522 261.62C43.1122 261.04 43.8622 260.22 44.4022 259.16C44.9422 258.1 45.2122 256.87 45.2122 255.47C45.2122 254.07 44.9422 252.85 44.4022 251.81C43.8622 250.75 43.1122 249.94 42.1522 249.38C41.1922 248.82 40.0822 248.54 38.8222 248.54C37.5622 248.54 36.4422 248.82 35.4622 249.38C34.5022 249.94 33.7522 250.75 33.2122 251.81C32.6722 252.85 32.4022 254.07 32.4022 255.47C32.4022 256.87 32.6722 258.1 33.2122 259.16C33.7522 260.22 34.5022 261.04 35.4622 261.62C36.4422 262.18 37.5622 262.46 38.8222 262.46ZM64.5369 255.26C65.7169 255.48 66.6869 256.07 67.4469 257.03C68.2069 257.99 68.5869 259.09 68.5869 260.33C68.5869 261.45 68.3069 262.44 67.7469 263.3C67.2069 264.14 66.4169 264.8 65.3769 265.28C64.3369 265.76 63.1069 266 61.6869 266H52.6569V245.06H61.2969C62.7169 245.06 63.9369 245.29 64.9569 245.75C65.9969 246.21 66.7769 246.85 67.2969 247.67C67.8369 248.49 68.1069 249.42 68.1069 250.46C68.1069 251.68 67.7769 252.7 67.1169 253.52C66.4769 254.34 65.6169 254.92 64.5369 255.26ZM56.8569 253.7H60.6969C61.6969 253.7 62.4669 253.48 63.0069 253.04C63.5469 252.58 63.8169 251.93 63.8169 251.09C63.8169 250.25 63.5469 249.6 63.0069 249.14C62.4669 248.68 61.6969 248.45 60.6969 248.45H56.8569V253.7ZM61.0869 262.58C62.1069 262.58 62.8969 262.34 63.4569 261.86C64.0369 261.38 64.3269 260.7 64.3269 259.82C64.3269 258.92 64.0269 258.22 63.4269 257.72C62.8269 257.2 62.0169 256.94 60.9969 256.94H56.8569V262.58H61.0869ZM76.1343 245.06V266H71.9343V245.06H76.1343ZM84.4839 262.67H91.3839V266H80.2839V245.06H84.4839V262.67ZM98.2534 248.45V253.7H105.303V257.03H98.2534V262.58H106.203V266H94.0534V245.03H106.203V248.45H98.2534Z" fill="black"/>
<path d="M586.663 277.06V280.45H581.083V298H576.883V280.45H571.303V277.06H586.663ZM593.927 280.45V285.7H600.977V289.03H593.927V294.58H601.877V298H589.727V277.03H601.877V280.45H593.927ZM612.924 298.21C611.464 298.21 610.144 297.96 608.964 297.46C607.804 296.96 606.884 296.24 606.204 295.3C605.524 294.36 605.174 293.25 605.154 291.97H609.654C609.714 292.83 610.014 293.51 610.554 294.01C611.114 294.51 611.874 294.76 612.834 294.76C613.814 294.76 614.584 294.53 615.144 294.07C615.704 293.59 615.984 292.97 615.984 292.21C615.984 291.59 615.794 291.08 615.414 290.68C615.034 290.28 614.554 289.97 613.974 289.75C613.414 289.51 612.634 289.25 611.634 288.97C610.274 288.57 609.164 288.18 608.304 287.8C607.464 287.4 606.734 286.81 606.114 286.03C605.514 285.23 605.214 284.17 605.214 282.85C605.214 281.61 605.524 280.53 606.144 279.61C606.764 278.69 607.634 277.99 608.754 277.51C609.874 277.01 611.154 276.76 612.594 276.76C614.754 276.76 616.504 277.29 617.844 278.35C619.204 279.39 619.954 280.85 620.094 282.73H615.474C615.434 282.01 615.124 281.42 614.544 280.96C613.984 280.48 613.234 280.24 612.294 280.24C611.474 280.24 610.814 280.45 610.314 280.87C609.834 281.29 609.594 281.9 609.594 282.7C609.594 283.26 609.774 283.73 610.134 284.11C610.514 284.47 610.974 284.77 611.514 285.01C612.074 285.23 612.854 285.49 613.854 285.79C615.214 286.19 616.324 286.59 617.184 286.99C618.044 287.39 618.784 287.99 619.404 288.79C620.024 289.59 620.334 290.64 620.334 291.94C620.334 293.06 620.044 294.1 619.464 295.06C618.884 296.02 618.034 296.79 616.914 297.37C615.794 297.93 614.464 298.21 612.924 298.21ZM638.225 277.06V280.45H632.645V298H628.445V280.45H622.865V277.06H638.225ZM645.49 277.06V298H641.29V277.06H645.49ZM667.549 298H663.349L653.839 283.63V298H649.639V277.03H653.839L663.349 291.43V277.03H667.549V298ZM686.28 283.36C685.8 282.48 685.14 281.81 684.3 281.35C683.46 280.89 682.48 280.66 681.36 280.66C680.12 280.66 679.02 280.94 678.06 281.5C677.1 282.06 676.35 282.86 675.81 283.9C675.27 284.94 675 286.14 675 287.5C675 288.9 675.27 290.12 675.81 291.16C676.37 292.2 677.14 293 678.12 293.56C679.1 294.12 680.24 294.4 681.54 294.4C683.14 294.4 684.45 293.98 685.47 293.14C686.49 292.28 687.16 291.09 687.48 289.57H680.28V286.36H691.62V290.02C691.34 291.48 690.74 292.83 689.82 294.07C688.9 295.31 687.71 296.31 686.25 297.07C684.81 297.81 683.19 298.18 681.39 298.18C679.37 298.18 677.54 297.73 675.9 296.83C674.28 295.91 673 294.64 672.06 293.02C671.14 291.4 670.68 289.56 670.68 287.5C670.68 285.44 671.14 283.6 672.06 281.98C673 280.34 674.28 279.07 675.9 278.17C677.54 277.25 679.36 276.79 681.36 276.79C683.72 276.79 685.77 277.37 687.51 278.53C689.25 279.67 690.45 281.28 691.11 283.36H686.28Z" fill="black"/>
</svg>
